<svg viewBox="0 0 330 200" xmlns="http://www.w3.org/2000/svg"><g><g><g><g><g><line x1="72.29800224304199" y1="176.5999994277954" x2="67.29800224304199" y2="176.5999994277954" style="visibility: inherit;" fill="rgb(0, 0, 0)" stroke="rgb(204, 204, 204)" stroke-width="1px"></line><line x1="72.29800224304199" y1="151.37142808096752" x2="67.29800224304199" y2="151.37142808096752" style="visibility: inherit;" fill="rgb(0, 0, 0)" stroke="rgb(204, 204, 204)" stroke-width="1px"></line><line x1="72.29800224304199" y1="126.14285673413958" x2="67.29800224304199" y2="126.14285673413958" style="visibility: inherit;" fill="rgb(0, 0, 0)" stroke="rgb(204, 204, 204)" stroke-width="1px"></line><line x1="72.29800224304199" y1="100.91428538731165" x2="67.29800224304199" y2="100.91428538731165" style="visibility: inherit;" fill="rgb(0, 0, 0)" stroke="rgb(204, 204, 204)" stroke-width="1px"></line><line x1="72.29800224304199" y1="75.68571404048376" x2="67.29800224304199" y2="75.68571404048376" style="visibility: inherit;" fill="rgb(0, 0, 0)" stroke="rgb(204, 204, 204)" stroke-width="1px"></line><line x1="72.29800224304199" y1="50.457142693655825" x2="67.29800224304199" y2="50.457142693655825" style="visibility: inherit;" fill="rgb(0, 0, 0)" stroke="rgb(204, 204, 204)" stroke-width="1px"></line><line x1="72.29800224304199" y1="25.228571346827923" x2="67.29800224304199" y2="25.228571346827923" style="visibility: inherit;" fill="rgb(0, 0, 0)" stroke="rgb(204, 204, 204)" stroke-width="1px"></line><line x1="72.29800224304199" y1="0" x2="67.29800224304199" y2="0" style="visibility: inherit;" fill="rgb(0, 0, 0)" stroke="rgb(204, 204, 204)" stroke-width="1px"></line></g><g transform="translate(62.29800224304199, 0)"><text style="text-anchor: end; visibility: hidden; font-family: Roboto, sans-serif; font-size: 12px; font-weight: 200;" x="0" y="176.5999994277954" dx="0em" dy="0.3em" fill="rgb(255, 255, 255)" stroke="none" stroke-width="1px">-1e+4</text><text style="text-anchor: end; visibility: inherit; font-family: Roboto, sans-serif; font-size: 12px; font-weight: 200;" x="0" y="151.37142808096752" dx="0em" dy="0.3em" fill="rgb(255, 255, 255)" stroke="none" stroke-width="1px">-5e+3</text><text style="text-anchor: end; visibility: hidden; font-family: Roboto, sans-serif; font-size: 12px; font-weight: 200;" x="0" y="126.14285673413958" dx="0em" dy="0.3em" fill="rgb(255, 255, 255)" stroke="none" stroke-width="1px">0</text><text style="text-anchor: end; visibility: inherit; font-family: Roboto, sans-serif; font-size: 12px; font-weight: 200;" x="0" y="100.91428538731165" dx="0em" dy="0.3em" fill="rgb(255, 255, 255)" stroke="none" stroke-width="1px">5e+3</text><text style="text-anchor: end; visibility: hidden; font-family: Roboto, sans-serif; font-size: 12px; font-weight: 200;" x="0" y="75.68571404048376" dx="0em" dy="0.3em" fill="rgb(255, 255, 255)" stroke="none" stroke-width="1px">1e+4</text><text style="text-anchor: end; visibility: inherit; font-family: Roboto, sans-serif; font-size: 12px; font-weight: 200;" x="0" y="50.457142693655825" dx="0em" dy="0.3em" fill="rgb(255, 255, 255)" stroke="none" stroke-width="1px">1.5e+4</text><text style="text-anchor: end; visibility: hidden; font-family: Roboto, sans-serif; font-size: 12px; font-weight: 200;" x="0" y="25.228571346827923" dx="0em" dy="0.3em" fill="rgb(255, 255, 255)" stroke="none" stroke-width="1px">2e+4</text><text style="text-anchor: end; visibility: hidden; font-family: Roboto, sans-serif; font-size: 12px; font-weight: 200;" x="0" y="0" dx="0em" dy="0.3em" fill="rgb(255, 255, 255)" stroke="none" stroke-width="1px">2.5e+4</text></g><line x1="72.29800224304199" y1="0" x2="72.29800224304199" y2="176.5999994277954" fill="rgb(0, 0, 0)" stroke="rgb(204, 204, 204)" stroke-width="1px"></line></g></g><g transform="translate(72, 0)" clip-path="url(#clip_0)"><clipPath id="clip_0"><rect width="257" height="176"></rect></clipPath><g><g><g><line x1="0" y1="0" x2="0" y2="176.5999994277954" fill="rgb(0, 0, 0)" stroke="rgb(189, 189, 189)" stroke-width="1px" opacity="0.25"></line><line x1="28.633555306328667" y1="0" x2="28.633555306328667" y2="176.5999994277954" fill="rgb(0, 0, 0)" stroke="rgb(189, 189, 189)" stroke-width="1px" opacity="0.25"></line><line x1="57.26711061265733" y1="0" x2="57.26711061265733" y2="176.5999994277954" fill="rgb(0, 0, 0)" stroke="rgb(189, 189, 189)" stroke-width="1px" opacity="0.25"></line><line x1="85.900665918986" y1="0" x2="85.900665918986" y2="176.5999994277954" fill="rgb(0, 0, 0)" stroke="rgb(189, 189, 189)" stroke-width="1px" opacity="0.25"></line><line x1="114.53422122531467" y1="0" x2="114.53422122531467" y2="176.5999994277954" fill="rgb(0, 0, 0)" stroke="rgb(189, 189, 189)" stroke-width="1px" opacity="0.25"></line><line x1="143.16777653164334" y1="0" x2="143.16777653164334" y2="176.5999994277954" fill="rgb(0, 0, 0)" stroke="rgb(189, 189, 189)" stroke-width="1px" opacity="0.25"></line><line x1="171.801331837972" y1="0" x2="171.801331837972" y2="176.5999994277954" fill="rgb(0, 0, 0)" stroke="rgb(189, 189, 189)" stroke-width="1px" opacity="0.25"></line><line x1="200.4348871443007" y1="0" x2="200.4348871443007" y2="176.5999994277954" fill="rgb(0, 0, 0)" stroke="rgb(189, 189, 189)" stroke-width="1px" opacity="0.25"></line><line x1="229.06844245062933" y1="0" x2="229.06844245062933" y2="176.5999994277954" fill="rgb(0, 0, 0)" stroke="rgb(189, 189, 189)" stroke-width="1px" opacity="0.25"></line><line x1="257.701997756958" y1="0" x2="257.701997756958" y2="176.5999994277954" fill="rgb(0, 0, 0)" stroke="rgb(189, 189, 189)" stroke-width="1px" opacity="0.25"></line></g><g><line x1="0" y1="176.5999994277954" x2="257.701997756958" y2="176.5999994277954" fill="rgb(0, 0, 0)" stroke="rgb(189, 189, 189)" stroke-width="1px" opacity="0.25"></line><line x1="0" y1="151.37142808096752" x2="257.701997756958" y2="151.37142808096752" fill="rgb(0, 0, 0)" stroke="rgb(189, 189, 189)" stroke-width="1px" opacity="0.25"></line><line x1="0" y1="126.14285673413958" x2="257.701997756958" y2="126.14285673413958" fill="rgb(0, 0, 0)" stroke="rgb(189, 189, 189)" stroke-width="1px" opacity="0.25"></line><line x1="0" y1="100.91428538731165" x2="257.701997756958" y2="100.91428538731165" fill="rgb(0, 0, 0)" stroke="rgb(189, 189, 189)" stroke-width="1px" opacity="0.25"></line><line x1="0" y1="75.68571404048376" x2="257.701997756958" y2="75.68571404048376" fill="rgb(0, 0, 0)" stroke="rgb(189, 189, 189)" stroke-width="1px" opacity="0.25"></line><line x1="0" y1="50.457142693655825" x2="257.701997756958" y2="50.457142693655825" fill="rgb(0, 0, 0)" stroke="rgb(189, 189, 189)" stroke-width="1px" opacity="0.25"></line><line x1="0" y1="25.228571346827923" x2="257.701997756958" y2="25.228571346827923" fill="rgb(0, 0, 0)" stroke="rgb(189, 189, 189)" stroke-width="1px" opacity="0.25"></line><line x1="0" y1="0" x2="257.701997756958" y2="0" fill="rgb(0, 0, 0)" stroke="rgb(189, 189, 189)" stroke-width="1px" opacity="0.25"></line></g></g></g><g><g><line x1="0" y1="126.14285673413958" x2="257.701997756958" y2="126.14285673413958" fill="rgb(0, 0, 0)" stroke="rgb(153, 153, 153)" stroke-width="1.5px"></line></g></g><g><g><line x1="28.633555306328667" y1="0" x2="28.633555306328667" y2="176.5999994277954" fill="rgb(0, 0, 0)" stroke="rgb(153, 153, 153)" stroke-width="1.5px"></line></g></g><g><g><g><g><g><path style="fill: none;" stroke="rgb(255, 112, 67)" stroke-width="2px" d="M29.20622641245524,178.33589266993877L29.778897518581815,176.38417380419227L30.351568624708385,176.77478934158765L32.06958194308811,177.06919413022928L32.64225304921468,176.2361058431408L33.21492415534125,175.69605484669668L33.78759526146783,175.10966471174254L34.3602663675944,174.81142416523244L34.932937473720976,174.49375465744347L35.50560857984755,173.86325812556754L36.078279685974124,172.97868223715247L36.650950792100694,171.99780809692217L37.223621898227265,170.72602412098294L37.79629300435384,169.331464426739L38.36896411048041,167.95261133634446L38.94163521660699,166.0976418780956L39.51430632273356,163.98764253217408L40.08697742886014,161.92544986954422L40.65964853498671,159.85800142196734L41.232319641113286,157.74410422222817L41.80499074723985,155.30749354614602L42.377661853366426,152.68619635682336L42.950332959493,150.13720463430414L43.523004065619574,147.65038043904113L44.095675171746144,145.12077341868604L44.66834627787272,143.14886624284412L45.24101738399929,141.21895869630478L45.81368849012587,139.25460016181933L46.38635959625244,137.20570444695528L46.95903070237902,135.22329427733516L47.53170180850559,132.86343431135478L48.104372914632165,130.48272536133888L48.677044020758736,128.24222661677715L49.24971512688531,125.78488522230029L49.82238623301188,123.59507892427983L50.39505733913846,121.90818752254694L50.967728445265024,119.95806253105249L51.5403995513916,118.00560716430952L52.11307065751817,116.01210233856327L52.68574176364475,113.8325049803343L53.25841286977132,111.63100915073724L53.8310839758979,109.66146093941529L54.40375508202447,107.53378130989202L54.976426188151045,105.55702647539269L55.549097294277615,103.64301793089804L56.121768400404186,101.93139874579148L56.69443950653076,100.73983150202432L57.26711061265733,99.70253899833398L57.83978171878391,98.37691214237358L58.41245282491048,97.02661192122285L58.98512393103706,95.58562092673846L59.55779503716363,95.37943192724715L60.1304661432902,94.70974169338369L60.70313724941677,93.94774042253636L61.27580835554335,92.68895502200021L61.84847946166992,91.38696881470004L62.421150567796495,90.17451732944058L62.993821673923065,88.89267026374189L63.56649278004964,87.78588843724715L64.13916388617622,86.95142793565245L64.71183499230278,85.78221420382602L65.28450609842936,84.55997219409593L65.85717720455592,83.39699624411419L66.4298483106825,82.30701873566377L67.00251941680908,81.34889983202537L67.57519052293566,80.12423707007272L68.14786162906222,77.41067386797329L68.7205327351888,75.53803561268441L69.29320384131537,74.09089229002375L69.86587494744195,72.75074923099194L70.43854605356852,71.62670795241311L71.0112171596951,70.66666816386982L71.58388826582167,69.6407380533623L72.15655937194825,68.67857292344868L72.72923047807481,67.53222765091573L73.30190158420139,66.43547914273884L73.87457269032797,65.39666388281641L74.44724379645453,64.41310284410172L75.0199149025811,63.45985415285299L75.59258600870768,62.772478311245614L76.16525711483426,62.239757853545946L76.73792822096082,61.61282187010043L77.3105993270874,60.78244547570126L77.88327043321398,59.87244993503877L78.45594153934056,59.200461519531686L79.02861264546712,58.617633158309474L79.6012837515937,58.12517790543154L80.17395485772028,57.759135709290575L80.74662596384685,57.36320406851653L81.31929706997342,56.9937272496581L81.8919681761,56.50579300742L82.46463928222657,56.07761810537305L83.03731038835313,55.58984020060721L83.6099814944797,54.91107776703445L84.18265260060627,54.10127479926649L84.75532370673285,53.533179411729236L85.32799481285943,53.20133942248123L85.900665918986,52.85675920842165L86.47333702511257,52.5156058661357L87.04600813123915,52.079680207495464L87.61867923736573,51.68482926140396L88.19135034349229,51.030709079029414L88.76402144961887,50.03469070370312L89.33669255574544,49.28297252722096L89.90936366187202,48.64002709070346L90.48203476799858,48.05548825131203L91.05470587412516,47.51227291928301L91.62737698025174,47.121145601973254L92.2000480863783,46.744022390620394L92.77271919250488,46.48196725410319L93.34539029863146,46.2078647864108L93.91806140475803,45.69275769978866L94.4907325108846,45.22761728537465L95.06340361701118,44.77194486319125L95.63607472313775,44.31501143726159L96.20874582926433,43.82100015027329L96.7814169353909,43.5808412662909L97.35408804151747,43.38818093605886L97.92675914764405,43.21175628722384L98.49943025377063,42.98415393135302L99.07210135989719,42.6990711299189L99.64477246602377,42.308572297983766L100.21744357215034,42.086619230925535L100.79011467827692,41.75977868596097L101.36278578440347,41.33809545346311L101.93545689053005,40.9898831348086L102.50812799665663,40.57936763266191L103.0807991027832,40.40348940703855L103.65347020890977,40.308542703773114L104.22614131503634,40.00666438350024L104.79881242116292,39.84479782877411L105.3714835272895,39.4727180039722L105.94415463341606,39.173666136122364L106.51682573954264,38.95917124320465L107.08949684566922,38.783285053142635L107.6621679517958,38.43378122828879L108.23483905792236,38.14248815685512L108.80751016404894,37.586583498265526L109.38018127017551,37.04004454755191L109.95285237630209,36.772788007284326L110.52552348242865,36.521808324488816L111.09819458855523,36.334548421180365L111.67086569468181,35.92614307836878L112.24353680080837,35.53639824815071L112.81620790693495,35.142278966610604L113.38887901306153,34.68175009037678L113.9615501191881,34.28179305521565L114.53422122531467,33.855990696328234L115.10689233144124,33.37717335314798L115.67956343756782,32.777297006288386L116.2522345436944,32.26218000671116L116.82490564982096,32.06853446284084L117.39757675594754,31.893521203673522L117.97024786207412,31.841615448893936L118.5429189682007,31.598820050283397L119.11559007432726,31.359871994455L119.68826118045382,31.052627822203206L120.2609322865804,30.840951680547843L120.83360339270698,30.588504808461057L121.40627449883354,30.25435817687233L121.97894560496012,30.022614363198908L122.5516167110867,29.994073159458278L123.12428781721327,29.87666880807451L123.69695892333984,29.661213157535528L124.26963002946641,29.47086691473147L124.84230113559299,29.221808513235935L125.41497224171957,28.70458032174462L125.98764334784613,28.31907014816482L126.56031445397271,27.801329094052182L127.13298556009929,27.48271775178896L127.70565666622586,27.123635094296542L128.27832777235244,26.543009813484286L128.850998878479,26.13010074788462L129.42366998460557,25.815385277491792L129.99634109073216,25.609794763167553L130.56901219685872,25.315201526556418L131.14168330298529,24.93665249149357L131.71435440911185,24.525575249623294L132.28702551523844,24.183553078917324L132.859696621365,24.305451855790974L133.4323677274916,24.459969032365795L134.00503883361816,24.75559589122465L134.57770993974475,24.885021953123864L135.1503810458713,25.037791719484325L135.72305215199788,25.050231923307287L136.29572325812444,25.177007478250182L136.86839436425103,25.389330748274464L137.4410654703776,25.452084380141308L138.0137365765042,25.57335350541905L138.58640768263075,25.624308034227777L139.15907878875734,25.816584067953382L139.7317498948839,25.68202521131994L140.30442100101047,25.69033492830135L140.87709210713703,25.709109749516966L141.44976321326362,25.45673607167198L142.0224343193902,25.318627820278984L142.59510542551678,25.022873146918684L143.16777653164334,24.829435677775734L143.74044763776993,24.737021039963334L144.3131187438965,24.817388694335847L144.88578985002306,24.750168863226243L145.45846095614962,24.791581477688474L146.0311320622762,24.919180287104332L146.60380316840278,24.903071876625514L147.17647427452937,24.965288548855312L147.74914538065593,24.989452391521578L148.3218164867825,25.286254468528053L148.89448759290906,25.435784067503022L149.46715869903562,25.57044021959955L150.0398298051622,25.644426138558096L150.61250091128878,25.56064866356281L151.18517201741537,25.486892013463162L151.75784312354193,25.431178733261937L152.33051422966852,25.250975667402457L152.9031853357951,24.987307859640786L153.47585644192165,24.95804882635169L154.0485275480482,24.752004442703264L154.6211986541748,24.447027746137515L155.19386976030137,24.304557236995358L155.76654086642796,24.105282248843064L156.33921197255452,23.964387287270775L156.91188307868111,23.77229775710448L157.48455418480768,23.540519575096518L158.05722529093424,23.359253938349923L158.6298963970608,23.300458953461483L159.2025675031874,23.36517777024015L159.77523860931396,23.43276963164272L160.34790971544055,23.41384050760557L160.9205808215671,23.19172985529473L161.4932519276937,23.05611799516581L162.06592303382027,22.78438159845528L162.63859413994683,22.640119278225256L163.2112652460734,22.64827546167322L163.7839363522,22.622646542376618L164.35660745832655,22.418764459266548L164.92927856445314,22.04547793789224L165.5019496705797,21.831873391105475L166.07462077670627,21.800292729684763L166.64729188283283,21.845917649587395L167.2199629889594,21.825350432041468L167.792634095086,21.680027936766212L168.36530520121255,21.507553984520218L168.93797630733914,21.402390336392372L169.5106474134657,21.59166458419793L170.0833185195923,21.465171392587685L170.65598962571886,21.310897401982604L171.22866073184542,21.33986770811863L171.801331837972,21.278319941163122L172.37400294409858,21.17934082136946L172.94667405022514,21.34337205859078L173.51934515635173,21.616108403037348L174.0920162624783,21.743290982144817L174.6646873686049,21.740560203972567L175.23735847473145,21.59388898753913L175.81002958085801,21.450324271251958L176.38270068698458,21.353703758477913L176.95537179311117,21.349578682781864L177.52804289923773,21.50607517256343L178.10071400536432,21.416301183098916L178.6733851114909,21.644007355472176L179.24605621761748,21.97806433950641L179.81872732374404,21.979456927893306L180.3913984298706,21.901334936538433L180.96406953599717,21.96246367887558L181.53674064212376,21.95295687085605L182.10941174825032,21.866032554164658L182.68208285437692,21.765841187519737L183.25475396050348,21.637991595430808L183.82742506663007,21.51709636264207L184.4000961727566,21.448189772064218L184.97276727888317,21.430540964962137L185.54543838500976,21.4261287387166L186.11810949113632,21.288409997156926L186.69078059726291,21.362952751711866L187.26345170338948,21.171669061459525L187.83612280951607,20.994907517151827L188.40879391564263,20.901054911956248L188.9814650217692,20.940134942279798L189.55413612789576,20.680408014962904L190.12680723402235,20.59220413960363L190.69947834014891,20.392845725576805L191.2721494462755,20.26889845842476L191.84482055240207,20.094203165422886L192.41749165852866,20.07741399380082L192.99016276465522,20.10386278981639L193.5628338707818,20.10722421478768L194.13550497690835,20.0541521190561L194.70817608303494,20.010565750048052L195.2808471891615,19.889274620915764L195.8535182952881,19.989043661627342L196.42618940141466,19.95932788991597L196.99886050754125,20.122521310231168L197.57153161366782,20.14889859479493L198.14420271979438,20.494308656429606L198.71687382592094,20.508847827963358L199.28954493204753,20.580126361930915L199.8622160381741,20.63261042424425L200.4348871443007,20.647564321507282L201.00755825042725,20.66800383393506L201.58022935655384,20.72521381803183L202.1529004626804,20.63562810353425L202.72557156880694,20.536910688374224L203.29824267493353,20.330794766539867L203.8709137810601,20.10999521375396L204.4435848871867,19.950438129491584L205.01625599331325,19.8160332094166L205.58892709943984,19.536845342836344L206.1615982055664,19.25021040452415L206.73426931169297,19.017058039949323L207.30694041781953,18.631164398787238L207.87961152394612,18.44621828983186L208.4522826300727,18.329369213763407L209.02495373619928,18.38204407129594L209.59762484232584,18.410416575111658L210.17029594845243,18.039602038479156L210.742967054579,17.711752495412462L211.31563816070556,17.47310815363688L211.88830926683212,17.461602865109153L212.46098037295872,17.359308098551608L213.03365147908528,17.259907051240273L213.60632258521187,17.045832088532443L214.17899369133843,17.11810404775738L214.75166479746503,17.189656209808145L215.3243359035916,17.001521387251593L215.89700700971815,17.10196777427642L216.46967811584472,17.03533983458109L217.0423492219713,16.939899633443577L217.61502032809787,16.652984558148027L218.18769143422446,16.49736022720288L218.76036254035103,16.5404446058722L219.33303364647762,16.56292485362043L219.90570475260418,16.505079216786214L220.47837585873074,16.393050205471965L221.0510469648573,16.41416433411145L221.62371807098387,16.309314972390226L222.19638917711046,16.264152078514265L222.76906028323702,16.04140282942977L223.34173138936362,15.943845904862119L223.91440249549018,15.798624013795278L224.48707360161674,15.792864847641509L225.0597447077433,15.946031472441758L225.6324158138699,15.991936608185243L226.20508691999646,16.102122970613568L226.77775802612305,16.05113479737854L227.35042913224962,16.117715254729813L227.9231002383762,16.26357622522598L228.49577134450277,16.382364410100923L229.06844245062933,16.516444637786645" fill="none"></path></g></g></g></g><g opacity="0.2"><g><g><g><path style="fill: none;" stroke="rgb(255, 112, 67)" stroke-width="2px" d="M29.20622641245524,178.33589266993877L29.778897518581815,175.21314248474434L30.351568624708385,177.14978025748727L31.496910836961533,177.8349675599547L32.06958194308811,175.97615894432565L32.64225304921468,175.04477626319166L33.21492415534125,174.90865530939163L33.78759526146783,174.24485316310495L34.3602663675944,174.3685717118112L34.932937473720976,174.0201316348152L35.50560857984755,172.9209444620374L36.078279685974124,171.654706698283L36.650950792100694,170.52841852112874L37.223621898227265,168.81984309139688L37.79629300435384,167.24060843691558L38.36896411048041,165.88491518516977L38.94163521660699,163.3156586672668L39.51430632273356,160.82296495045503L40.08697742886014,158.83234936817718L40.65964853498671,156.75694213438834L41.232319641113286,154.57332798130724L41.80499074723985,151.65262563865014L42.377661853366426,148.7542816246036L42.950332959493,146.31373516766752L43.523004065619574,143.92015475131583L44.095675171746144,141.32636936072447L44.66834627787272,140.19100850642326L45.24101738399929,138.32409915421334L45.81368849012587,136.30806344576226L46.38635959625244,134.13236155409527L46.95903070237902,132.24967941733826L47.53170180850559,129.3236446441041L48.104372914632165,126.91166210684038L48.677044020758736,124.88147859622394L49.24971512688531,122.09887319395014L49.82238623301188,120.31036951112904L50.39505733913846,119.37785043560699L50.967728445265024,117.03287505467262L51.5403995513916,115.07692412071994L52.11307065751817,113.02184510394113L52.68574176364475,110.5631089456131L53.25841286977132,108.32876540793073L53.8310839758979,106.70713862328545L54.40375508202447,104.34226186615999L54.976426188151045,102.59189422395191L55.549097294277615,100.77200511433516L56.121768400404186,99.36396996822772L56.69443950653076,98.95248063641367L57.26711061265733,98.14660024281947L57.83978171878391,96.38847185844905L58.41245282491048,95.0011615895066L58.98512393103706,93.42413443501812L59.55779503716363,95.07014842801074L60.1304661432902,93.70520634258956L60.70313724941677,92.80473851626611L61.27580835554335,90.80077692119667L61.84847946166992,89.43398950375024L62.421150567796495,88.35584010155159L62.993821673923065,86.96989966519399L63.56649278004964,86.12571569750514L64.13916388617622,85.69973718326035L64.71183499230278,84.02839360608642L65.28450609842936,82.72660917950078L65.85717720455592,81.65253231914164L66.4298483106825,80.67205247298814L67.00251941680908,79.91172147656778L67.57519052293566,78.28724292714378L68.14786162906222,73.34032906482413L68.7205327351888,72.72907822975108L69.29320384131537,71.92017730603274L69.86587494744195,70.7405346424442L70.43854605356852,69.94064603454487L71.0112171596951,69.22660848105487L71.58388826582167,68.10184288760102L72.15655937194825,67.23532522857828L72.72923047807481,65.81270974211628L73.30190158420139,64.79035638047348L73.87457269032797,63.83844099293279L74.44724379645453,62.93776128602967L75.0199149025811,62.02998111597992L75.59258600870768,61.74141454883455L76.16525711483426,61.44067716699648L76.73792822096082,60.672417894932146L77.3105993270874,59.53688088410249L77.88327043321398,58.50745662404508L78.45594153934056,58.192478896271005L79.02861264546712,57.74339061647612L79.6012837515937,57.38649502611464L80.17395485772028,57.21007241507913L80.74662596384685,56.76930660735547L81.31929706997342,56.439512021370476L81.8919681761,55.77389164406288L82.46463928222657,55.43535575230263L83.03731038835313,54.858173343458475L83.6099814944797,53.89293411667524L84.18265260060627,52.88657034761455L84.75532370673285,52.68103633042337L85.32799481285943,52.70357943860927L85.900665918986,52.3398888873323L86.47333702511257,52.00387585270674L87.04600813123915,51.42579171953515L87.61867923736573,51.09255284226668L88.19135034349229,50.049528805467624L88.76402144961887,48.540663140713676L89.33669255574544,48.15539526249769L89.90936366187202,47.67560893592725L90.48203476799858,47.17867999222486L91.05470587412516,46.69744992123945L91.62737698025174,46.53445462600866L92.2000480863783,46.178337573591094L92.77271919250488,46.088884549327354L93.34539029863146,45.796711084872236L93.91806140475803,44.920097069855444L94.4907325108846,44.52990666375363L95.06340361701118,44.08843622991618L95.63607472313775,43.62961129836712L96.20874582926433,43.07998321979084L96.7814169353909,43.220602940317356L97.35408804151747,43.099190440710736L97.92675914764405,42.947119313971335L98.49943025377063,42.642750397546806L99.07210135989719,42.271446927767734L99.64477246602377,41.72282405008105L100.21744357215034,41.75368963033817L100.79011467827692,41.26951786851409L101.36278578440347,40.70557060471635L101.93545689053005,40.4675646568268L102.50812799665663,39.963594379441865L103.0807991027832,40.139672068603495L103.65347020890977,40.16612264887493L104.22614131503634,39.55384690309093L104.79881242116292,39.6019979966849L105.3714835272895,38.9145982667693L105.94415463341606,38.725088334347625L106.51682573954264,38.637428903828095L107.08949684566922,38.51945576804961L107.6621679517958,37.909525491008004L108.23483905792236,37.705548549704616L108.80751016404894,36.75272651038117L109.38018127017551,36.22023612148149L109.95285237630209,36.371903196882926L110.52552348242865,36.145338800295605L111.09819458855523,36.05365856621765L111.67086569468181,35.31353506415145L112.24353680080837,34.95178100282359L112.81620790693495,34.551100044300405L113.38887901306153,33.99095677602606L113.9615501191881,33.681857502473996L114.53422122531467,33.21728715799713L115.10689233144124,32.65894733837763L115.67956343756782,31.877482485998954L116.2522345436944,31.489504507345334L116.82490564982096,31.778066147035354L117.39757675594754,31.631001314922575L117.97024786207412,31.763756816724587L118.5429189682007,31.234626952367584L119.11559007432726,31.001449910712395L119.68826118045382,30.591761563825553L120.2609322865804,30.523437468064795L120.83360339270698,30.209834500330906L121.40627449883354,29.753138229489224L121.97894560496012,29.674998642688827L122.5516167110867,29.95126135384727L123.12428781721327,29.70056228099886L123.69695892333984,29.338029681727082L124.26963002946641,29.185347550525353L124.84230113559299,28.848220910992687L125.41497224171957,27.928738034507635L125.98764334784613,27.74080488779513L126.56031445397271,27.024717512883186L127.13298556009929,27.00480073839415L127.70565666622586,26.585011108057895L128.27832777235244,25.67207189226593L128.850998878479,25.5107371494851L129.42366998460557,25.343312071902567L129.99634109073216,25.301408991681193L130.56901219685872,24.873311671639712L131.14168330298529,24.36882893889929L131.71435440911185,23.9089593868179L132.28702551523844,23.670519822858335L132.859696621365,24.488300021101484L133.4323677274916,24.691744797228L134.00503883361816,25.199036179512905L134.57770993974475,25.079161045972747L135.1503810458713,25.266946369025014L135.72305215199788,25.068892229041726L136.29572325812444,25.367170810664554L136.86839436425103,25.70781565331082L137.4410654703776,25.546214827941576L138.0137365765042,25.75525719333568L138.58640768263075,25.700739827440888L139.15907878875734,26.10499811854177L139.7317498948839,25.480186926369804L140.30442100101047,25.702799503773512L140.87709210713703,25.737271981340374L141.44976321326362,25.078175554904497L142.0224343193902,25.1114654431895L142.59510542551678,24.57924113687825L143.16777653164334,24.53927947406131L143.74044763776993,24.598399083244757L144.3131187438965,24.937940175894603L144.88578985002306,24.649339116561833L145.45846095614962,24.85370039938182L146.0311320622762,25.110578501228076L146.60380316840278,24.8789092609073L147.17647427452937,25.058613557200022L147.74914538065593,25.02569815552096L148.3218164867825,25.731457584037788L148.89448759290906,25.660078465965498L149.46715869903562,25.772424447744346L150.0398298051622,25.755405016995923L150.61250091128878,25.434982451069832L151.18517201741537,25.376257038313693L151.75784312354193,25.347608812960075L152.33051422966852,24.98067106861328L152.9031853357951,24.59180614799826L153.47585644192165,24.914160276418073L154.0485275480482,24.442937867230608L154.6211986541748,23.989562701288868L155.19386976030137,24.09085147328212L155.76654086642796,23.806369766614594L156.33921197255452,23.753044844912367L156.91188307868111,23.484163461854997L157.48455418480768,23.192852302084592L158.05722529093424,23.08735548322999L158.6298963970608,23.21226647612883L159.2025675031874,23.46225599540812L159.77523860931396,23.534157423746578L160.34790971544055,23.38544682154985L160.9205808215671,22.858563876828438L161.4932519276937,22.85270020497244L162.06592303382027,22.37677700338949L162.63859413994683,22.423725797880238L163.2112652460734,22.66050973684517L163.7839363522,22.584203163431695L164.35660745832655,22.112941334601498L164.92927856445314,21.485548155830745L165.5019496705797,21.511466570925336L166.07462077670627,21.752921737553706L166.64729188283283,21.914355029441364L167.2199629889594,21.794499605722567L167.792634095086,21.462044193853334L168.36530520121255,21.248843056151276L168.93797630733914,21.24464486420059L169.5106474134657,21.875575955906303L170.0833185195923,21.27543160517227L170.65598962571886,21.079486416075014L171.22866073184542,21.38332316732268L171.801331837972,21.18599829072989L172.37400294409858,21.030872141678955L172.94667405022514,21.58941891442276L173.51934515635173,22.025212919707165L174.0920162624783,21.93406485080608L174.6646873686049,21.736464036714175L175.23735847473145,21.373882162888986L175.81002958085801,21.23497719682119L176.38270068698458,21.208772989316824L176.95537179311117,21.343391069237786L177.52804289923773,21.740819907235785L178.10071400536432,21.281640198902142L178.6733851114909,21.98556661403205L179.24605621761748,22.479149815557797L179.81872732374404,21.98154581047365L180.3913984298706,21.784151949506086L180.96406953599717,22.05415679238124L181.53674064212376,21.93869665882678L182.10941174825032,21.73564607912755L182.68208285437692,21.615554137552373L183.25475396050348,21.446217207297476L183.82742506663007,21.335753513458965L184.4000961727566,21.3448298861974L184.97276727888317,21.40406775430904L185.54543838500976,21.41951039934829L186.11810949113632,21.081831884817415L186.69078059726291,21.474766883544245L187.26345170338948,20.88474352608099L187.83612280951607,20.72976520069029L188.40879391564263,20.760276004162858L188.9814650217692,20.998754987765153L189.55413612789576,20.29081762398753L190.12680723402235,20.459898326564694L190.69947834014891,20.093808104536567L191.2721494462755,20.082977557696672L191.84482055240207,19.832160225920052L192.41749165852866,20.052230236367723L192.99016276465522,20.143535983839733L193.5628338707818,20.11226635224462L194.13550497690835,19.97454397545871L194.70817608303494,19.945186196535985L195.2808471891615,19.70733792721736L195.8535182952881,20.13869722269469L196.42618940141466,19.914754232348884L196.99886050754125,20.367311440703958L197.57153161366782,20.18846452164059L198.14420271979438,21.01242374888158L198.71687382592094,20.530656585263998L199.28954493204753,20.68704416288228L199.8622160381741,20.711336517714287L200.4348871443007,20.669995167401808L201.00755825042725,20.69866310257677L201.58022935655384,20.81102879417698L202.1529004626804,20.501249531787856L202.72557156880694,20.38883456563423L203.29824267493353,20.021620883788334L203.8709137810601,19.778795884575114L204.4435848871867,19.711102503098008L205.01625599331325,19.614425829304114L205.58892709943984,19.11806354296595L206.1615982055664,18.82025799705589L206.73426931169297,18.66732949308711L207.30694041781953,18.052323937044083L207.87961152394612,18.168799126398834L208.4522826300727,18.154095599660764L209.02495373619928,18.461056357594742L209.59762484232584,18.452975330835216L210.17029594845243,17.483380233530376L210.742967054579,17.2199781808124L211.31563816070556,17.115141640973523L211.88830926683212,17.444344932317566L212.46098037295872,17.20586594871527L213.03365147908528,17.110805480273278L213.60632258521187,16.724719644470678L214.17899369133843,17.226511986594804L214.75166479746503,17.296984452884328L215.3243359035916,16.719319153416745L215.89700700971815,17.252637354813732L216.46967811584472,16.93539792503805L217.0423492219713,16.796739331737324L217.61502032809787,16.222611945204704L218.18769143422446,16.263923730785134L218.76036254035103,16.605071173876198L219.33303364647762,16.5966452252428L219.90570475260418,16.41831076153491L220.47837585873074,16.225006688500518L221.0510469648573,16.44583552707072L221.62371807098387,16.152040929808354L222.19638917711046,16.196407737700316L222.76906028323702,15.707278955803005L223.34173138936362,15.79751051801066L223.91440249549018,15.580791177195L224.48707360161674,15.784226098410835L225.0597447077433,16.17578140964215L225.6324158138699,16.060794311800443L226.20508691999646,16.267402514256002L226.77775802612305,15.974652537525984L227.35042913224962,16.217585940756695L227.9231002383762,16.482367680970206L228.49577134450277,16.560546687413332L229.06844245062933,16.717564979315284" fill="none"></path></g></g></g></g></g></g><g transform="translate(72, 176)" clip-path="url(#clip_1)"><clipPath id="clip_1"><rect width="257" height="23"></rect></clipPath><g><g><line x1="0" y1="0" x2="0" y2="5" style="visibility: inherit;" fill="rgb(0, 0, 0)" stroke="rgb(204, 204, 204)" stroke-width="1px"></line><line x1="28.633555306328667" y1="0" x2="28.633555306328667" y2="5" style="visibility: inherit;" fill="rgb(0, 0, 0)" stroke="rgb(204, 204, 204)" stroke-width="1px"></line><line x1="57.26711061265733" y1="0" x2="57.26711061265733" y2="5" style="visibility: inherit;" fill="rgb(0, 0, 0)" stroke="rgb(204, 204, 204)" stroke-width="1px"></line><line x1="85.900665918986" y1="0" x2="85.900665918986" y2="5" style="visibility: inherit;" fill="rgb(0, 0, 0)" stroke="rgb(204, 204, 204)" stroke-width="1px"></line><line x1="114.53422122531467" y1="0" x2="114.53422122531467" y2="5" style="visibility: inherit;" fill="rgb(0, 0, 0)" stroke="rgb(204, 204, 204)" stroke-width="1px"></line><line x1="143.16777653164334" y1="0" x2="143.16777653164334" y2="5" style="visibility: inherit;" fill="rgb(0, 0, 0)" stroke="rgb(204, 204, 204)" stroke-width="1px"></line><line x1="171.801331837972" y1="0" x2="171.801331837972" y2="5" style="visibility: inherit;" fill="rgb(0, 0, 0)" stroke="rgb(204, 204, 204)" stroke-width="1px"></line><line x1="200.4348871443007" y1="0" x2="200.4348871443007" y2="5" style="visibility: inherit;" fill="rgb(0, 0, 0)" stroke="rgb(204, 204, 204)" stroke-width="1px"></line><line x1="229.06844245062933" y1="0" x2="229.06844245062933" y2="5" style="visibility: inherit;" fill="rgb(0, 0, 0)" stroke="rgb(204, 204, 204)" stroke-width="1px"></line><line x1="257.701997756958" y1="0" x2="257.701997756958" y2="5" style="visibility: inherit;" fill="rgb(0, 0, 0)" stroke="rgb(204, 204, 204)" stroke-width="1px"></line></g><g transform="translate(0, 8)"><text style="text-anchor: middle; visibility: hidden; font-family: Roboto, sans-serif; font-size: 12px; font-weight: 200;" x="0" y="0" dx="0em" dy="0.95em" fill="rgb(255, 255, 255)" stroke="none" stroke-width="1px">-200k</text><text style="text-anchor: middle; visibility: inherit; font-family: Roboto, sans-serif; font-size: 12px; font-weight: 200;" x="28.633555306328667" y="0" dx="0em" dy="0.95em" fill="rgb(255, 255, 255)" stroke="none" stroke-width="1px">0</text><text style="text-anchor: middle; visibility: hidden; font-family: Roboto, sans-serif; font-size: 12px; font-weight: 200;" x="57.26711061265733" y="0" dx="0em" dy="0.95em" fill="rgb(255, 255, 255)" stroke="none" stroke-width="1px">200k</text><text style="text-anchor: middle; visibility: inherit; font-family: Roboto, sans-serif; font-size: 12px; font-weight: 200;" x="85.900665918986" y="0" dx="0em" dy="0.95em" fill="rgb(255, 255, 255)" stroke="none" stroke-width="1px">400k</text><text style="text-anchor: middle; visibility: hidden; font-family: Roboto, sans-serif; font-size: 12px; font-weight: 200;" x="114.53422122531467" y="0" dx="0em" dy="0.95em" fill="rgb(255, 255, 255)" stroke="none" stroke-width="1px">600k</text><text style="text-anchor: middle; visibility: inherit; font-family: Roboto, sans-serif; font-size: 12px; font-weight: 200;" x="143.16777653164334" y="0" dx="0em" dy="0.95em" fill="rgb(255, 255, 255)" stroke="none" stroke-width="1px">800k</text><text style="text-anchor: middle; visibility: hidden; font-family: Roboto, sans-serif; font-size: 12px; font-weight: 200;" x="171.801331837972" y="0" dx="0em" dy="0.95em" fill="rgb(255, 255, 255)" stroke="none" stroke-width="1px">1M</text><text style="text-anchor: middle; visibility: inherit; font-family: Roboto, sans-serif; font-size: 12px; font-weight: 200;" x="200.4348871443007" y="0" dx="0em" dy="0.95em" fill="rgb(255, 255, 255)" stroke="none" stroke-width="1px">1.2M</text><text style="text-anchor: middle; visibility: hidden; font-family: Roboto, sans-serif; font-size: 12px; font-weight: 200;" x="229.06844245062933" y="0" dx="0em" dy="0.95em" fill="rgb(255, 255, 255)" stroke="none" stroke-width="1px">1.4M</text><text style="text-anchor: middle; visibility: hidden; font-family: Roboto, sans-serif; font-size: 12px; font-weight: 200;" x="257.701997756958" y="0" dx="0em" dy="0.95em" fill="rgb(255, 255, 255)" stroke="none" stroke-width="1px">1.6M</text></g><line x1="0" y1="0" x2="257.701997756958" y2="0" fill="rgb(0, 0, 0)" stroke="rgb(204, 204, 204)" stroke-width="1px"></line></g></g></g></g></svg>