<svg viewBox="0 0 330 200" xmlns="http://www.w3.org/2000/svg"><g><g><g><g><g><line x1="82.68100261688232" y1="176.5999994277954" x2="77.68100261688232" y2="176.5999994277954" style="visibility: inherit;" fill="rgb(0, 0, 0)" stroke="rgb(204, 204, 204)" stroke-width="1px"></line><line x1="82.68100261688232" y1="154.52499949932098" x2="77.68100261688232" y2="154.52499949932098" style="visibility: inherit;" fill="rgb(0, 0, 0)" stroke="rgb(204, 204, 204)" stroke-width="1px"></line><line x1="82.68100261688232" y1="132.44999957084656" x2="77.68100261688232" y2="132.44999957084656" style="visibility: inherit;" fill="rgb(0, 0, 0)" stroke="rgb(204, 204, 204)" stroke-width="1px"></line><line x1="82.68100261688232" y1="110.37499964237213" x2="77.68100261688232" y2="110.37499964237213" style="visibility: inherit;" fill="rgb(0, 0, 0)" stroke="rgb(204, 204, 204)" stroke-width="1px"></line><line x1="82.68100261688232" y1="88.2999997138977" x2="77.68100261688232" y2="88.2999997138977" style="visibility: inherit;" fill="rgb(0, 0, 0)" stroke="rgb(204, 204, 204)" stroke-width="1px"></line><line x1="82.68100261688232" y1="66.22499978542328" x2="77.68100261688232" y2="66.22499978542328" style="visibility: inherit;" fill="rgb(0, 0, 0)" stroke="rgb(204, 204, 204)" stroke-width="1px"></line><line x1="82.68100261688232" y1="44.14999985694885" x2="77.68100261688232" y2="44.14999985694885" style="visibility: inherit;" fill="rgb(0, 0, 0)" stroke="rgb(204, 204, 204)" stroke-width="1px"></line><line x1="82.68100261688232" y1="22.074999928474426" x2="77.68100261688232" y2="22.074999928474426" style="visibility: inherit;" fill="rgb(0, 0, 0)" stroke="rgb(204, 204, 204)" stroke-width="1px"></line><line x1="82.68100261688232" y1="0" x2="77.68100261688232" y2="0" style="visibility: inherit;" fill="rgb(0, 0, 0)" stroke="rgb(204, 204, 204)" stroke-width="1px"></line></g><g transform="translate(72.68100261688232, 0)"><text style="text-anchor: end; visibility: hidden; font-family: Roboto, sans-serif; font-size: 12px; font-weight: 200;" x="0" y="176.5999994277954" dx="0em" dy="0.3em" fill="rgb(255, 255, 255)" stroke="none" stroke-width="1px">-2e+4</text><text style="text-anchor: end; visibility: inherit; font-family: Roboto, sans-serif; font-size: 12px; font-weight: 200;" x="0" y="154.52499949932098" dx="0em" dy="0.3em" fill="rgb(255, 255, 255)" stroke="none" stroke-width="1px">-1.5e+4</text><text style="text-anchor: end; visibility: hidden; font-family: Roboto, sans-serif; font-size: 12px; font-weight: 200;" x="0" y="132.44999957084656" dx="0em" dy="0.3em" fill="rgb(255, 255, 255)" stroke="none" stroke-width="1px">-1e+4</text><text style="text-anchor: end; visibility: inherit; font-family: Roboto, sans-serif; font-size: 12px; font-weight: 200;" x="0" y="110.37499964237213" dx="0em" dy="0.3em" fill="rgb(255, 255, 255)" stroke="none" stroke-width="1px">-5e+3</text><text style="text-anchor: end; visibility: hidden; font-family: Roboto, sans-serif; font-size: 12px; font-weight: 200;" x="0" y="88.2999997138977" dx="0em" dy="0.3em" fill="rgb(255, 255, 255)" stroke="none" stroke-width="1px">0</text><text style="text-anchor: end; visibility: inherit; font-family: Roboto, sans-serif; font-size: 12px; font-weight: 200;" x="0" y="66.22499978542328" dx="0em" dy="0.3em" fill="rgb(255, 255, 255)" stroke="none" stroke-width="1px">5e+3</text><text style="text-anchor: end; visibility: hidden; font-family: Roboto, sans-serif; font-size: 12px; font-weight: 200;" x="0" y="44.14999985694885" dx="0em" dy="0.3em" fill="rgb(255, 255, 255)" stroke="none" stroke-width="1px">1e+4</text><text style="text-anchor: end; visibility: inherit; font-family: Roboto, sans-serif; font-size: 12px; font-weight: 200;" x="0" y="22.074999928474426" dx="0em" dy="0.3em" fill="rgb(255, 255, 255)" stroke="none" stroke-width="1px">1.5e+4</text><text style="text-anchor: end; visibility: hidden; font-family: Roboto, sans-serif; font-size: 12px; font-weight: 200;" x="0" y="0" dx="0em" dy="0.3em" fill="rgb(255, 255, 255)" stroke="none" stroke-width="1px">2e+4</text></g><line x1="82.68100261688232" y1="0" x2="82.68100261688232" y2="176.5999994277954" fill="rgb(0, 0, 0)" stroke="rgb(204, 204, 204)" stroke-width="1px"></line></g></g><g transform="translate(82, 0)" clip-path="url(#clip_0)"><clipPath id="clip_0"><rect width="247" height="176"></rect></clipPath><g><g><g><line x1="0" y1="0" x2="0" y2="176.5999994277954" fill="rgb(0, 0, 0)" stroke="rgb(189, 189, 189)" stroke-width="1px" opacity="0.25"></line><line x1="27.479888598124184" y1="0" x2="27.479888598124184" y2="176.5999994277954" fill="rgb(0, 0, 0)" stroke="rgb(189, 189, 189)" stroke-width="1px" opacity="0.25"></line><line x1="54.95977719624837" y1="0" x2="54.95977719624837" y2="176.5999994277954" fill="rgb(0, 0, 0)" stroke="rgb(189, 189, 189)" stroke-width="1px" opacity="0.25"></line><line x1="82.43966579437256" y1="0" x2="82.43966579437256" y2="176.5999994277954" fill="rgb(0, 0, 0)" stroke="rgb(189, 189, 189)" stroke-width="1px" opacity="0.25"></line><line x1="109.91955439249674" y1="0" x2="109.91955439249674" y2="176.5999994277954" fill="rgb(0, 0, 0)" stroke="rgb(189, 189, 189)" stroke-width="1px" opacity="0.25"></line><line x1="137.39944299062094" y1="0" x2="137.39944299062094" y2="176.5999994277954" fill="rgb(0, 0, 0)" stroke="rgb(189, 189, 189)" stroke-width="1px" opacity="0.25"></line><line x1="164.87933158874512" y1="0" x2="164.87933158874512" y2="176.5999994277954" fill="rgb(0, 0, 0)" stroke="rgb(189, 189, 189)" stroke-width="1px" opacity="0.25"></line><line x1="192.3592201868693" y1="0" x2="192.3592201868693" y2="176.5999994277954" fill="rgb(0, 0, 0)" stroke="rgb(189, 189, 189)" stroke-width="1px" opacity="0.25"></line><line x1="219.83910878499347" y1="0" x2="219.83910878499347" y2="176.5999994277954" fill="rgb(0, 0, 0)" stroke="rgb(189, 189, 189)" stroke-width="1px" opacity="0.25"></line><line x1="247.31899738311768" y1="0" x2="247.31899738311768" y2="176.5999994277954" fill="rgb(0, 0, 0)" stroke="rgb(189, 189, 189)" stroke-width="1px" opacity="0.25"></line></g><g><line x1="0" y1="176.5999994277954" x2="247.31899738311768" y2="176.5999994277954" fill="rgb(0, 0, 0)" stroke="rgb(189, 189, 189)" stroke-width="1px" opacity="0.25"></line><line x1="0" y1="154.52499949932098" x2="247.31899738311768" y2="154.52499949932098" fill="rgb(0, 0, 0)" stroke="rgb(189, 189, 189)" stroke-width="1px" opacity="0.25"></line><line x1="0" y1="132.44999957084656" x2="247.31899738311768" y2="132.44999957084656" fill="rgb(0, 0, 0)" stroke="rgb(189, 189, 189)" stroke-width="1px" opacity="0.25"></line><line x1="0" y1="110.37499964237213" x2="247.31899738311768" y2="110.37499964237213" fill="rgb(0, 0, 0)" stroke="rgb(189, 189, 189)" stroke-width="1px" opacity="0.25"></line><line x1="0" y1="88.2999997138977" x2="247.31899738311768" y2="88.2999997138977" fill="rgb(0, 0, 0)" stroke="rgb(189, 189, 189)" stroke-width="1px" opacity="0.25"></line><line x1="0" y1="66.22499978542328" x2="247.31899738311768" y2="66.22499978542328" fill="rgb(0, 0, 0)" stroke="rgb(189, 189, 189)" stroke-width="1px" opacity="0.25"></line><line x1="0" y1="44.14999985694885" x2="247.31899738311768" y2="44.14999985694885" fill="rgb(0, 0, 0)" stroke="rgb(189, 189, 189)" stroke-width="1px" opacity="0.25"></line><line x1="0" y1="22.074999928474426" x2="247.31899738311768" y2="22.074999928474426" fill="rgb(0, 0, 0)" stroke="rgb(189, 189, 189)" stroke-width="1px" opacity="0.25"></line><line x1="0" y1="0" x2="247.31899738311768" y2="0" fill="rgb(0, 0, 0)" stroke="rgb(189, 189, 189)" stroke-width="1px" opacity="0.25"></line></g></g></g><g><g><line x1="0" y1="88.2999997138977" x2="247.31899738311768" y2="88.2999997138977" fill="rgb(0, 0, 0)" stroke="rgb(153, 153, 153)" stroke-width="1.5px"></line></g></g><g><g><line x1="27.479888598124184" y1="0" x2="27.479888598124184" y2="176.5999994277954" fill="rgb(0, 0, 0)" stroke="rgb(153, 153, 153)" stroke-width="1.5px"></line></g></g><g><g><g><g><g><path style="fill: none;" stroke="rgb(255, 112, 67)" stroke-width="2px" d="M28.02948637008667,147.01905974825047L28.57908414204915,147.01905974825047L29.128681914011636,147.01905974825047L29.67827968597412,148.59920732479205L30.227877457936604,149.4051812795166L30.77747522989909,149.8466922536407L31.327073001861574,150.09803571029457L31.876670773824056,150.24426181311796L32.42626854578654,150.33040960909165L32.97586631774902,150.3815392769264L33.52546408971151,150.41201849377924L34.07506186167399,150.43023509977573L34.624659633636476,150.44113965188927L35.17425740559896,150.44767326106376L35.72385517756144,150.45159014822178L36.27345294952393,150.4539391015206L36.8230507214864,150.45534804932214L37.37264849344889,150.45619326535535L37.922246265411374,148.6259521527762L38.47184403737386,147.5278788654544L39.021441809336345,146.86906058789646L39.57103958129883,146.47377887106038L40.12063735326131,146.23661317075485L40.6702351252238,146.0943149492775L41.21983289718628,143.19728055325595L41.76943066914876,141.36246447752538L42.31902844111124,137.35261832241255L42.86862621307373,130.93965767050972L43.418223985036214,126.846939165413L43.9678217569987,124.39130902746805L44.51741952896118,122.91793129214165L45.067017300923666,122.03390477602436L45.61661507288615,119.7297186048894L46.16621284484864,118.18155651333977L46.71581061681111,117.25265928679826L47.2654083887736,116.69532096109313L47.81500616073608,116.36091796934917L48.36460393269857,116.16027617562729L48.91420170466105,116.03989109987097L49.463799476623535,113.30771051472982L50.01339724858602,111.66840216598256L50.562995020548506,110.68481715757568L51.11259279251099,110.09466615283449L51.66219056447348,106.75144378680517L52.21178833643595,101.17783737276565L52.76138610839844,97.83367352471272L53.31098388036092,95.82717521601447L53.860581652323404,94.62327623084354L54.410179424285886,93.90093683975829L54.95977719624837,93.46753320511338L55.50937496821086,89.04714825934609L56.05897274017334,86.39491729189946L56.60857051213583,83.73320615801792L57.1581682840983,182.94617262430594L65.40213486353557,227.1170125185193L65.95173263549805,164.39781930620526L66.50133040746053,124.93195927099083L67.05092817942302,101.25244324986218L67.60052595138549,87.044733637185L68.15012372334797,78.52010786957868L68.69972149531047,73.40533240901489L69.24931926727295,70.33646713267663L69.79891703923543,68.49514796687366L70.34851481119792,67.25031215046283L70.8981125831604,66.50341066061632L71.44771035512288,62.10472777950865L71.99730812708536,59.46551805084404L72.54690589904786,57.84137421377689L73.09650367101034,56.866887911536566L73.6461014429728,56.28219613019241L74.1956992149353,55.931381061385906L74.74529698689778,54.38985747949282L75.29489475886028,53.464943330356974L75.84449253082275,52.90999484087546L76.39409030278523,51.25446938623742L76.94368807474773,50.26115411345459L77.49328584671021,49.66516494978491L78.04288361867269,49.307571451583094L78.59248139063517,49.093015352662L79.14207916259765,48.96428169330935L79.69167693456015,48.88704149769775L80.24127470652262,48.84069738033081L80.7908724784851,48.81289090991064L81.3404702504476,48.79620702765855L81.89006802241008,48.78619669830726L82.43966579437256,48.780190500696506L82.98926356633504,48.77658678213005L83.53886133829752,48.774424550990176L84.08845911026002,48.77312721230625L84.63805688222249,48.25473317600741L85.18765465418498,44.86167494390172L85.73725242614746,42.8258400046383L86.28685019810995,39.59674886789758L86.83644797007243,40.19738972255128L87.38604574203491,40.55777423534351L87.9356435139974,40.77400494301885L88.48524128595987,40.90374336762406L89.03483905792235,40.98158642238718L89.58443682988485,41.02829225524504L90.13403460184733,41.05631575495977L90.68363237380981,41.07312985478862L91.2332301457723,41.0832183146859L91.78282791773478,41.08927139062429L92.33242568969727,41.09290323618732L92.88202346165974,41.09508234352512L93.43162123362222,41.096389807927814L93.98121900558472,41.09717428656944L94.5308167775472,41.0976449737544L95.08041454950968,36.94906394443005L95.63001232147217,34.45991532683546L96.17961009343465,32.9664261562787L96.72920786539714,32.07033265394464L97.27880563735961,31.5326765525442L97.8284034093221,31.21008289170395L98.37800118128459,31.016526695199783L98.92759895324707,30.900392977297273L99.47719672520955,30.830712746555776L100.02679449717203,30.788904608110883L100.57639226913453,30.763819725043952L101.12599004109701,30.108593797278054L101.67558781305948,29.71545824061846L102.22518558502198,29.479576906622757L102.77478335698446,29.338048106225326L103.32438112894695,28.94425673714389L103.87397890090942,28.707981915695058L104.4235766728719,28.566217022825743L104.9731744448344,27.16460509136992L105.52277221679688,29.048929468588046L106.07236998875935,30.179524094918943L106.62196776072184,30.857880870717445L107.17156553268433,31.264894936196583L107.72116330464681,31.509103375484063L108.27076107660929,31.65562843905652L108.82035884857177,31.743543477200003L109.36995662053427,31.79629250008613L109.91955439249674,31.827941913817767L110.46915216445923,31.84693156205676L111.01874993642171,31.858325351000147L111.5683477083842,31.86516162436618L112.11794548034668,31.86926338838582L112.66754325230916,31.87172444679759L113.21714102427165,31.873201081844655L113.76673879623414,29.09546370664158L114.3163365681966,27.428821281519728L114.8659343401591,26.428835826446637L115.41553211212158,25.828844553402778L115.96512988408408,25.46884978957647L116.51472765604655,25.25285293128067L117.06432542800903,25.123254816303184L117.61392319997152,25.68231485540959L118.163520971934,26.01775087887342L118.71311874389647,26.219012492951713L119.26271651585897,26.339769461398696L119.81231428782145,26.412223642466902L120.36191205978395,26.455696151107787L120.91150983174641,26.481779656292368L121.4611076037089,26.4974297594031L122.01070537567139,26.50681982126951L122.56030314763387,26.51245385838939L123.10990091959636,26.5158342806613L123.65949869155884,26.517862534024438L124.20909646352132,26.519079486042333L124.75869423548382,26.519809657253074L125.3082920074463,26.52024775997952L125.85788977940877,25.148682170982145L126.40748755137125,24.325742817583727L126.95708532333373,23.831979205544663L127.50668309529622,23.53572103832123L128.05628086725872,23.357966137987155L128.6058786392212,23.25131319778672L129.15547641118368,21.619818803979744L129.70507418314617,20.64092216769553L130.25467195510862,20.053584185925036L130.80426972707113,19.701181396862708L131.3538674990336,19.489739723425323L131.9034652709961,19.36287471936291L132.45306304295858,19.286755716925423L133.00266081492106,19.24108431546295L133.55225858688357,19.21368147458546L134.10185635884605,19.197239770058975L134.6514541308085,19.18737474734307L135.20105190277098,19.181455733713538L135.75064967473347,19.177904325535838L136.30024744669595,19.17577348062922L136.84984521865846,18.850611609500266L137.39944299062094,18.655514486822874L137.94904076258342,17.54013676137304L138.4986385345459,16.8709101261031L139.04823630650836,16.469374144941128L139.59783407847087,16.228452556243976L140.14743185043335,16.08389960302567L140.69702962239583,15.997167831094698L141.2466273943583,15.585571858944839L141.7962251663208,16.202716003323918L142.3458229382833,16.573002489951346L142.89542071024576,16.79517438192783L143.44501848220824,16.928477517113695L143.99461625417072,17.0084593982252L144.5442140261332,20.830568149429165L145.09381179809571,23.12383340015153L145.6434095700582,24.499792550584957L146.19300734202068,25.32536804084501L146.74260511398316,25.820713335001056L147.2922028859456,26.117920511494685L147.84180065790812,26.29624481739083L148.3913984298706,26.403239400928523L148.9409962018331,26.46743615105117L149.49059397379557,26.505954201124723L150.04019174575805,26.52906503116888L150.58978951772056,26.542931529195364L151.13938728968304,26.55125142801126L151.6889850616455,26.556243367300826L152.23858283360798,26.559238530874534L152.78818060557046,23.32236754966866L153.33777837753297,21.38024496094515L153.88737614949545,20.21497140771106L154.43697392145793,19.515807275770573L154.98657169342042,19.09630879660632L155.5361694653829,18.84460970910774L156.08576723734538,18.693590256608594L156.63536500930786,18.60297858510908L157.18496278127034,18.54861158220939L157.73456055323282,18.5159913804696L158.2841583251953,15.354175814528832L158.83375609715782,13.45708647496435L159.3833538691203,12.37075396090118L159.93295164108275,11.718954452463311L160.48254941304523,11.327874747400555L161.03214718500772,11.093226924362906L161.5817449569702,10.952438230540329L162.1313427289327,10.867965014246785L162.6809405008952,11.846327901448916L163.23053827285767,12.433345633770188L163.78013604482015,12.785556273162966L164.3297338167826,12.996882656798636L164.87933158874512,13.123678486980038L165.4289293607076,13.199755985088856L165.97852713267008,13.245402483954171L166.52812490463256,13.272790383273357L167.07772267659504,13.289223122864863L167.62732044855755,13.299082766619751L168.17691822052004,13.304998552872735L168.7265159924825,13.308548024624479L169.27611376444497,13.310677707675522L169.82571153640745,13.562727516693624L170.37530930836996,13.713957402104509L170.92490708033245,13.804695333351027L171.47450485229493,13.859138092098934L172.0241026242574,13.89180374734766L172.5737003962199,15.278287136068057L173.12329816818237,16.110177169300282L173.67289594014485,16.609311189239634L174.22249371210734,16.908791601203234L174.77209148406982,17.088479848381386L175.3216892560323,17.196292796688297L175.8712870279948,17.26098056567244L176.4208847999573,17.299793227062914L176.97048257191975,17.32308082389721L177.52008034388223,17.337053381997777L178.0696781158447,17.34543691685812L178.61927588780722,17.350467037774326L179.1688736597697,17.353485110324062L179.71847143173218,17.35529595385387L180.26806920369467,17.35638245997177L180.81766697565715,15.467945549450867L181.36726474761963,14.334883403138361L181.9168625195821,13.655046115350835L182.4664602915446,13.24714374267833L183.01605806350707,13.002402319074823L183.56565583546956,12.855557464912712L184.11525360743207,12.767450552415442L184.66485137939455,12.714586404917078L185.21444915135703,12.68286791641809L185.76404692331948,12.663836823318688L186.31364469528197,12.652418167459041L186.86324246724445,12.64556697394324L187.41284023920696,12.683309078010648L187.96243801116944,12.705954340451102L188.51203578313192,12.719541497915358L189.0616335550944,12.727693792393968L189.61123132705688,12.732585169081078L190.16082909901937,13.117507173543187L190.71042687098185,13.348460376220446L191.26002464294433,13.487032297826788L191.8096224149068,13.570175450790591L192.3592201868693,13.620061342568894L192.9088179588318,13.6499928776359L193.4584157307943,13.667951798676071L194.00801350275677,13.678727151300162L194.55761127471922,13.685192362874648L195.1072090466817,13.689071489819339L195.6568068186442,13.691398965986151L196.2064045906067,13.692795451686218L196.75600236256918,13.693633343106262L197.30560013453166,13.694136077958312L197.85519790649414,13.694437718869539L198.40479567845662,19.92330068323458L198.9543934504191,23.660618461853634L199.5039912223816,25.903009129025044L200.05358899434407,27.248443529327915L200.60318676630655,28.055704169509635L201.15278453826906,28.540060553618652L201.70238231023154,28.830674384084077L202.25198008219402,29.00504268236333L202.80157785415648,29.109663661330874L203.35117562611896,29.172436248711413L203.90077339808147,29.21009980113973L204.45037117004395,29.23269793259671L204.99996894200643,29.24625681147091L205.54956671396891,42.05082723502879L206.0991644859314,49.733569489163536L206.6487622578939,54.34321484164436L207.19836002985636,57.109002053132876L207.74795780181884,58.76847438002597L208.29755557378132,59.764157776161845L208.8471533457438,60.361567813843344L209.39675111770632,60.720013836452274L209.9463488896688,60.9350814500176L210.49594666163128,61.064122018156816L211.04554443359376,61.14154635904035L211.59514220555621,61.18800096357047L212.1447399775187,61.21587372628852L212.6943377494812,61.23259738391936L213.2439355214437,61.24263157849786L213.79353329340617,39.65329793767737L214.34313106536865,26.69969775318506L214.89272883733113,18.927537642489714L215.44232660929362,14.264241576072465L215.9919243812561,12.950938751724111L216.54152215321858,12.162957057115086L217.09111992518106,11.690168040349684L217.64071769714354,11.406494630290412L218.19031546910605,11.236290584254876L218.73991324106854,11.134168156633582L219.28951101303102,11.07289470006077L219.83910878499347,11.036130626117107" fill="none"></path></g></g></g></g><g opacity="0.2"><g><g><g><path style="fill: none;" stroke="rgb(255, 112, 67)" stroke-width="2px" d="M28.02948637008667,147.01905974825047L28.57908414204915,147.01905974825047L29.128681914011636,147.01905974825047L29.67827968597412,150.45746087480498L30.227877457936604,150.45746087480498L30.77747522989909,150.45746087480498L31.327073001861574,150.45746087480498L31.876670773824056,150.45746087480498L32.42626854578654,150.45746087480498L32.97586631774902,150.45746087480498L33.52546408971151,150.45746087480498L34.07506186167399,150.45746087480498L34.624659633636476,150.45746087480498L35.17425740559896,150.45746087480498L35.72385517756144,150.45746087480498L36.27345294952393,150.45746087480498L36.8230507214864,150.45746087480498L37.37264849344889,150.45746087480498L37.922246265411374,145.8808693027196L38.47184403737386,145.8808693027196L39.021441809336345,145.8808693027196L39.57103958129883,145.8808693027196L40.12063735326131,145.8808693027196L40.6702351252238,145.8808693027196L41.21983289718628,138.85174955010413L41.76943066914876,138.61024818858195L42.31902844111124,131.33785934984064L42.86862621307373,121.32022653806065L43.418223985036214,120.7078651777401L43.9678217569987,120.7078651777401L44.51741952896118,120.7078651777401L45.067017300923666,120.7078651777401L45.61661507288615,116.2734396232605L46.16621284484864,115.85931348690698L46.71581061681111,115.85931348690698L47.2654083887736,115.85931348690698L47.81500616073608,115.85931348690698L48.36460393269857,115.85931348690698L48.91420170466105,115.85931348690698L49.463799476623535,109.2094396461487L50.01339724858602,109.2094396461487L50.562995020548506,109.2094396461487L51.11259279251099,109.2094396461487L51.66219056447348,101.73661023920918L52.21178833643595,92.81742775315476L52.76138610839844,92.81742775315476L53.31098388036092,92.81742775315476L53.860581652323404,92.81742775315476L54.410179424285886,92.81742775315476L54.95977719624837,92.81742775315476L55.50937496821086,82.41657084074879L56.05897274017334,82.41657084074879L56.60857051213583,79.7406394572072L57.1581682840983,331.7656223234782L64.85253709157308,331.7656223234782L65.40213486353557,70.31902948773431L65.95173263549805,70.31902948773431L66.50133040746053,65.73316921816921L67.05092817942302,65.73316921816921L67.60052595138549,65.73316921816921L68.15012372334797,65.73316921816921L68.69972149531047,65.73316921816921L69.24931926727295,65.73316921816921L69.79891703923543,65.73316921816921L70.34851481119792,65.38305842584657L70.8981125831604,65.38305842584657L71.44771035512288,55.50670345784712L71.99730812708536,55.50670345784712L72.54690589904786,55.40515845817614L73.09650367101034,55.40515845817614L73.6461014429728,55.40515845817614L74.1956992149353,55.40515845817614L74.74529698689778,52.07757210665322L75.29489475886028,52.07757210665322L75.84449253082275,52.07757210665322L76.39409030278523,48.771181204280374L76.94368807474773,48.771181204280374L77.49328584671021,48.771181204280374L78.04288361867269,48.771181204280374L78.59248139063517,48.771181204280374L79.14207916259765,48.771181204280374L79.69167693456015,48.771181204280374L80.24127470652262,48.771181204280374L80.7908724784851,48.771181204280374L81.3404702504476,48.771181204280374L81.89006802241008,48.771181204280374L82.43966579437256,48.771181204280374L82.98926356633504,48.771181204280374L83.53886133829752,48.771181204280374L84.08845911026002,48.771181204280374L84.63805688222249,47.47714212155915L85.18765465418498,39.77208759574317L85.73725242614746,39.77208759574317L86.28685019810995,34.7531121627865L86.83644797007243,41.09835100453187L87.38604574203491,41.09835100453187L87.9356435139974,41.09835100453187L88.48524128595987,41.09835100453187L89.03483905792235,41.09835100453187L89.58443682988485,41.09835100453187L90.13403460184733,41.09835100453187L90.68363237380981,41.09835100453187L91.2332301457723,41.09835100453187L91.78282791773478,41.09835100453187L92.33242568969727,41.09835100453187L92.88202346165974,41.09835100453187L93.43162123362222,41.09835100453187L93.98121900558472,41.09835100453187L94.5308167775472,41.09835100453187L95.08041454950968,30.726192400443548L95.63001232147217,30.726192400443548L96.17961009343465,30.726192400443548L96.72920786539714,30.726192400443548L97.27880563735961,30.726192400443548L97.8284034093221,30.726192400443548L98.37800118128459,30.726192400443548L98.92759895324707,30.726192400443548L99.47719672520955,30.726192400443548L100.02679449717203,30.726192400443548L100.57639226913453,30.726192400443548L101.12599004109701,29.125754905629154L101.67558781305948,29.125754905629154L102.22518558502198,29.125754905629154L102.77478335698446,29.125754905629154L103.32438112894695,28.353569683521755L103.87397890090942,28.353569683521755L104.4235766728719,28.353569683521755L104.9731744448344,25.062187194186222L105.52277221679688,31.87541603441524L106.07236998875935,31.87541603441524L106.62196776072184,31.87541603441524L107.17156553268433,31.87541603441524L107.72116330464681,31.87541603441524L108.27076107660929,31.87541603441524L108.82035884857177,31.87541603441524L109.36995662053427,31.87541603441524L109.91955439249674,31.87541603441524L110.46915216445923,31.87541603441524L111.01874993642171,31.87541603441524L111.5683477083842,31.87541603441524L112.11794548034668,31.87541603441524L112.66754325230916,31.87541603441524L113.21714102427165,31.87541603441524L113.76673879623414,24.928857643836977L114.3163365681966,24.928857643836977L114.8659343401591,24.928857643836977L115.41553211212158,24.928857643836977L115.96512988408408,24.928857643836977L116.51472765604655,24.928857643836977L117.06432542800903,24.928857643836977L117.61392319997152,26.520904914069167L118.163520971934,26.520904914069167L118.71311874389647,26.520904914069167L119.26271651585897,26.520904914069167L119.81231428782145,26.520904914069167L120.36191205978395,26.520904914069167L120.91150983174641,26.520904914069167L121.4611076037089,26.520904914069167L122.01070537567139,26.520904914069167L122.56030314763387,26.520904914069167L123.10990091959636,26.520904914069167L123.65949869155884,26.520904914069167L124.20909646352132,26.520904914069167L124.75869423548382,26.520904914069167L125.3082920074463,26.520904914069167L125.85788977940877,23.091333787486082L126.40748755137125,23.091333787486082L126.95708532333373,23.091333787486082L127.50668309529622,23.091333787486082L128.05628086725872,23.091333787486082L128.6058786392212,23.091333787486082L129.15547641118368,19.172577213269246L129.70507418314617,19.172577213269246L130.25467195510862,19.172577213269246L130.80426972707113,19.172577213269246L131.3538674990336,19.172577213269246L131.9034652709961,19.172577213269246L132.45306304295858,19.172577213269246L133.00266081492106,19.172577213269246L133.55225858688357,19.172577213269246L134.10185635884605,19.172577213269246L134.6514541308085,19.172577213269246L135.20105190277098,19.172577213269246L135.75064967473347,19.172577213269246L136.30024744669595,19.172577213269246L136.84984521865846,18.362868802806844L137.39944299062094,18.362868802806844L137.94904076258342,15.867070173198227L138.4986385345459,15.867070173198227L139.04823630650836,15.867070173198227L139.59783407847087,15.867070173198227L140.14743185043335,15.867070173198227L140.69702962239583,15.867070173198227L141.2466273943583,14.968177900720107L141.7962251663208,17.128432219892517L142.3458229382833,17.128432219892517L142.89542071024576,17.128432219892517L143.44501848220824,17.128432219892517L143.99461625417072,17.128432219892517L144.5442140261332,26.563731276235096L145.09381179809571,26.563731276235096L145.6434095700582,26.563731276235096L146.19300734202068,26.563731276235096L146.74260511398316,26.563731276235096L147.2922028859456,26.563731276235096L147.84180065790812,26.563731276235096L148.3913984298706,26.563731276235096L148.9409962018331,26.563731276235096L149.49059397379557,26.563731276235096L150.04019174575805,26.563731276235096L150.58978951772056,26.563731276235096L151.13938728968304,26.563731276235096L151.6889850616455,26.563731276235096L152.23858283360798,26.563731276235096L152.78818060557046,18.467061077859874L153.33777837753297,18.467061077859874L153.88737614949545,18.467061077859874L154.43697392145793,18.467061077859874L154.98657169342042,18.467061077859874L155.5361694653829,18.467061077859874L156.08576723734538,18.467061077859874L156.63536500930786,18.467061077859874L157.18496278127034,18.467061077859874L157.73456055323282,18.467061077859874L158.2841583251953,10.61145246561765L158.83375609715782,10.61145246561765L159.3833538691203,10.741255189806452L159.93295164108275,10.741255189806452L160.48254941304523,10.741255189806452L161.03214718500772,10.741255189806452L161.5817449569702,10.741255189806452L162.1313427289327,10.741255189806452L162.6809405008952,13.313872232252123L163.23053827285767,13.313872232252123L163.78013604482015,13.313872232252123L164.3297338167826,13.313872232252123L164.87933158874512,13.313872232252123L165.4289293607076,13.313872232252123L165.97852713267008,13.313872232252123L166.52812490463256,13.313872232252123L167.07772267659504,13.313872232252123L167.62732044855755,13.313872232252123L168.17691822052004,13.313872232252123L168.7265159924825,13.313872232252123L169.27611376444497,13.313872232252123L169.82571153640745,13.940802230220806L170.37530930836996,13.940802230220806L170.92490708033245,13.940802230220806L171.47450485229493,13.940802230220806L172.0241026242574,13.940802230220806L172.5737003962199,17.358012219148645L173.12329816818237,17.358012219148645L173.67289594014485,17.358012219148645L174.22249371210734,17.358012219148645L174.77209148406982,17.358012219148645L175.3216892560323,17.358012219148645L175.8712870279948,17.358012219148645L176.4208847999573,17.358012219148645L176.97048257191975,17.358012219148645L177.52008034388223,17.358012219148645L178.0696781158447,17.358012219148645L178.61927588780722,17.358012219148645L179.1688736597697,17.358012219148645L179.71847143173218,17.358012219148645L180.26806920369467,17.358012219148645L180.81766697565715,12.635290183669555L181.36726474761963,12.635290183669555L181.9168625195821,12.635290183669555L182.4664602915446,12.635290183669555L183.01605806350707,12.635290183669555L183.56565583546956,12.635290183669555L184.11525360743207,12.635290183669555L184.66485137939455,12.635290183669555L185.21444915135703,12.635290183669555L185.76404692331948,12.635290183669555L186.31364469528197,12.635290183669555L186.86324246724445,12.635290183669555L187.41284023920696,12.739922234111793L187.96243801116944,12.739922234111793L188.51203578313192,12.739922234111793L189.0616335550944,12.739922234111793L189.61123132705688,12.739922234111793L190.16082909901937,13.694890180236328L190.71042687098185,13.694890180236328L191.26002464294433,13.694890180236328L191.8096224149068,13.694890180236328L192.3592201868693,13.694890180236328L192.9088179588318,13.694890180236328L193.4584157307943,13.694890180236328L194.00801350275677,13.694890180236328L194.55761127471922,13.694890180236328L195.1072090466817,13.694890180236328L195.6568068186442,13.694890180236328L196.2064045906067,13.694890180236328L196.75600236256918,13.694890180236328L197.30560013453166,13.694890180236328L197.85519790649414,13.694890180236328L198.40479567845662,29.26659512978219L198.9543934504191,29.26659512978219L199.5039912223816,29.26659512978219L200.05358899434407,29.26659512978219L200.60318676630655,29.26659512978219L201.15278453826906,29.26659512978219L201.70238231023154,29.26659512978219L202.25198008219402,29.26659512978219L202.80157785415648,29.26659512978219L203.35117562611896,29.26659512978219L203.90077339808147,29.26659512978219L204.45037117004395,29.26659512978219L204.99996894200643,29.26659512978219L205.54956671396891,61.25768287036562L206.0991644859314,61.25768287036562L206.6487622578939,61.25768287036562L207.19836002985636,61.25768287036562L207.74795780181884,61.25768287036562L208.29755557378132,61.25768287036562L208.8471533457438,61.25768287036562L209.39675111770632,61.25768287036562L209.9463488896688,61.25768287036562L210.49594666163128,61.25768287036562L211.04554443359376,61.25768287036562L211.59514220555621,61.25768287036562L212.1447399775187,61.25768287036562L212.6943377494812,61.25768287036562L213.2439355214437,61.25768287036562L213.79353329340617,7.269297476446627L214.34313106536865,7.269297476446627L214.89272883733113,7.269297476446627L215.44232660929362,7.269297476446627L215.9919243812561,10.980984515201571L216.54152215321858,10.980984515201571L217.09111992518106,10.980984515201571L217.64071769714354,10.980984515201571L218.19031546910605,10.980984515201571L218.73991324106854,10.980984515201571L219.28951101303102,10.980984515201571L219.83910878499347,10.980984515201571" fill="none"></path></g></g></g></g></g></g><g transform="translate(82, 176)" clip-path="url(#clip_1)"><clipPath id="clip_1"><rect width="247" height="23"></rect></clipPath><g><g><line x1="0" y1="0" x2="0" y2="5" style="visibility: inherit;" fill="rgb(0, 0, 0)" stroke="rgb(204, 204, 204)" stroke-width="1px"></line><line x1="27.479888598124184" y1="0" x2="27.479888598124184" y2="5" style="visibility: inherit;" fill="rgb(0, 0, 0)" stroke="rgb(204, 204, 204)" stroke-width="1px"></line><line x1="54.95977719624837" y1="0" x2="54.95977719624837" y2="5" style="visibility: inherit;" fill="rgb(0, 0, 0)" stroke="rgb(204, 204, 204)" stroke-width="1px"></line><line x1="82.43966579437256" y1="0" x2="82.43966579437256" y2="5" style="visibility: inherit;" fill="rgb(0, 0, 0)" stroke="rgb(204, 204, 204)" stroke-width="1px"></line><line x1="109.91955439249674" y1="0" x2="109.91955439249674" y2="5" style="visibility: inherit;" fill="rgb(0, 0, 0)" stroke="rgb(204, 204, 204)" stroke-width="1px"></line><line x1="137.39944299062094" y1="0" x2="137.39944299062094" y2="5" style="visibility: inherit;" fill="rgb(0, 0, 0)" stroke="rgb(204, 204, 204)" stroke-width="1px"></line><line x1="164.87933158874512" y1="0" x2="164.87933158874512" y2="5" style="visibility: inherit;" fill="rgb(0, 0, 0)" stroke="rgb(204, 204, 204)" stroke-width="1px"></line><line x1="192.3592201868693" y1="0" x2="192.3592201868693" y2="5" style="visibility: inherit;" fill="rgb(0, 0, 0)" stroke="rgb(204, 204, 204)" stroke-width="1px"></line><line x1="219.83910878499347" y1="0" x2="219.83910878499347" y2="5" style="visibility: inherit;" fill="rgb(0, 0, 0)" stroke="rgb(204, 204, 204)" stroke-width="1px"></line><line x1="247.31899738311768" y1="0" x2="247.31899738311768" y2="5" style="visibility: inherit;" fill="rgb(0, 0, 0)" stroke="rgb(204, 204, 204)" stroke-width="1px"></line></g><g transform="translate(0, 8)"><text style="text-anchor: middle; visibility: hidden; font-family: Roboto, sans-serif; font-size: 12px; font-weight: 200;" x="0" y="0" dx="0em" dy="0.95em" fill="rgb(255, 255, 255)" stroke="none" stroke-width="1px">-200k</text><text style="text-anchor: middle; visibility: inherit; font-family: Roboto, sans-serif; font-size: 12px; font-weight: 200;" x="27.479888598124184" y="0" dx="0em" dy="0.95em" fill="rgb(255, 255, 255)" stroke="none" stroke-width="1px">0</text><text style="text-anchor: middle; visibility: hidden; font-family: Roboto, sans-serif; font-size: 12px; font-weight: 200;" x="54.95977719624837" y="0" dx="0em" dy="0.95em" fill="rgb(255, 255, 255)" stroke="none" stroke-width="1px">200k</text><text style="text-anchor: middle; visibility: inherit; font-family: Roboto, sans-serif; font-size: 12px; font-weight: 200;" x="82.43966579437256" y="0" dx="0em" dy="0.95em" fill="rgb(255, 255, 255)" stroke="none" stroke-width="1px">400k</text><text style="text-anchor: middle; visibility: hidden; font-family: Roboto, sans-serif; font-size: 12px; font-weight: 200;" x="109.91955439249674" y="0" dx="0em" dy="0.95em" fill="rgb(255, 255, 255)" stroke="none" stroke-width="1px">600k</text><text style="text-anchor: middle; visibility: inherit; font-family: Roboto, sans-serif; font-size: 12px; font-weight: 200;" x="137.39944299062094" y="0" dx="0em" dy="0.95em" fill="rgb(255, 255, 255)" stroke="none" stroke-width="1px">800k</text><text style="text-anchor: middle; visibility: hidden; font-family: Roboto, sans-serif; font-size: 12px; font-weight: 200;" x="164.87933158874512" y="0" dx="0em" dy="0.95em" fill="rgb(255, 255, 255)" stroke="none" stroke-width="1px">1M</text><text style="text-anchor: middle; visibility: inherit; font-family: Roboto, sans-serif; font-size: 12px; font-weight: 200;" x="192.3592201868693" y="0" dx="0em" dy="0.95em" fill="rgb(255, 255, 255)" stroke="none" stroke-width="1px">1.2M</text><text style="text-anchor: middle; visibility: hidden; font-family: Roboto, sans-serif; font-size: 12px; font-weight: 200;" x="219.83910878499347" y="0" dx="0em" dy="0.95em" fill="rgb(255, 255, 255)" stroke="none" stroke-width="1px">1.4M</text><text style="text-anchor: middle; visibility: hidden; font-family: Roboto, sans-serif; font-size: 12px; font-weight: 200;" x="247.31899738311768" y="0" dx="0em" dy="0.95em" fill="rgb(255, 255, 255)" stroke="none" stroke-width="1px">1.6M</text></g><line x1="0" y1="0" x2="247.31899738311768" y2="0" fill="rgb(0, 0, 0)" stroke="rgb(204, 204, 204)" stroke-width="1px"></line></g></g></g></g></svg>