<svg viewBox="0 0 330 200" xmlns="http://www.w3.org/2000/svg"><g><g><g><g><g><line x1="72.29800224304199" y1="176.5999994277954" x2="67.29800224304199" y2="176.5999994277954" style="visibility: inherit;" fill="rgb(0, 0, 0)" stroke="rgb(204, 204, 204)" stroke-width="1px"></line><line x1="72.29800224304199" y1="151.37142808096752" x2="67.29800224304199" y2="151.37142808096752" style="visibility: inherit;" fill="rgb(0, 0, 0)" stroke="rgb(204, 204, 204)" stroke-width="1px"></line><line x1="72.29800224304199" y1="126.14285673413958" x2="67.29800224304199" y2="126.14285673413958" style="visibility: inherit;" fill="rgb(0, 0, 0)" stroke="rgb(204, 204, 204)" stroke-width="1px"></line><line x1="72.29800224304199" y1="100.91428538731165" x2="67.29800224304199" y2="100.91428538731165" style="visibility: inherit;" fill="rgb(0, 0, 0)" stroke="rgb(204, 204, 204)" stroke-width="1px"></line><line x1="72.29800224304199" y1="75.68571404048376" x2="67.29800224304199" y2="75.68571404048376" style="visibility: inherit;" fill="rgb(0, 0, 0)" stroke="rgb(204, 204, 204)" stroke-width="1px"></line><line x1="72.29800224304199" y1="50.457142693655825" x2="67.29800224304199" y2="50.457142693655825" style="visibility: inherit;" fill="rgb(0, 0, 0)" stroke="rgb(204, 204, 204)" stroke-width="1px"></line><line x1="72.29800224304199" y1="25.228571346827923" x2="67.29800224304199" y2="25.228571346827923" style="visibility: inherit;" fill="rgb(0, 0, 0)" stroke="rgb(204, 204, 204)" stroke-width="1px"></line><line x1="72.29800224304199" y1="0" x2="67.29800224304199" y2="0" style="visibility: inherit;" fill="rgb(0, 0, 0)" stroke="rgb(204, 204, 204)" stroke-width="1px"></line></g><g transform="translate(62.29800224304199, 0)"><text style="text-anchor: end; visibility: hidden; font-family: Roboto, sans-serif; font-size: 12px; font-weight: 200;" x="0" y="176.5999994277954" dx="0em" dy="0.3em" fill="rgb(255, 255, 255)" stroke="none" stroke-width="1px">-5e+3</text><text style="text-anchor: end; visibility: inherit; font-family: Roboto, sans-serif; font-size: 12px; font-weight: 200;" x="0" y="151.37142808096752" dx="0em" dy="0.3em" fill="rgb(255, 255, 255)" stroke="none" stroke-width="1px">0</text><text style="text-anchor: end; visibility: hidden; font-family: Roboto, sans-serif; font-size: 12px; font-weight: 200;" x="0" y="126.14285673413958" dx="0em" dy="0.3em" fill="rgb(255, 255, 255)" stroke="none" stroke-width="1px">5e+3</text><text style="text-anchor: end; visibility: inherit; font-family: Roboto, sans-serif; font-size: 12px; font-weight: 200;" x="0" y="100.91428538731165" dx="0em" dy="0.3em" fill="rgb(255, 255, 255)" stroke="none" stroke-width="1px">1e+4</text><text style="text-anchor: end; visibility: hidden; font-family: Roboto, sans-serif; font-size: 12px; font-weight: 200;" x="0" y="75.68571404048376" dx="0em" dy="0.3em" fill="rgb(255, 255, 255)" stroke="none" stroke-width="1px">1.5e+4</text><text style="text-anchor: end; visibility: inherit; font-family: Roboto, sans-serif; font-size: 12px; font-weight: 200;" x="0" y="50.457142693655825" dx="0em" dy="0.3em" fill="rgb(255, 255, 255)" stroke="none" stroke-width="1px">2e+4</text><text style="text-anchor: end; visibility: hidden; font-family: Roboto, sans-serif; font-size: 12px; font-weight: 200;" x="0" y="25.228571346827923" dx="0em" dy="0.3em" fill="rgb(255, 255, 255)" stroke="none" stroke-width="1px">2.5e+4</text><text style="text-anchor: end; visibility: hidden; font-family: Roboto, sans-serif; font-size: 12px; font-weight: 200;" x="0" y="0" dx="0em" dy="0.3em" fill="rgb(255, 255, 255)" stroke="none" stroke-width="1px">3e+4</text></g><line x1="72.29800224304199" y1="0" x2="72.29800224304199" y2="176.5999994277954" fill="rgb(0, 0, 0)" stroke="rgb(204, 204, 204)" stroke-width="1px"></line></g></g><g transform="translate(72, 0)" clip-path="url(#clip_0)"><clipPath id="clip_0"><rect width="257" height="176"></rect></clipPath><g><g><g><line x1="0" y1="0" x2="0" y2="176.5999994277954" fill="rgb(0, 0, 0)" stroke="rgb(189, 189, 189)" stroke-width="1px" opacity="0.25"></line><line x1="28.633555306328667" y1="0" x2="28.633555306328667" y2="176.5999994277954" fill="rgb(0, 0, 0)" stroke="rgb(189, 189, 189)" stroke-width="1px" opacity="0.25"></line><line x1="57.26711061265733" y1="0" x2="57.26711061265733" y2="176.5999994277954" fill="rgb(0, 0, 0)" stroke="rgb(189, 189, 189)" stroke-width="1px" opacity="0.25"></line><line x1="85.900665918986" y1="0" x2="85.900665918986" y2="176.5999994277954" fill="rgb(0, 0, 0)" stroke="rgb(189, 189, 189)" stroke-width="1px" opacity="0.25"></line><line x1="114.53422122531467" y1="0" x2="114.53422122531467" y2="176.5999994277954" fill="rgb(0, 0, 0)" stroke="rgb(189, 189, 189)" stroke-width="1px" opacity="0.25"></line><line x1="143.16777653164334" y1="0" x2="143.16777653164334" y2="176.5999994277954" fill="rgb(0, 0, 0)" stroke="rgb(189, 189, 189)" stroke-width="1px" opacity="0.25"></line><line x1="171.801331837972" y1="0" x2="171.801331837972" y2="176.5999994277954" fill="rgb(0, 0, 0)" stroke="rgb(189, 189, 189)" stroke-width="1px" opacity="0.25"></line><line x1="200.4348871443007" y1="0" x2="200.4348871443007" y2="176.5999994277954" fill="rgb(0, 0, 0)" stroke="rgb(189, 189, 189)" stroke-width="1px" opacity="0.25"></line><line x1="229.06844245062933" y1="0" x2="229.06844245062933" y2="176.5999994277954" fill="rgb(0, 0, 0)" stroke="rgb(189, 189, 189)" stroke-width="1px" opacity="0.25"></line><line x1="257.701997756958" y1="0" x2="257.701997756958" y2="176.5999994277954" fill="rgb(0, 0, 0)" stroke="rgb(189, 189, 189)" stroke-width="1px" opacity="0.25"></line></g><g><line x1="0" y1="176.5999994277954" x2="257.701997756958" y2="176.5999994277954" fill="rgb(0, 0, 0)" stroke="rgb(189, 189, 189)" stroke-width="1px" opacity="0.25"></line><line x1="0" y1="151.37142808096752" x2="257.701997756958" y2="151.37142808096752" fill="rgb(0, 0, 0)" stroke="rgb(189, 189, 189)" stroke-width="1px" opacity="0.25"></line><line x1="0" y1="126.14285673413958" x2="257.701997756958" y2="126.14285673413958" fill="rgb(0, 0, 0)" stroke="rgb(189, 189, 189)" stroke-width="1px" opacity="0.25"></line><line x1="0" y1="100.91428538731165" x2="257.701997756958" y2="100.91428538731165" fill="rgb(0, 0, 0)" stroke="rgb(189, 189, 189)" stroke-width="1px" opacity="0.25"></line><line x1="0" y1="75.68571404048376" x2="257.701997756958" y2="75.68571404048376" fill="rgb(0, 0, 0)" stroke="rgb(189, 189, 189)" stroke-width="1px" opacity="0.25"></line><line x1="0" y1="50.457142693655825" x2="257.701997756958" y2="50.457142693655825" fill="rgb(0, 0, 0)" stroke="rgb(189, 189, 189)" stroke-width="1px" opacity="0.25"></line><line x1="0" y1="25.228571346827923" x2="257.701997756958" y2="25.228571346827923" fill="rgb(0, 0, 0)" stroke="rgb(189, 189, 189)" stroke-width="1px" opacity="0.25"></line><line x1="0" y1="0" x2="257.701997756958" y2="0" fill="rgb(0, 0, 0)" stroke="rgb(189, 189, 189)" stroke-width="1px" opacity="0.25"></line></g></g></g><g><g><line x1="0" y1="151.37142808096752" x2="257.701997756958" y2="151.37142808096752" fill="rgb(0, 0, 0)" stroke="rgb(153, 153, 153)" stroke-width="1.5px"></line></g></g><g><g><line x1="28.633555306328667" y1="0" x2="28.633555306328667" y2="176.5999994277954" fill="rgb(0, 0, 0)" stroke="rgb(153, 153, 153)" stroke-width="1.5px"></line></g></g><g><g><g><g><g><path style="fill: none;" stroke="rgb(255, 112, 67)" stroke-width="2px" d="M35.50560857984755,177.9915149586069L36.078279685974124,174.20352964506924L36.650950792100694,171.93390725804664L37.223621898227265,166.92330353613633L37.79629300435384,163.91844951127786L38.36896411048041,162.11607971771187L38.94163521660699,159.6854919533664L39.51430632273356,158.227297288635L40.08697742886014,157.35243736004318L40.65964853498671,156.71471730236863L41.232319641113286,150.37544935742469L41.80499074723985,146.57194199153594L42.377661853366426,144.28985679605998L42.950332959493,141.3419046362559L43.523004065619574,139.57313870429485L44.095675171746144,138.51188107612273L44.66834627787272,137.87512719437956L45.24101738399929,135.04953580743367L45.81368849012587,133.35418164157517L46.38635959625244,132.33696938193117L46.95903070237902,131.72664211249838L47.53170180850559,126.58639224520525L48.104372914632165,120.27258219114744L48.677044020758736,116.48429627448755L49.24971512688531,112.09030849112116L49.82238623301188,109.45391585010708L50.39505733913846,107.87208027594065L50.967728445265024,106.92297893519996L51.5403995513916,106.35351813210886L52.11307065751817,106.01184165074136L52.68574176364475,105.80683576209626L53.25841286977132,105.68383222897234L53.8310839758979,105.61003010912071L54.40375508202447,103.78057512853081L54.976426188151045,101.4880770012383L55.549097294277615,100.1125781249543L56.121768400404186,99.28727879921682L56.69443950653076,98.79209920378621L57.26711061265733,98.4949914465321L57.83978171878391,98.31672679218119L58.41245282491048,95.73918328212255L58.98512393103706,90.1540674748849L59.55779503716363,86.80299799054856L60.1304661432902,84.79235629994898L60.70313724941677,83.58597128559006L61.27580835554335,82.86214027697498L61.84847946166992,82.42784167180605L62.421150567796495,82.16726250870474L62.993821673923065,81.22015106474537L63.56649278004964,80.65188419836977L64.13916388617622,80.31092407854445L64.71183499230278,79.53093553976363L65.28450609842936,79.06294241649515L65.85717720455592,76.61248940670686L66.4298483106825,75.14221760083392L67.00251941680908,74.26005451731012L67.57519052293566,73.2483863830445L68.14786162906222,72.64138550248512L68.7205327351888,72.2771849741495L69.29320384131537,72.05866465714813L69.86587494744195,71.9275524669473L70.43854605356852,71.68015528506996L71.0112171596951,71.53171697594354L71.58388826582167,71.44265399046768L72.15655937194825,71.32887063910985L72.72923047807481,71.26060062829514L73.30190158420139,71.21963862180633L73.87457269032797,70.30136490071943L74.44724379645453,69.75040066806727L75.0199149025811,69.419822128476L75.59258600870768,69.22147500472123L76.16525711483426,68.85421758841557L76.73792822096082,64.9999397218351L77.3105993270874,62.687373001886805L77.88327043321398,61.299832969917816L78.45594153934056,60.46730895073645L79.02861264546712,59.96779453922762L79.6012837515937,59.668085892322324L80.17395485772028,59.488260704179154L80.74662596384685,59.380365591293234L81.31929706997342,59.31562852356168L81.8919681761,59.27678628292275L82.46463928222657,59.253480938539404L83.03731038835313,59.239497731909395L83.6099814944797,56.12516714388785L84.18265260060627,54.25656879107495L84.75532370673285,53.135409779387196L85.32799481285943,52.462714372374535L85.900665918986,49.60405360487156L86.47333702511257,47.88885714436977L87.04600813123915,46.8597392680687L87.61867923736573,46.24226854228807L88.19135034349229,45.87178610681971L88.76402144961887,45.09790152679018L89.33669255574544,44.63357077877247L89.90936366187202,44.35497232996183L90.48203476799858,44.187813260675455L91.05470587412516,44.087517819103624L91.62737698025174,44.027340554160524L92.2000480863783,43.99123419519466L92.77271919250488,43.96957037981514L93.34539029863146,43.956572090587436L93.91806140475803,43.94877311705082L94.4907325108846,43.94409373292886L95.06340361701118,43.94128610245569L95.63607472313775,43.939601524171756L96.20874582926433,43.938590777201426L96.7814169353909,43.93798432901921L97.35408804151747,45.688077289259624L97.92675914764405,46.73813306540387L98.49943025377063,47.36816653109044L99.07210135989719,47.74618661050238L99.64477246602377,47.972998658149514L100.21744357215034,48.10908588673783L100.79011467827692,48.190738223890804L101.36278578440347,48.239729626182566L101.93545689053005,48.26912446755765L102.50812799665663,48.28676137238271L103.0807991027832,48.29734351527773L103.65347020890977,48.30369280101475L104.22614131503634,46.808925234455366L104.79881242116292,45.91206469451975L105.3714835272895,45.37394837055837L105.94415463341606,44.60402829191576L106.51682573954264,44.14207624473019L107.08949684566922,43.86490501641887L107.6621679517958,43.69860227943206L108.23483905792236,40.92378397180025L108.80751016404894,39.25889298722119L109.38018127017551,38.259958396473735L109.95285237630209,37.66059764202527L110.52552348242865,37.30098118935619L111.09819458855523,37.085211317754755L111.67086569468181,36.95574939479389L112.24353680080837,36.87807224101738L112.81620790693495,36.83146594875144L113.38887901306153,36.8035021733919L113.9615501191881,36.786723908176164L114.53422122531467,36.776656949046725L115.10689233144124,36.77061677356906L115.67956343756782,34.661116514391445L116.2522345436944,33.395416358884894L116.82490564982096,32.63599626558097L117.39757675594754,32.1803442095986L117.97024786207412,31.906952976009176L118.5429189682007,31.74291823585554L119.11559007432726,31.644497391763338L119.68826118045382,31.58544488530803L120.2609322865804,31.550013381434837L120.83360339270698,31.528754479110937L121.40627449883354,31.515999137716594L121.97894560496012,31.508345932879973L122.5516167110867,31.50375400997801L123.12428781721327,31.500998856236826L123.69695892333984,31.49934576399212L124.26963002946641,32.8853182702228L124.84230113559299,33.42788483739764L125.41497224171957,33.75342477770255L125.98764334784613,33.91080339379416L126.56031445397271,34.00523056344912L127.13298556009929,34.06188686524213L127.70565666622586,34.09588064631792L128.27832777235244,33.44640710016956L128.850998878479,33.05672297248054L129.42366998460557,32.822912495867136L129.99634109073216,32.6826262098991L130.56901219685872,31.4151358930452L131.14168330298529,30.65464170293288L131.71435440911185,30.198345188865467L132.28702551523844,29.924567280425027L132.859696621365,29.760300535360763L133.4323677274916,29.661740488322202L134.00503883361816,29.602604460099073L134.57770993974475,29.567122843165183L135.1503810458713,29.545833873004867L135.72305215199788,29.533060490908667L136.29572325812444,29.525396461650974L136.86839436425103,29.520798044096328L137.4410654703776,29.518038993563568L138.0137365765042,29.516383563243885L138.58640768263075,29.515390305052094L139.15907878875734,30.08354489740133L139.7317498948839,30.00645147112948L140.30442100101047,29.960195415366382L140.87709210713703,29.93244178190851L141.44976321326362,29.915789601833808L142.0224343193902,29.905798293788973L142.59510542551678,29.89980350896207L143.16777653164334,29.896206638065927L143.74044763776993,29.89404851552824L144.3131187438965,29.89275364200564L144.88578985002306,29.89197671789207L145.45846095614962,29.891510563423928L146.0311320622762,29.891230870743048L146.60380316840278,29.891063055134527L147.17647427452937,29.890962365769404L147.74914538065593,29.890901952150344L148.3218164867825,30.042639212415697L148.89448759290906,30.133681568574904L149.46715869903562,30.188306982270436L150.0398298051622,30.221082230487756L150.61250091128878,30.240747379418156L151.18517201741537,30.25254646877638L151.75784312354193,32.14289146986075L152.33051422966852,33.27709847051137L152.9031853357951,33.957622670901756L153.47585644192165,34.365937191135956L154.0485275480482,33.97213847677483L154.6211986541748,33.73585924815815L155.19386976030137,33.59409171098813L155.76654086642796,33.509031188686116L156.33921197255452,33.45799487530492L156.91188307868111,33.427373087276194L157.48455418480768,33.40900001445895L158.05722529093424,33.397976170768594L158.6298963970608,33.3913618645544L159.2025675031874,33.3873932808259L159.77523860931396,33.38501213058878L160.34790971544055,33.3835834404465L160.9205808215671,33.38272622636116L161.4932519276937,33.38221189790993L162.06592303382027,33.381903300839184L162.63859413994683,31.791912125426496L163.2112652460734,30.837917420178865L163.7839363522,30.26552059703027L164.35660745832655,29.922082503141137L164.92927856445314,29.716019646807656L165.5019496705797,29.592381933007555L166.07462077670627,29.5181993047275L166.64729188283283,29.473689727759464L167.2199629889594,29.44698398157863L167.792634095086,29.43096053387016L168.36530520121255,29.42134646524508L168.93797630733914,29.415578024070022L169.5106474134657,29.41211695936498L170.0833185195923,29.410040320541935L170.65598962571886,29.408794337248143L171.22866073184542,29.985075419509357L171.801331837972,30.330844068866096L172.37400294409858,30.53830525848012L172.94667405022514,30.662781972248546L173.51934515635173,30.737468000509608L174.0920162624783,30.782279617466237L174.6646873686049,30.809166587640224L175.23735847473145,30.825298769744613L175.81002958085801,30.83497807900724L176.38270068698458,30.840785664564812L176.95537179311117,30.84427021589935L177.52804289923773,31.25930141411212L178.10071400536432,31.50832013303977L178.6733851114909,31.657731364396348L179.24605621761748,31.7473781032103L179.81872732374404,31.801166146498687L180.3913984298706,31.833438972471708L180.96406953599717,31.85280266805554L181.53674064212376,31.864420885405817L182.10941174825032,31.87139181581598L182.68208285437692,31.87557437406208L183.25475396050348,30.645317363896897L183.82742506663007,29.9071631577978L184.4000961727566,29.46427063413833L184.97276727888317,29.198535119942658L185.54543838500976,29.039093811425268L186.11810949113632,28.943429026314817L186.69078059726291,28.886030155248545L187.26345170338948,28.851590832608785L187.83612280951607,28.830927239024927L188.40879391564263,28.818529082874615L188.9814650217692,28.811090189184426L189.55413612789576,28.118592466806756L190.12680723402235,27.70309383338018L190.69947834014891,27.453794653324213L191.2721494462755,27.304215145290637L191.84482055240207,27.2144674404705L192.41749165852866,27.160618817578406L192.99016276465522,27.12830964384316L193.5628338707818,27.10892413960201L194.13550497690835,27.097292837057317L194.70817608303494,27.090314055530495L195.2808471891615,27.086126786614404L195.8535182952881,27.083614425264756L196.42618940141466,27.082107008454972L196.99886050754125,27.081202558369082L197.57153161366782,27.080659888317566L198.14420271979438,27.185687223445306L198.71687382592094,27.248703624521934L199.28954493204753,27.286513465167914L199.8622160381741,28.630573387595547L200.4348871443007,29.437009341052097L201.00755825042725,29.92087091312603L201.58022935655384,30.211187856370397L202.1529004626804,30.385378022317003L202.72557156880694,30.489892121884964L203.29824267493353,30.552600581625757L203.8709137810601,30.590225657470224L204.4435848871867,30.612800702976912L205.01625599331325,30.626345730280928L205.58892709943984,28.969387037772695L206.1615982055664,27.20503084262036L206.73426931169297,26.146417125528966L207.30694041781953,24.867620736645268L207.87961152394612,24.10034290331507L208.4522826300727,23.639976203316944L209.02495373619928,23.36375618331806L209.59762484232584,23.19802417131875L210.17029594845243,23.098584964119155L210.742967054579,23.038921439799392L211.31563816070556,23.003123325207547L211.88830926683212,22.76629100625734L212.46098037295872,22.624191614887224L213.03365147908528,22.53893198006515L213.60632258521187,22.487776199171904L214.17899369133843,22.45708273063594L214.75166479746503,22.438666649514385L215.3243359035916,22.42761700084145L215.89700700971815,22.4209872116377L216.46967811584472,22.41700933811542L217.0423492219713,22.41462261400208L217.61502032809787,22.413190579534056L218.18769143422446,22.412331358853244L218.76036254035103,22.41181582644478L219.33303364647762,22.411506506999686L219.90570475260418,22.41132091533264L220.47837585873074,23.903530801032815L221.0510469648573,24.79885673245294L221.62371807098387,25.10515961794597L222.19638917711046,25.288941349241792L222.76906028323702,25.399210388019284L223.34173138936362,25.46537181128577L223.91440249549018,25.505068665245663L224.48707360161674,25.528886777621608L225.0597447077433,25.543177645047155L225.6324158138699,25.551752165502503L226.20508691999646,23.65405947769115L226.77775802612305,22.51544386500431L227.35042913224962,21.832274497392227L227.9231002383762,21.422372876824962L228.49577134450277,21.176431904484595L229.06844245062933,21.028867321080362" fill="none"></path></g></g></g></g><g opacity="0.2"><g><g><g><path style="fill: none;" stroke="rgb(255, 112, 67)" stroke-width="2px" d="M34.932937473720976,179.4609194185257L35.50560857984755,174.2386051497323L36.078279685974124,168.53392010404204L36.650950792100694,168.53392010404204L37.223621898227265,159.41328772985514L37.79629300435384,159.41328772985514L38.36896411048041,159.41328772985514L38.94163521660699,156.04022743281828L39.51430632273356,156.04022743281828L40.08697742886014,156.04022743281828L40.65964853498671,155.75817218994032L41.232319641113286,140.86675603632082L41.80499074723985,140.86675603632082L42.377661853366426,140.86675603632082L42.950332959493,136.919997349332L43.523004065619574,136.919997349332L44.095675171746144,136.919997349332L44.66834627787272,136.919997349332L45.24101738399929,130.81115132978385L45.81368849012587,130.81115132978385L46.38635959625244,130.81115132978385L46.95903070237902,130.81115132978385L47.53170180850559,118.8760180579082L48.104372914632165,110.801867562306L48.677044020758736,110.801867562306L49.24971512688531,105.49932692937523L49.82238623301188,105.49932692937523L50.39505733913846,105.49932692937523L50.967728445265024,105.49932692937523L51.5403995513916,105.49932692937523L52.11307065751817,105.49932692937523L52.68574176364475,105.49932692937523L53.25841286977132,105.49932692937523L53.8310839758979,105.49932692937523L54.40375508202447,101.03639265812137L54.976426188151045,98.04932981065694L55.549097294277615,98.04932981065694L56.121768400404186,98.04932981065694L56.69443950653076,98.04932981065694L57.26711061265733,98.04932981065694L57.83978171878391,98.04932981065694L58.41245282491048,91.87286801705335L58.98512393103706,81.7763937640528L59.55779503716363,81.7763937640528L60.1304661432902,81.7763937640528L60.70313724941677,81.7763937640528L61.27580835554335,81.7763937640528L61.84847946166992,81.7763937640528L62.421150567796495,81.7763937640528L62.993821673923065,79.79948389880644L63.56649278004964,79.79948389880644L64.13916388617622,79.79948389880644L64.71183499230278,78.36095273159245L65.28450609842936,78.36095273159245L65.85717720455592,72.93680989202444L66.4298483106825,72.93680989202444L67.00251941680908,72.93680989202444L67.57519052293566,71.73088418164606L68.14786162906222,71.73088418164606L68.7205327351888,71.73088418164606L69.29320384131537,71.73088418164606L69.86587494744195,71.73088418164606L70.43854605356852,71.30905951225391L71.0112171596951,71.30905951225391L71.58388826582167,71.30905951225391L72.15655937194825,71.15819561207307L72.72923047807481,71.15819561207307L73.30190158420139,71.15819561207307L73.87457269032797,68.92395431908906L74.44724379645453,68.92395431908906L75.0199149025811,68.92395431908906L75.59258600870768,68.92395431908906L76.16525711483426,68.3033314639571L76.73792822096082,59.218522921964365L77.3105993270874,59.218522921964365L77.88327043321398,59.218522921964365L78.45594153934056,59.218522921964365L79.02861264546712,59.218522921964365L79.6012837515937,59.218522921964365L80.17395485772028,59.218522921964365L80.74662596384685,59.218522921964365L81.31929706997342,59.218522921964365L81.8919681761,59.218522921964365L82.46463928222657,59.218522921964365L83.03731038835313,59.218522921964365L83.6099814944797,51.45367126185554L84.18265260060627,51.45367126185554L84.75532370673285,51.45367126185554L85.32799481285943,51.45367126185554L85.900665918986,45.31606245361711L86.47333702511257,45.31606245361711L87.04600813123915,45.31606245361711L87.61867923736573,45.31606245361711L88.19135034349229,45.31606245361711L88.76402144961887,43.93707465674591L89.33669255574544,43.93707465674591L89.90936366187202,43.93707465674591L90.48203476799858,43.93707465674591L91.05470587412516,43.93707465674591L91.62737698025174,43.93707465674591L92.2000480863783,43.93707465674591L92.77271919250488,43.93707465674591L93.34539029863146,43.93707465674591L93.91806140475803,43.93707465674591L94.4907325108846,43.93707465674591L95.06340361701118,43.93707465674591L95.63607472313775,43.93707465674591L96.20874582926433,43.93707465674591L96.7814169353909,43.93707465674591L97.35408804151747,48.31321672962026L97.92675914764405,48.31321672962026L98.49943025377063,48.31321672962026L99.07210135989719,48.31321672962026L99.64477246602377,48.31321672962026L100.21744357215034,48.31321672962026L100.79011467827692,48.31321672962026L101.36278578440347,48.31321672962026L101.93545689053005,48.31321672962026L102.50812799665663,48.31321672962026L103.0807991027832,48.31321672962026L103.65347020890977,48.31321672962026L104.22614131503634,44.5667738846163L104.79881242116292,44.5667738846163L105.3714835272895,44.5667738846163L105.94415463341606,43.44914817395184L106.51682573954264,43.44914817395184L107.08949684566922,43.44914817395184L107.6621679517958,43.44914817395184L108.23483905792236,36.76155651035256L108.80751016404894,36.76155651035256L109.38018127017551,36.76155651035256L109.95285237630209,36.76155651035256L110.52552348242865,36.76155651035256L111.09819458855523,36.76155651035256L111.67086569468181,36.76155651035256L112.24353680080837,36.76155651035256L112.81620790693495,36.76155651035256L113.38887901306153,36.76155651035256L113.9615501191881,36.76155651035256L114.53422122531467,36.76155651035256L115.10689233144124,36.76155651035256L115.67956343756782,31.496866125625044L116.2522345436944,31.496866125625044L116.82490564982096,31.496866125625044L117.39757675594754,31.496866125625044L117.97024786207412,31.496866125625044L118.5429189682007,31.496866125625044L119.11559007432726,31.496866125625044L119.68826118045382,31.496866125625044L120.2609322865804,31.496866125625044L120.83360339270698,31.496866125625044L121.40627449883354,31.496866125625044L121.97894560496012,31.496866125625044L122.5516167110867,31.496866125625044L123.12428781721327,31.496866125625044L123.69695892333984,31.496866125625044L124.26963002946641,34.96427702956881L124.84230113559299,34.24173468815993L125.41497224171957,34.24173468815993L125.98764334784613,34.14687131793159L126.56031445397271,34.14687131793159L127.13298556009929,34.14687131793159L127.70565666622586,34.14687131793159L128.27832777235244,32.47219678094701L128.850998878479,32.47219678094701L129.42366998460557,32.47219678094701L129.99634109073216,32.47219678094701L130.56901219685872,29.51390041776438L131.14168330298529,29.51390041776438L131.71435440911185,29.51390041776438L132.28702551523844,29.51390041776438L132.859696621365,29.51390041776438L133.4323677274916,29.51390041776438L134.00503883361816,29.51390041776438L134.57770993974475,29.51390041776438L135.1503810458713,29.51390041776438L135.72305215199788,29.51390041776438L136.29572325812444,29.51390041776438L136.86839436425103,29.51390041776438L137.4410654703776,29.51390041776438L138.0137365765042,29.51390041776438L138.58640768263075,29.51390041776438L139.15907878875734,30.93577678592518L139.7317498948839,29.890811331721718L140.30442100101047,29.890811331721718L140.87709210713703,29.890811331721718L141.44976321326362,29.890811331721718L142.0224343193902,29.890811331721718L142.59510542551678,29.890811331721718L143.16777653164334,29.890811331721718L143.74044763776993,29.890811331721718L144.3131187438965,29.890811331721718L144.88578985002306,29.890811331721718L145.45846095614962,29.890811331721718L146.0311320622762,29.890811331721718L146.60380316840278,29.890811331721718L147.17647427452937,29.890811331721718L147.74914538065593,29.890811331721718L148.3218164867825,30.27024510281373L148.89448759290906,30.27024510281373L149.46715869903562,30.27024510281373L150.0398298051622,30.27024510281373L150.61250091128878,30.27024510281373L151.18517201741537,30.27024510281373L151.75784312354193,34.97840897148731L152.33051422966852,34.97840897148731L152.9031853357951,34.97840897148731L153.47585644192165,34.97840897148731L154.0485275480482,33.38144040523311L154.6211986541748,33.38144040523311L155.19386976030137,33.38144040523311L155.76654086642796,33.38144040523311L156.33921197255452,33.38144040523311L156.91188307868111,33.38144040523311L157.48455418480768,33.38144040523311L158.05722529093424,33.38144040523311L158.6298963970608,33.38144040523311L159.2025675031874,33.38144040523311L159.77523860931396,33.38144040523311L160.34790971544055,33.38144040523311L160.9205808215671,33.38144040523311L161.4932519276937,33.38144040523311L162.06592303382027,33.38144040523311L162.63859413994683,29.40692536230742L163.2112652460734,29.40692536230742L163.7839363522,29.40692536230742L164.35660745832655,29.40692536230742L164.92927856445314,29.40692536230742L165.5019496705797,29.40692536230742L166.07462077670627,29.40692536230742L166.64729188283283,29.40692536230742L167.2199629889594,29.40692536230742L167.792634095086,29.40692536230742L168.36530520121255,29.40692536230742L168.93797630733914,29.40692536230742L169.5106474134657,29.40692536230742L170.0833185195923,29.40692536230742L170.65598962571886,29.40692536230742L171.22866073184542,30.849497042901184L171.801331837972,30.849497042901184L172.37400294409858,30.849497042901184L172.94667405022514,30.849497042901184L173.51934515635173,30.849497042901184L174.0920162624783,30.849497042901184L174.6646873686049,30.849497042901184L175.23735847473145,30.849497042901184L175.81002958085801,30.849497042901184L176.38270068698458,30.849497042901184L176.95537179311117,30.849497042901184L177.52804289923773,31.881848211431244L178.10071400536432,31.881848211431244L178.6733851114909,31.881848211431244L179.24605621761748,31.881848211431244L179.81872732374404,31.881848211431244L180.3913984298706,31.881848211431244L180.96406953599717,31.881848211431244L181.53674064212376,31.881848211431244L182.10941174825032,31.881848211431244L182.68208285437692,31.881848211431244L183.25475396050348,28.799931848649152L183.82742506663007,28.799931848649152L184.4000961727566,28.799931848649152L184.97276727888317,28.799931848649152L185.54543838500976,28.799931848649152L186.11810949113632,28.799931848649152L186.69078059726291,28.799931848649152L187.26345170338948,28.799931848649152L187.83612280951607,28.799931848649152L188.40879391564263,28.799931848649152L188.9814650217692,28.799931848649152L189.55413612789576,27.07984588324028L190.12680723402235,27.07984588324028L190.69947834014891,27.07984588324028L191.2721494462755,27.07984588324028L191.84482055240207,27.07984588324028L192.41749165852866,27.07984588324028L192.99016276465522,27.07984588324028L193.5628338707818,27.07984588324028L194.13550497690835,27.07984588324028L194.70817608303494,27.07984588324028L195.2808471891615,27.07984588324028L195.8535182952881,27.07984588324028L196.42618940141466,27.07984588324028L196.99886050754125,27.07984588324028L197.57153161366782,27.07984588324028L198.14420271979438,27.34322822613689L198.71687382592094,27.34322822613689L199.28954493204753,27.34322822613689L199.8622160381741,30.646663271236953L200.4348871443007,30.646663271236953L201.00755825042725,30.646663271236953L201.58022935655384,30.646663271236953L202.1529004626804,30.646663271236953L202.72557156880694,30.646663271236953L203.29824267493353,30.646663271236953L203.8709137810601,30.646663271236953L204.4435848871867,30.646663271236953L205.01625599331325,30.646663271236953L205.58892709943984,26.483948999010344L206.1615982055664,24.558496549891892L206.73426931169297,24.558496549891892L207.30694041781953,22.949426153319745L207.87961152394612,22.949426153319745L208.4522826300727,22.949426153319745L209.02495373619928,22.949426153319745L209.59762484232584,22.949426153319745L210.17029594845243,22.949426153319745L210.742967054579,22.949426153319745L211.31563816070556,22.949426153319745L211.88830926683212,22.411042527832038L212.46098037295872,22.411042527832038L213.03365147908528,22.411042527832038L213.60632258521187,22.411042527832038L214.17899369133843,22.411042527832038L214.75166479746503,22.411042527832038L215.3243359035916,22.411042527832038L215.89700700971815,22.411042527832038L216.46967811584472,22.411042527832038L217.0423492219713,22.411042527832038L217.61502032809787,22.411042527832038L218.18769143422446,22.411042527832038L218.76036254035103,22.411042527832038L219.33303364647762,22.411042527832038L219.90570475260418,22.411042527832038L220.47837585873074,26.14184562958308L221.0510469648573,26.14184562958308L221.62371807098387,25.564613946185535L222.19638917711046,25.564613946185535L222.76906028323702,25.564613946185535L223.34173138936362,25.564613946185535L223.91440249549018,25.564613946185535L224.48707360161674,25.564613946185535L225.0597447077433,25.564613946185535L225.6324158138699,25.564613946185535L226.20508691999646,20.807520445974063L226.77775802612305,20.807520445974063L227.35042913224962,20.807520445974063L227.9231002383762,20.807520445974063L228.49577134450277,20.807520445974063L229.06844245062933,20.807520445974063" fill="none"></path></g></g></g></g></g></g><g transform="translate(72, 176)" clip-path="url(#clip_1)"><clipPath id="clip_1"><rect width="257" height="23"></rect></clipPath><g><g><line x1="0" y1="0" x2="0" y2="5" style="visibility: inherit;" fill="rgb(0, 0, 0)" stroke="rgb(204, 204, 204)" stroke-width="1px"></line><line x1="28.633555306328667" y1="0" x2="28.633555306328667" y2="5" style="visibility: inherit;" fill="rgb(0, 0, 0)" stroke="rgb(204, 204, 204)" stroke-width="1px"></line><line x1="57.26711061265733" y1="0" x2="57.26711061265733" y2="5" style="visibility: inherit;" fill="rgb(0, 0, 0)" stroke="rgb(204, 204, 204)" stroke-width="1px"></line><line x1="85.900665918986" y1="0" x2="85.900665918986" y2="5" style="visibility: inherit;" fill="rgb(0, 0, 0)" stroke="rgb(204, 204, 204)" stroke-width="1px"></line><line x1="114.53422122531467" y1="0" x2="114.53422122531467" y2="5" style="visibility: inherit;" fill="rgb(0, 0, 0)" stroke="rgb(204, 204, 204)" stroke-width="1px"></line><line x1="143.16777653164334" y1="0" x2="143.16777653164334" y2="5" style="visibility: inherit;" fill="rgb(0, 0, 0)" stroke="rgb(204, 204, 204)" stroke-width="1px"></line><line x1="171.801331837972" y1="0" x2="171.801331837972" y2="5" style="visibility: inherit;" fill="rgb(0, 0, 0)" stroke="rgb(204, 204, 204)" stroke-width="1px"></line><line x1="200.4348871443007" y1="0" x2="200.4348871443007" y2="5" style="visibility: inherit;" fill="rgb(0, 0, 0)" stroke="rgb(204, 204, 204)" stroke-width="1px"></line><line x1="229.06844245062933" y1="0" x2="229.06844245062933" y2="5" style="visibility: inherit;" fill="rgb(0, 0, 0)" stroke="rgb(204, 204, 204)" stroke-width="1px"></line><line x1="257.701997756958" y1="0" x2="257.701997756958" y2="5" style="visibility: inherit;" fill="rgb(0, 0, 0)" stroke="rgb(204, 204, 204)" stroke-width="1px"></line></g><g transform="translate(0, 8)"><text style="text-anchor: middle; visibility: hidden; font-family: Roboto, sans-serif; font-size: 12px; font-weight: 200;" x="0" y="0" dx="0em" dy="0.95em" fill="rgb(255, 255, 255)" stroke="none" stroke-width="1px">-200k</text><text style="text-anchor: middle; visibility: inherit; font-family: Roboto, sans-serif; font-size: 12px; font-weight: 200;" x="28.633555306328667" y="0" dx="0em" dy="0.95em" fill="rgb(255, 255, 255)" stroke="none" stroke-width="1px">0</text><text style="text-anchor: middle; visibility: hidden; font-family: Roboto, sans-serif; font-size: 12px; font-weight: 200;" x="57.26711061265733" y="0" dx="0em" dy="0.95em" fill="rgb(255, 255, 255)" stroke="none" stroke-width="1px">200k</text><text style="text-anchor: middle; visibility: inherit; font-family: Roboto, sans-serif; font-size: 12px; font-weight: 200;" x="85.900665918986" y="0" dx="0em" dy="0.95em" fill="rgb(255, 255, 255)" stroke="none" stroke-width="1px">400k</text><text style="text-anchor: middle; visibility: hidden; font-family: Roboto, sans-serif; font-size: 12px; font-weight: 200;" x="114.53422122531467" y="0" dx="0em" dy="0.95em" fill="rgb(255, 255, 255)" stroke="none" stroke-width="1px">600k</text><text style="text-anchor: middle; visibility: inherit; font-family: Roboto, sans-serif; font-size: 12px; font-weight: 200;" x="143.16777653164334" y="0" dx="0em" dy="0.95em" fill="rgb(255, 255, 255)" stroke="none" stroke-width="1px">800k</text><text style="text-anchor: middle; visibility: hidden; font-family: Roboto, sans-serif; font-size: 12px; font-weight: 200;" x="171.801331837972" y="0" dx="0em" dy="0.95em" fill="rgb(255, 255, 255)" stroke="none" stroke-width="1px">1M</text><text style="text-anchor: middle; visibility: inherit; font-family: Roboto, sans-serif; font-size: 12px; font-weight: 200;" x="200.4348871443007" y="0" dx="0em" dy="0.95em" fill="rgb(255, 255, 255)" stroke="none" stroke-width="1px">1.2M</text><text style="text-anchor: middle; visibility: hidden; font-family: Roboto, sans-serif; font-size: 12px; font-weight: 200;" x="229.06844245062933" y="0" dx="0em" dy="0.95em" fill="rgb(255, 255, 255)" stroke="none" stroke-width="1px">1.4M</text><text style="text-anchor: middle; visibility: hidden; font-family: Roboto, sans-serif; font-size: 12px; font-weight: 200;" x="257.701997756958" y="0" dx="0em" dy="0.95em" fill="rgb(255, 255, 255)" stroke="none" stroke-width="1px">1.6M</text></g><line x1="0" y1="0" x2="257.701997756958" y2="0" fill="rgb(0, 0, 0)" stroke="rgb(204, 204, 204)" stroke-width="1px"></line></g></g></g></g></svg>