<svg viewBox="0 0 330 200" xmlns="http://www.w3.org/2000/svg"><g><g><g><g><g><line x1="51.53200149536133" y1="176.5999994277954" x2="46.53200149536133" y2="176.5999994277954" style="visibility: inherit;" fill="rgb(0, 0, 0)" stroke="rgb(204, 204, 204)" stroke-width="1px"></line><line x1="51.53200149536133" y1="164.82666613260557" x2="46.53200149536133" y2="164.82666613260557" style="visibility: inherit;" fill="rgb(0, 0, 0)" stroke="rgb(204, 204, 204)" stroke-width="1px"></line><line x1="51.53200149536133" y1="153.05333283741572" x2="46.53200149536133" y2="153.05333283741572" style="visibility: inherit;" fill="rgb(0, 0, 0)" stroke="rgb(204, 204, 204)" stroke-width="1px"></line><line x1="51.53200149536133" y1="141.27999954223634" x2="46.53200149536133" y2="141.27999954223634" style="visibility: inherit;" fill="rgb(0, 0, 0)" stroke="rgb(204, 204, 204)" stroke-width="1px"></line><line x1="51.53200149536133" y1="129.5066662470465" x2="46.53200149536133" y2="129.5066662470465" style="visibility: inherit;" fill="rgb(0, 0, 0)" stroke="rgb(204, 204, 204)" stroke-width="1px"></line><line x1="51.53200149536133" y1="117.73333295185664" x2="46.53200149536133" y2="117.73333295185664" style="visibility: inherit;" fill="rgb(0, 0, 0)" stroke="rgb(204, 204, 204)" stroke-width="1px"></line><line x1="51.53200149536133" y1="105.95999965667724" x2="46.53200149536133" y2="105.95999965667724" style="visibility: inherit;" fill="rgb(0, 0, 0)" stroke="rgb(204, 204, 204)" stroke-width="1px"></line><line x1="51.53200149536133" y1="94.18666636148741" x2="46.53200149536133" y2="94.18666636148741" style="visibility: inherit;" fill="rgb(0, 0, 0)" stroke="rgb(204, 204, 204)" stroke-width="1px"></line><line x1="51.53200149536133" y1="82.41333306630801" x2="46.53200149536133" y2="82.41333306630801" style="visibility: inherit;" fill="rgb(0, 0, 0)" stroke="rgb(204, 204, 204)" stroke-width="1px"></line><line x1="51.53200149536133" y1="70.63999977111817" x2="46.53200149536133" y2="70.63999977111817" style="visibility: inherit;" fill="rgb(0, 0, 0)" stroke="rgb(204, 204, 204)" stroke-width="1px"></line><line x1="51.53200149536133" y1="58.86666647592832" x2="46.53200149536133" y2="58.86666647592832" style="visibility: inherit;" fill="rgb(0, 0, 0)" stroke="rgb(204, 204, 204)" stroke-width="1px"></line><line x1="51.53200149536133" y1="47.09333318074892" x2="46.53200149536133" y2="47.09333318074892" style="visibility: inherit;" fill="rgb(0, 0, 0)" stroke="rgb(204, 204, 204)" stroke-width="1px"></line><line x1="51.53200149536133" y1="35.31999988555907" x2="46.53200149536133" y2="35.31999988555907" style="visibility: inherit;" fill="rgb(0, 0, 0)" stroke="rgb(204, 204, 204)" stroke-width="1px"></line><line x1="51.53200149536133" y1="23.546666590369227" x2="46.53200149536133" y2="23.546666590369227" style="visibility: inherit;" fill="rgb(0, 0, 0)" stroke="rgb(204, 204, 204)" stroke-width="1px"></line><line x1="51.53200149536133" y1="11.773333295189849" x2="46.53200149536133" y2="11.773333295189849" style="visibility: inherit;" fill="rgb(0, 0, 0)" stroke="rgb(204, 204, 204)" stroke-width="1px"></line><line x1="51.53200149536133" y1="0" x2="46.53200149536133" y2="0" style="visibility: inherit;" fill="rgb(0, 0, 0)" stroke="rgb(204, 204, 204)" stroke-width="1px"></line></g><g transform="translate(41.53200149536133, 0)"><text style="text-anchor: end; visibility: hidden; font-family: Roboto, sans-serif; font-size: 12px; font-weight: 200;" x="0" y="176.5999994277954" dx="0em" dy="0.3em" fill="rgb(255, 255, 255)" stroke="none" stroke-width="1px">9.9</text><text style="text-anchor: end; visibility: inherit; font-family: Roboto, sans-serif; font-size: 12px; font-weight: 200;" x="0" y="164.82666613260557" dx="0em" dy="0.3em" fill="rgb(255, 255, 255)" stroke="none" stroke-width="1px">9.9</text><text style="text-anchor: end; visibility: hidden; font-family: Roboto, sans-serif; font-size: 12px; font-weight: 200;" x="0" y="153.05333283741572" dx="0em" dy="0.3em" fill="rgb(255, 255, 255)" stroke="none" stroke-width="1px">9.91</text><text style="text-anchor: end; visibility: hidden; font-family: Roboto, sans-serif; font-size: 12px; font-weight: 200;" x="0" y="141.27999954223634" dx="0em" dy="0.3em" fill="rgb(255, 255, 255)" stroke="none" stroke-width="1px">9.91</text><text style="text-anchor: end; visibility: inherit; font-family: Roboto, sans-serif; font-size: 12px; font-weight: 200;" x="0" y="129.5066662470465" dx="0em" dy="0.3em" fill="rgb(255, 255, 255)" stroke="none" stroke-width="1px">9.91</text><text style="text-anchor: end; visibility: hidden; font-family: Roboto, sans-serif; font-size: 12px; font-weight: 200;" x="0" y="117.73333295185664" dx="0em" dy="0.3em" fill="rgb(255, 255, 255)" stroke="none" stroke-width="1px">9.91</text><text style="text-anchor: end; visibility: hidden; font-family: Roboto, sans-serif; font-size: 12px; font-weight: 200;" x="0" y="105.95999965667724" dx="0em" dy="0.3em" fill="rgb(255, 255, 255)" stroke="none" stroke-width="1px">9.91</text><text style="text-anchor: end; visibility: inherit; font-family: Roboto, sans-serif; font-size: 12px; font-weight: 200;" x="0" y="94.18666636148741" dx="0em" dy="0.3em" fill="rgb(255, 255, 255)" stroke="none" stroke-width="1px">9.92</text><text style="text-anchor: end; visibility: hidden; font-family: Roboto, sans-serif; font-size: 12px; font-weight: 200;" x="0" y="82.41333306630801" dx="0em" dy="0.3em" fill="rgb(255, 255, 255)" stroke="none" stroke-width="1px">9.92</text><text style="text-anchor: end; visibility: hidden; font-family: Roboto, sans-serif; font-size: 12px; font-weight: 200;" x="0" y="70.63999977111817" dx="0em" dy="0.3em" fill="rgb(255, 255, 255)" stroke="none" stroke-width="1px">9.92</text><text style="text-anchor: end; visibility: inherit; font-family: Roboto, sans-serif; font-size: 12px; font-weight: 200;" x="0" y="58.86666647592832" dx="0em" dy="0.3em" fill="rgb(255, 255, 255)" stroke="none" stroke-width="1px">9.92</text><text style="text-anchor: end; visibility: hidden; font-family: Roboto, sans-serif; font-size: 12px; font-weight: 200;" x="0" y="47.09333318074892" dx="0em" dy="0.3em" fill="rgb(255, 255, 255)" stroke="none" stroke-width="1px">9.92</text><text style="text-anchor: end; visibility: hidden; font-family: Roboto, sans-serif; font-size: 12px; font-weight: 200;" x="0" y="35.31999988555907" dx="0em" dy="0.3em" fill="rgb(255, 255, 255)" stroke="none" stroke-width="1px">9.93</text><text style="text-anchor: end; visibility: inherit; font-family: Roboto, sans-serif; font-size: 12px; font-weight: 200;" x="0" y="23.546666590369227" dx="0em" dy="0.3em" fill="rgb(255, 255, 255)" stroke="none" stroke-width="1px">9.93</text><text style="text-anchor: end; visibility: hidden; font-family: Roboto, sans-serif; font-size: 12px; font-weight: 200;" x="0" y="11.773333295189849" dx="0em" dy="0.3em" fill="rgb(255, 255, 255)" stroke="none" stroke-width="1px">9.93</text><text style="text-anchor: end; visibility: hidden; font-family: Roboto, sans-serif; font-size: 12px; font-weight: 200;" x="0" y="0" dx="0em" dy="0.3em" fill="rgb(255, 255, 255)" stroke="none" stroke-width="1px">9.93</text></g><line x1="51.53200149536133" y1="0" x2="51.53200149536133" y2="176.5999994277954" fill="rgb(0, 0, 0)" stroke="rgb(204, 204, 204)" stroke-width="1px"></line></g></g><g transform="translate(51, 0)" clip-path="url(#clip_0)"><clipPath id="clip_0"><rect width="278" height="176"></rect></clipPath><g><g><g><line x1="0" y1="0" x2="0" y2="176.5999994277954" fill="rgb(0, 0, 0)" stroke="rgb(189, 189, 189)" stroke-width="1px" opacity="0.25"></line><line x1="30.94088872273763" y1="0" x2="30.94088872273763" y2="176.5999994277954" fill="rgb(0, 0, 0)" stroke="rgb(189, 189, 189)" stroke-width="1px" opacity="0.25"></line><line x1="61.88177744547526" y1="0" x2="61.88177744547526" y2="176.5999994277954" fill="rgb(0, 0, 0)" stroke="rgb(189, 189, 189)" stroke-width="1px" opacity="0.25"></line><line x1="92.82266616821289" y1="0" x2="92.82266616821289" y2="176.5999994277954" fill="rgb(0, 0, 0)" stroke="rgb(189, 189, 189)" stroke-width="1px" opacity="0.25"></line><line x1="123.76355489095052" y1="0" x2="123.76355489095052" y2="176.5999994277954" fill="rgb(0, 0, 0)" stroke="rgb(189, 189, 189)" stroke-width="1px" opacity="0.25"></line><line x1="154.70444361368817" y1="0" x2="154.70444361368817" y2="176.5999994277954" fill="rgb(0, 0, 0)" stroke="rgb(189, 189, 189)" stroke-width="1px" opacity="0.25"></line><line x1="185.64533233642578" y1="0" x2="185.64533233642578" y2="176.5999994277954" fill="rgb(0, 0, 0)" stroke="rgb(189, 189, 189)" stroke-width="1px" opacity="0.25"></line><line x1="216.58622105916342" y1="0" x2="216.58622105916342" y2="176.5999994277954" fill="rgb(0, 0, 0)" stroke="rgb(189, 189, 189)" stroke-width="1px" opacity="0.25"></line><line x1="247.52710978190103" y1="0" x2="247.52710978190103" y2="176.5999994277954" fill="rgb(0, 0, 0)" stroke="rgb(189, 189, 189)" stroke-width="1px" opacity="0.25"></line><line x1="278.4679985046387" y1="0" x2="278.4679985046387" y2="176.5999994277954" fill="rgb(0, 0, 0)" stroke="rgb(189, 189, 189)" stroke-width="1px" opacity="0.25"></line></g><g><line x1="0" y1="176.5999994277954" x2="278.4679985046387" y2="176.5999994277954" fill="rgb(0, 0, 0)" stroke="rgb(189, 189, 189)" stroke-width="1px" opacity="0.25"></line><line x1="0" y1="164.82666613260557" x2="278.4679985046387" y2="164.82666613260557" fill="rgb(0, 0, 0)" stroke="rgb(189, 189, 189)" stroke-width="1px" opacity="0.25"></line><line x1="0" y1="153.05333283741572" x2="278.4679985046387" y2="153.05333283741572" fill="rgb(0, 0, 0)" stroke="rgb(189, 189, 189)" stroke-width="1px" opacity="0.25"></line><line x1="0" y1="141.27999954223634" x2="278.4679985046387" y2="141.27999954223634" fill="rgb(0, 0, 0)" stroke="rgb(189, 189, 189)" stroke-width="1px" opacity="0.25"></line><line x1="0" y1="129.5066662470465" x2="278.4679985046387" y2="129.5066662470465" fill="rgb(0, 0, 0)" stroke="rgb(189, 189, 189)" stroke-width="1px" opacity="0.25"></line><line x1="0" y1="117.73333295185664" x2="278.4679985046387" y2="117.73333295185664" fill="rgb(0, 0, 0)" stroke="rgb(189, 189, 189)" stroke-width="1px" opacity="0.25"></line><line x1="0" y1="105.95999965667724" x2="278.4679985046387" y2="105.95999965667724" fill="rgb(0, 0, 0)" stroke="rgb(189, 189, 189)" stroke-width="1px" opacity="0.25"></line><line x1="0" y1="94.18666636148741" x2="278.4679985046387" y2="94.18666636148741" fill="rgb(0, 0, 0)" stroke="rgb(189, 189, 189)" stroke-width="1px" opacity="0.25"></line><line x1="0" y1="82.41333306630801" x2="278.4679985046387" y2="82.41333306630801" fill="rgb(0, 0, 0)" stroke="rgb(189, 189, 189)" stroke-width="1px" opacity="0.25"></line><line x1="0" y1="70.63999977111817" x2="278.4679985046387" y2="70.63999977111817" fill="rgb(0, 0, 0)" stroke="rgb(189, 189, 189)" stroke-width="1px" opacity="0.25"></line><line x1="0" y1="58.86666647592832" x2="278.4679985046387" y2="58.86666647592832" fill="rgb(0, 0, 0)" stroke="rgb(189, 189, 189)" stroke-width="1px" opacity="0.25"></line><line x1="0" y1="47.09333318074892" x2="278.4679985046387" y2="47.09333318074892" fill="rgb(0, 0, 0)" stroke="rgb(189, 189, 189)" stroke-width="1px" opacity="0.25"></line><line x1="0" y1="35.31999988555907" x2="278.4679985046387" y2="35.31999988555907" fill="rgb(0, 0, 0)" stroke="rgb(189, 189, 189)" stroke-width="1px" opacity="0.25"></line><line x1="0" y1="23.546666590369227" x2="278.4679985046387" y2="23.546666590369227" fill="rgb(0, 0, 0)" stroke="rgb(189, 189, 189)" stroke-width="1px" opacity="0.25"></line><line x1="0" y1="11.773333295189849" x2="278.4679985046387" y2="11.773333295189849" fill="rgb(0, 0, 0)" stroke="rgb(189, 189, 189)" stroke-width="1px" opacity="0.25"></line><line x1="0" y1="0" x2="278.4679985046387" y2="0" fill="rgb(0, 0, 0)" stroke="rgb(189, 189, 189)" stroke-width="1px" opacity="0.25"></line></g></g></g><g><g><line x1="0" y1="58466.37314389326" x2="278.4679985046387" y2="58466.37314389326" fill="rgb(0, 0, 0)" stroke="rgb(153, 153, 153)" stroke-width="1.5px"></line></g></g><g><g><line x1="30.94088872273763" y1="0" x2="30.94088872273763" y2="176.5999994277954" fill="rgb(0, 0, 0)" stroke="rgb(153, 153, 153)" stroke-width="1.5px"></line></g></g><g><g><g><g><g><path style="fill: none;" stroke="rgb(255, 112, 67)" stroke-width="2px" d="M31.55970649719238,-116.56926653920613L32.178524271647134,47.46370876192295L32.79734204610189,14.814648371857704L33.416159820556636,38.890547753337124L34.03497759501139,11.459570356267172L34.653795369466145,17.881957694201315L35.2726131439209,36.82738006961499L35.89143091837565,-7.593394214278632L38.36670201619466,-37.06078085109312L38.98551979064942,17.79723533926388L39.60433756510417,78.15569322215124L40.223155339558915,91.14390908793905L40.84197311401367,33.85098561670533L41.46079088846842,99.42878672410161L42.07960866292318,41.158583423111025L42.698426437377925,89.50979675401553L43.31724421183268,121.8557005247701L43.936061986287434,100.80513692711521L44.55487976074219,220.8055881661685L45.173697535196936,176.92949534797145L45.79251530965169,73.00525444406223L46.411333084106445,145.10357057262897L47.0301508585612,134.06633391472013L47.64896863301595,149.1970092563564L48.2677864074707,166.4111644231466L48.886604181925456,188.75578114310136L50.74305750528971,189.7777469566213L51.36187527974447,161.32221982220184L51.98069305419922,112.0786511116322L52.59951082865397,77.63039839482474L53.21832860310872,105.72432844980925L53.83714637756348,90.16791052630917L54.45596415201823,39.414242207630785L55.07478192647298,46.997762123738966L55.693599700927734,111.56787313452546L56.31241747538249,38.19012031801847L56.93123524983724,53.875822525278686L57.55005302429199,50.24937665511272L58.168870798746745,21.512728372026736L58.7876885732015,-9.097228794085698L60.025324122111,-26.01440086867153L60.64414189656575,19.139166313029L61.26295967102051,21.83526991626332L61.88177744547526,34.049848242646846L62.50059521993001,44.2866279642098L63.11941299438476,29.185460595696284L63.73823076883952,80.7757685841604L64.35704854329427,-26.2634976121983L65.59468409220378,-31.097962988719537L66.21350186665853,16.333797817680047L66.83231964111327,-34.02269211467812L67.45113741556804,8.194761856104948L68.06995519002278,-9.152110899008274L68.68877296447754,24.576740911181098L69.30759073893229,49.65328792319222L69.92640851338705,55.24754837537712L70.5452262878418,78.74700314099229L71.16404406229654,72.2164855357978L71.7828618367513,30.911428369358703L72.40167961120606,48.15676510845958L73.02049738566082,96.2028500864126L73.63931516011556,83.24914439703485L74.25813293457031,49.34953815382716L74.87695070902507,58.3011866665262L75.49576848347982,113.05932923960144L76.11458625793456,100.45458968660216L76.73340403238932,36.49163017076546L77.35222180684408,84.91694713654469L77.97103958129884,113.94069912438233L78.58985735575358,135.2532860791849L79.20867513020833,156.3629766935301L79.82749290466309,63.771479900090554L80.44631067911783,43.721528099775156L81.06512845357258,73.74462949481627L81.68394622802734,76.25497068806641L82.3027640024821,86.20906661199767L82.92158177693685,31.669742034134096L83.5403995513916,9.785586644384333L84.15921732584636,54.12635329512369L84.77803510030111,70.14737063186683L85.39685287475585,86.3103528185195L86.0156706492106,48.45338612004508L86.63448842366536,85.50320838941218L87.25330619812013,126.41861550477047L87.87212397257487,79.22366088943139L88.49094174702962,58.79093746398512L89.10975952148438,94.79566431596642L89.72857729593913,91.91937707304663L90.34739507039387,72.43102645639355L90.96621284484863,114.6118486144726L91.58503061930338,119.09703112474628L92.20384839375815,63.27043808206869L92.82266616821289,74.21012054022445L93.44148394266765,93.45474916755639L94.0603017171224,99.68398078826023L94.67911949157715,122.4169242605014L95.2979372660319,131.97197101707474L95.91675504048665,113.987129071373L96.5355728149414,108.63952222615022L97.15439058939617,81.40095178819443L97.77320836385091,69.52652390709213L98.39202613830567,105.51934699884713L99.01084391276042,122.30724311964929L99.62966168721516,126.51002129779542L100.24847946166992,146.87286195465492L100.86729723612467,140.2254057857167L101.48611501057943,121.07249579316104L102.10493278503417,128.3942619030122L102.72375055948893,128.55214803933453L103.34256833394369,91.5677782787741L103.96138610839844,126.04898800558503L104.58020388285318,121.92175272008511L105.19902165730794,90.45266211066236L105.81783943176269,124.95325713259157L106.43665720621745,146.07802973275074L107.05547498067219,152.64265619106652L107.67429275512696,167.539887434201L108.29311052958171,138.52783771254573L108.91192830403646,126.59983556361986L109.5307460784912,135.28788285574126L110.14956385294596,152.36413740107088L110.76838162740071,131.20538227510244L111.38719940185547,140.00936110414858L112.00601717631021,165.18089577771855L112.62483495076498,151.31576858002254L113.24365272521973,153.99781374675985L113.86247049967449,145.65909878105126L114.48128827412923,134.7701912114844L115.10010604858398,157.42496201299366L115.71892382303874,147.6165819956627L116.33774159749349,136.37583348260216L116.95655937194823,133.25575875267492L117.575377146403,138.97603719333674L118.19419492085775,128.12852850241342L118.81301269531251,164.41189326638838L119.43183046976725,162.08902941068723L120.050648244222,123.58477146327867L120.66946601867676,125.58561271130947L121.2882837931315,121.61902610723705L121.90710156758625,125.82986646149388L122.52591934204102,130.6693233439646L123.14473711649578,142.9236138982277L123.76355489095052,103.17728599895946L124.38237266540527,133.09104253164625L125.00119043986003,139.2432378347026L125.62000821431478,131.2036183683443L126.23882598876952,165.4552732993822L126.85764376322427,158.57644406091595L127.47646153767904,172.39361718316755L128.09527931213378,168.52632323620423L128.71409708658854,163.04416302410215L129.3329148610433,150.918489463725L129.95173263549805,149.74658567393544L130.5705504099528,160.63290818591292L131.18936818440756,150.96954183346904L131.8081859588623,174.5415297596844L132.42700373331706,169.85324572909977L133.04582150777182,135.85583479899427L133.66463928222655,140.08022904248844L134.2834570566813,154.6534473977393L134.90227483113608,150.56161388541824L135.52109260559084,143.6467817368097L136.13991038004556,139.56300441602494L136.75872815450032,137.07456307657074L137.37754592895507,153.41144409728793L137.99636370340983,163.18438010320475L138.61518147786458,145.47398915454963L139.23399925231934,152.63054312230975L139.8528170267741,162.29816068655708L140.47163480122884,144.90183697246752L141.0904525756836,157.94837189155587L141.70927035013833,165.51355938438746L142.32808812459308,162.65796009171342L142.94690589904783,156.90254730655167L143.5657236735026,153.49870250801385L144.18454144795737,145.3528952824565L144.80335922241213,169.92524208945434L145.42217699686688,155.33008062760968L146.04099477132164,145.75559076812527L146.65981254577636,158.09683938009016L147.27863032023112,166.06298482637035L147.89744809468587,164.63362924723828L148.51626586914062,169.31362879685955L149.13508364359538,172.13510203732667L149.75390141805013,133.9868148460459L150.3727191925049,138.11223148183672L150.99153696695964,141.31954221126475L151.61035474141437,133.49584365853212L152.22917251586912,133.39160050486515L152.84799029032388,150.73683043516104L153.46680806477863,132.0119926780018L154.08562583923342,132.3126607667696L154.70444361368817,144.71578140870827L155.32326138814292,134.07171126621176L155.94207916259768,151.46826114872957L156.5608969370524,144.20873477572158L157.17971471150716,152.96049927647962L157.7985324859619,156.5835087675265L158.41735026041667,175.81927017672174L159.03616803487142,152.79218974004473L159.65498580932618,158.50579523555749L160.27380358378093,162.84791167525512L160.89262135823566,144.30201532749606L161.5114391326904,151.7836413786287L162.13025690714517,162.22566315294057L162.74907468159992,144.51027275925642L163.36789245605468,178.1460123379539L163.98671023050946,153.6919607260527L164.6055280049642,145.03320670069186L165.22434577941897,149.6623891698127L165.8431635538737,160.37579645273055L166.46198132832845,145.74698918579335L167.0807991027832,158.10964311162866L167.69961687723796,165.78323217039565L168.3184346516927,152.95041717664836L168.93725242614747,162.47212043823097L169.55607020060222,171.3334527284082L170.17488797505698,144.37445722417664L170.7937057495117,150.92662688495187L171.41252352396646,149.86599296761537L172.0313412984212,147.7407896850174L172.65015907287597,142.02839152541108L173.26897684733072,150.44865970388074L173.8877946217855,131.8682828457429L174.50661239624026,115.56194771844127L175.125430170695,138.2178692338886L175.74424794514974,128.1654108672409L176.3630657196045,123.82486143990958L176.98188349405925,145.31790566784022L177.600701268514,140.60834489184484L178.21951904296876,158.46669293361992L178.8383368174235,135.4125927779266L179.45715459187826,134.17112843228594L180.075972366333,133.40154838862298L180.69479014078775,133.15986770383248L181.3136079152425,115.47234836347258L181.93242568969725,140.38948447128354L182.551243464152,155.4497998066706L183.17006123860676,134.8083361092776L183.78887901306155,157.31311384468222L184.4076967875163,141.84119572873144L185.02651456197103,108.78403523161305L185.64533233642578,124.55798212443948L186.26415011088054,134.15483978200842L186.8829678853353,116.11424331270659L187.50178565979004,140.94753149479052L188.1206034342448,157.41492281530122L188.73942120869955,124.02068682904175L189.3582389831543,144.99751180361307L189.97705675760903,145.88635391691432L190.5958745320638,140.76078469151403L191.21469230651854,149.7419896463408L191.8335100809733,171.31464455328933L192.45232785542805,155.0880868351404L193.0711456298828,158.37430029438354L193.6899634043376,166.29458334332892L194.30878117879234,158.9520317356521L194.92759895324707,164.575283900984L195.54641672770182,153.62913891276088L196.16523450215658,162.63009353197774L196.78405227661133,168.76946380681065L197.4028700510661,160.6278347486412L198.02168782552084,143.65936380226086L198.6405055999756,144.90381830678714L199.25932337443032,174.14696613689858L199.87814114888508,127.48933077134767L200.49695892333983,143.78442480320362L201.1157766977946,128.36377063095574L201.73459447224934,128.64613253193008L202.3534122467041,163.23812392214143L202.97223002115885,170.20093497120925L203.59104779561363,155.41465529246304L204.20986557006833,157.98189806826835L204.8286833445231,152.37454630818698L205.44750111897787,143.14466692804424L206.06631889343262,143.30827991054326L206.68513666788738,143.40869328517584L207.30395444234213,118.91346806186962L207.9227722167969,105.88480266939153L208.54158999125164,120.06984640460203L209.16040776570637,90.11849077165655L209.77922554016112,110.18788926408209L210.39804331461588,140.01456248159238L211.01686108907063,101.22526131826537L211.63567886352538,118.14316303398577L212.25449663798014,133.51039828886812L212.8733144124349,114.58906676278815L213.49213218688968,131.6114813782637L214.11094996134437,136.9385369342025L214.72976773579916,111.4586483310584L215.3485855102539,129.88593010713626L215.96740328470867,147.47919744668707L216.58622105916342,147.37985647299155L217.20503883361818,135.60952550663836L217.82385660807293,131.7630048135363L218.44267438252768,131.5996261838621L219.0614921569824,137.919481268783L219.68030993143717,141.30718899877954L220.29912770589192,130.91274560251557L220.91794548034667,136.28800020176632L221.53676325480143,132.55408468552332L222.15558102925618,118.82307633504887L222.77439880371094,147.83648282108874L223.39321657816566,152.1235728774534L224.01203435262042,118.56660797316485L224.6308521270752,147.3794478132393L225.24966990152996,146.8147500417259L225.8684876759847,149.43336697714753L226.48730545043946,142.5229621536751L227.10612322489422,155.60260268766592L227.72494099934897,130.68056340411187L228.3437587738037,143.0448827752515L228.96257654825845,144.60474282919478L229.5813943227132,142.78757150882547L230.20021209716796,144.4615839949192L230.81902987162272,132.68412100390842L231.43784764607747,113.67337597504769L232.05666542053223,137.32275821019107L232.67548319498698,135.71245067214323L233.2943009694417,129.54998218991224L233.91311874389646,124.36816933861667L234.53193651835124,140.08831282904092L235.150754292806,151.9748234555425L235.76957206726075,125.41397074464548L236.3883898417155,145.87165709996074L237.00720761617026,143.95192539224098L237.62602539062502,150.94482358486707L238.24484316507974,150.546095352254L238.8636609395345,153.20141762775398L239.48247871398925,150.27200256858032L240.101296488444,154.81097419951888L240.72011426289876,156.63387754639473L241.33893203735352,163.55940410186787L241.95774981180827,151.44545586667735L242.576567586263,126.13156492999477L243.19538536071775,122.29690871661631L243.8142031351725,114.14861134542876L244.4330209096273,98.00476031921188L245.05183868408204,128.13042823252098L245.6706564585368,134.4995937686013L246.28947423299155,118.00528454198083L246.9082920074463,121.60915672593683L247.52710978190103,154.65950331268704" fill="none"></path></g></g></g></g><g opacity="0.2"><g><g><g><path style="fill: none;" stroke="rgb(255, 112, 67)" stroke-width="2px" d="M31.55970649719238,-116.56926653920613L32.178524271647134,145.8834939426004L32.79734204610189,-16.528449602611616L33.416159820556636,67.203805425969L34.03497759501139,-24.354313733341844L34.653795369466145,26.7664314420021L35.2726131439209,63.919637193202L35.89143091837565,-72.35930955965046L36.51024869283041,-46.49578298126155L37.129066467285156,3.5583092637820357L37.74788424173991,-113.59948022273818L38.36670201619466,-13.109546262859341L38.98551979064942,99.90513868386253L39.60433756510417,168.57513154404344L40.223155339558915,110.61096572640383L40.84197311401367,-52.04799218161462L42.07960866292318,-46.23192673008196L42.698426437377925,162.02925092967368L43.31724421183268,170.37159963718094L43.936061986287434,69.23044599353975L44.55487976074219,400.8023163588115L45.173697535196936,111.11622237759873L45.79251530965169,-82.87987583008696L46.411333084106445,253.25053232152123L47.0301508585612,117.51052599661003L47.64896863301595,171.89298355355675L48.2677864074707,192.23237074554788L50.12423973083496,286.48519204456494L50.74305750528971,128.95178216477947L51.36187527974447,118.63893251761203L51.98069305419922,38.2133015729626L52.59951082865397,25.958020800090214L53.21832860310872,147.8652228078427L53.83714637756348,66.83328388175937L54.45596415201823,-36.7162597992443L55.07478192647298,58.37304195563997L55.693599700927734,208.4230394349496L56.31241747538249,-71.87650875961977L56.93123524983724,77.40437581731535L57.55005302429199,44.809707852451865L58.168870798746745,-21.59224404014295L60.025324122111,-33.43770552926834L60.64414189656575,86.86951708303356L61.26295967102051,25.879425321015454L61.88177744547526,52.371715732002514L62.50059521993001,59.641797546418324L63.11941299438476,6.533709543041008L63.73823076883952,158.161230566637L64.35704854329427,-186.82239690646443L64.97586631774902,-122.99163997217268L65.59468409220378,19.68722436248214L66.21350186665853,87.48143902725852L66.83231964111327,-109.55742701317881L67.45113741556804,71.52094281229004L68.06995519002278,-35.17242003170423L68.68877296447754,75.17001862647558L69.30759073893229,87.26810844119845L69.92640851338705,63.63893905364926L70.5452262878418,113.9961852894098L71.16404406229654,62.4207091279904L71.7828618367513,-31.046157380279034L72.40167961120606,74.02477021710044L73.02049738566082,168.27197755332648L73.63931516011556,63.81858586296301L74.25813293457031,-1.499871210958257L74.87695070902507,71.72865943555907L75.49576848347982,195.19654309922475L76.11458625793456,81.54748035711371L76.73340403238932,-59.45280910301577L77.35222180684408,157.55492258520312L77.97103958129884,157.4763271061283L78.58985735575358,167.22216651139925L79.20867513020833,188.02751261504793L79.82749290466309,-75.1157652900583L80.44631067911783,13.646600399307294L81.06512845357258,118.77928158738838L81.68394622802734,80.02048247794684L82.3027640024821,101.14021049789456L82.92158177693685,-50.13924483265605L83.5403995513916,-23.040646440235076L84.15921732584636,120.63750327122749L84.77803510030111,94.17889663698675L85.39685287475585,110.55482609849327L86.0156706492106,-8.332063927671806L86.63448842366536,141.0779417934576L87.25330619812013,187.79172617782362L87.87212397257487,8.431228966417498L88.49094174702962,28.141852325810504L89.10975952148438,148.80275459394883L89.72857729593913,87.60494620866172L90.34739507039387,43.19850053141917L90.96621284484863,177.8830818516121L91.58503061930338,125.82480489016201L92.20384839375815,-20.469451481932037L92.82266616821289,90.61964422745808L93.44148394266765,122.3216921085439L94.0603017171224,109.02782821932638L94.67911949157715,156.51633946885798L95.2979372660319,146.3045411519295L95.91675504048665,87.0098661528099L96.5355728149414,100.61811195832648L97.15439058939617,40.54309613125029L97.77320836385091,51.71488208544911L98.39202613830567,159.50858163649013L99.01084391276042,147.48908730084204L99.62966168721516,132.8141885650251L100.24847946166992,177.41712293995457L100.86729723612467,130.25422153230414L101.48611501057943,92.34313080431188L102.10493278503417,139.37691106776802L102.72375055948893,128.78897724383887L103.34256833394369,36.091223637943926L103.96138610839844,177.77080259579103L104.58020388285318,115.7308997918457L105.19902165730794,43.249026196538644L105.81783943176269,176.7041496654906L106.43665720621745,177.76518863299995L107.05547498067219,162.48959587854017L107.67429275512696,189.88573429888703L108.29311052958171,95.00976313006285L108.91192830403646,108.70783234023628L109.5307460784912,148.31995379391813L110.14956385294596,177.97851921906005L110.76838162740071,99.46724958616028L111.38719940185547,153.2153293477178L112.00601717631021,202.93819778808916L112.62483495076498,130.51807778348373L113.24365272521973,158.02088149686062L113.86247049967449,133.15102633248839L114.48128827412923,118.43682985713406L115.10010604858398,191.40711821526284L115.71892382303874,132.904011969682L116.33774159749349,119.51471071301656L116.95655937194823,128.5756466577788L117.575377146403,147.5564548543347L118.19419492085775,111.85726546601795L118.81301269531251,218.83694041235603L119.43183046976725,158.60473362713032L120.050648244222,65.82838454216059L120.66946601867676,128.58687458336092L121.2882837931315,115.66914620114407L121.90710156758625,132.1461269928896L122.52591934204102,137.9285086676759L123.14473711649578,161.30504972962763L123.76355489095052,43.557794150046654L124.38237266540527,177.96167733068688L125.00119043986003,148.4715307892766L125.62000821431478,119.14418916880693L126.23882598876952,216.83275569594952L126.85764376322427,148.25820020321655L127.47646153767904,193.1193768665345L128.09527931213378,162.72538231576448L128.71409708658854,154.82092270595945L129.3329148610433,132.7299791231593L129.95173263549805,147.9887299892459L130.5705504099528,176.96239195387912L131.18936818440756,136.47449230479276L131.8081859588623,209.89951164899696L132.42700373331706,162.8208196832124L133.04582150777182,84.85971840383597L133.66463928222655,146.41682040775058L134.2834570566813,176.51327493059475L134.90227483113608,144.42386361692618L135.52109260559084,133.27453351389158L136.13991038004556,133.43733843483216L136.75872815450032,133.34190106738424L137.37754592895507,177.91676562835843L137.99636370340983,177.84378411207473L138.61518147786458,118.90840273158264L139.23399925231934,163.36537407394468L139.8528170267741,176.79958703293855L140.47163480122884,118.80735140134365L141.0904525756836,177.51817427019355L141.70927035013833,176.86134062364013L142.32808812459308,158.37456115269708L142.94690589904783,148.26942812879864L143.5657236735026,148.39293531020184L144.18454144795737,133.13418444411522L144.80335922241213,206.7837622999616L145.42217699686688,133.43733843483216L146.04099477132164,131.39385597888827L146.65981254577636,176.60871229804272L147.27863032023112,178.01220299580638L147.89744809468587,162.48959587854017L148.51626586914062,176.333628121281L149.13508364359538,176.36731189802734L149.75390141805013,76.76438405913512L150.3727191925049,144.30035643552299L150.99153696695964,146.1305083054068L151.61035474141437,121.76029582943842L152.22917251586912,133.23523577435418L152.84799029032388,176.7546753306101L153.46680806477863,103.92473604225768L154.08562583923342,132.76366289990563L154.70444361368817,163.32046237161626L155.32326138814292,118.10560605246182L155.94207916259768,177.56308597252198L156.5608969370524,133.31944521622L157.17971471150716,166.0881460276062L157.7985324859619,162.01802300409156L158.41735026041667,204.67291229052506L159.03616803487142,118.25156908502925L159.65498580932618,167.07620347883184L160.27380358378093,169.3610863347911L160.89262135823566,116.48317080584702L161.5114391326904,163.00608045531717L162.13025690714517,177.88869581440315L162.74907468159992,117.93718716873019L163.36789245605468,228.5996217060001L163.98671023050946,117.01088330820616L164.6055280049642,132.04507566265062L165.22434577941897,156.60616287351485L165.8431635538737,176.4459073771021L166.46198132832845,123.80377828538231L167.0807991027832,176.6536240003711L167.69961687723796,177.29361575855137L168.3184346516927,133.70119468601175L168.93725242614747,176.7546753306101L169.55607020060222,184.6254511636688L170.17488797505698,103.9359639678398L170.7937057495117,160.75488137610427L171.41252352396646,148.2750420915897L172.0313412984212,144.55298476112043L172.65015907287597,133.4597942859964L173.26897684733072,163.0790619716009L173.8877946217855,103.9977175585414L174.50661239624026,91.10244502748877L175.125430170695,172.20175150706476L175.74424794514974,113.08672331725894L176.3630657196045,117.3140372989231L176.98188349405925,177.55747200973093L177.600701268514,133.5440037278622L178.21951904296876,185.2542149962669L178.8383368174235,100.83144254438656L179.45715459187826,132.30893191383018L180.075972366333,132.24717832312857L180.69479014078775,132.79734667665193L181.3136079152425,88.94106935293273L181.93242568969725,177.76518863299995L182.551243464152,178.04027280976163L183.17006123860676,103.84614056318294L183.78887901306155,191.07028044779955L184.4076967875163,118.63331855482095L185.02651456197103,59.198294485925025L185.64533233642578,148.21890246367914L186.26415011088054,148.5501262683514L186.8829678853353,89.05334860875382L187.50178565979004,178.19746376791116L188.1206034342448,182.11600979606732L188.73942120869955,73.9293328496525L189.3582389831543,176.46274926547525L189.97705675760903,147.2196170868714L190.5958745320638,133.07243085341364L191.21469230651854,163.2137970785862L191.8335100809733,203.6736269137173L192.45232785542805,130.74825025791696L193.0711456298828,163.3036204832431L193.6899634043376,178.17500791674695L194.30878117879234,147.93820432412642L194.92759895324707,173.01016214897663L195.54641672770182,137.2099214304209L196.16523450215658,176.13152546080306L196.78405227661133,177.97851921906005L197.4028700510661,148.41539116136607L198.02168782552084,118.20665738270081L198.6405055999756,146.77050006358704L199.25932337443032,218.011687882071L199.87814114888508,57.50287772302651L200.49695892333983,168.22706585099806L201.1157766977946,105.23278937257345L201.73459447224934,129.06967538339163L202.3534122467041,215.12611100746886L202.97223002115885,180.645151544811L203.59104779561363,133.23523577435418L204.20986557006833,161.83276223198675L204.8286833445231,143.9635186680597L205.44750111897787,129.29984785782486L206.06631889343262,143.55369938431272L206.68513666788738,143.55931334710374L207.30395444234213,82.17063022692078L207.9227722167969,86.3418045806744L208.54158999125164,141.3474120074282L209.16040776570637,45.19145732224357L209.77922554016112,140.29198700270993L210.39804331461588,184.75457230786301L211.01686108907063,43.04130957326963L211.63567886352538,143.5200156075664L212.25449663798014,156.5612511711864L212.8733144124349,86.2070694736891L213.49213218688968,157.14510330145612L214.11094996134437,144.9291202681211L214.72976773579916,73.23881542635279L215.3485855102539,157.5268527712478L215.96740328470867,173.869098456008L216.58622105916342,147.23084501245353L217.20503883361818,117.95402905710336L217.82385660807293,125.99322377389365L218.44267438252768,131.3545582393509L219.0614921569824,147.39926389618518L219.68030993143717,146.38875059379532L220.29912770589192,115.3210805080987L220.91794548034667,144.35088210064248L221.53676325480143,126.95321141116399L222.15558102925618,98.2265638093372L222.77439880371094,191.35659255014335L223.39321657816566,158.55420796201082L224.01203435262042,68.23116061673201L224.6308521270752,190.59870757335096L225.24966990152996,145.96770338446623L225.8684876759847,153.36129238028525L226.48730545043946,132.1573549184717L227.10612322489422,175.22206348865217L227.72494099934897,93.29750447879117L228.3437587738037,161.5913618319714L228.96257654825845,146.94453291010973L229.5813943227132,140.0618145282767L230.20021209716796,146.972602724065L230.81902987162272,115.01792651738174L231.43784764607747,85.15725843176187L232.05666542053223,172.79683156291657L232.67548319498698,133.2969893650558L233.2943009694417,120.30627946655525L233.91311874389646,116.5954500616681L234.53193651835124,163.66852806466164L235.150754292806,169.8045893952844L235.76957206726075,85.57269167829993L236.3883898417155,176.5581866329232L237.00720761617026,141.07232783066655L237.62602539062502,161.4341708738219L238.24484316507974,149.948003003324L238.8636609395345,157.1844010409935L239.48247871398925,145.87787997980936L240.101296488444,161.61943164592668L240.72011426289876,159.36823256671374L241.33893203735352,173.94769393508275L241.95774981180827,133.27453351389158L242.576567586263,88.16072852497614L243.19538536071775,116.54492439654861L243.8142031351725,101.92616528864222L244.4330209096273,73.78898377987613L245.05183868408204,173.31893010248464L245.6706564585368,144.05334207271656L246.28947423299155,93.26382070204484L246.9082920074463,127.0149650018656L247.52710978190103,204.23502319282278" fill="none"></path></g></g></g></g></g></g><g transform="translate(51, 176)" clip-path="url(#clip_1)"><clipPath id="clip_1"><rect width="278" height="23"></rect></clipPath><g><g><line x1="0" y1="0" x2="0" y2="5" style="visibility: inherit;" fill="rgb(0, 0, 0)" stroke="rgb(204, 204, 204)" stroke-width="1px"></line><line x1="30.94088872273763" y1="0" x2="30.94088872273763" y2="5" style="visibility: inherit;" fill="rgb(0, 0, 0)" stroke="rgb(204, 204, 204)" stroke-width="1px"></line><line x1="61.88177744547526" y1="0" x2="61.88177744547526" y2="5" style="visibility: inherit;" fill="rgb(0, 0, 0)" stroke="rgb(204, 204, 204)" stroke-width="1px"></line><line x1="92.82266616821289" y1="0" x2="92.82266616821289" y2="5" style="visibility: inherit;" fill="rgb(0, 0, 0)" stroke="rgb(204, 204, 204)" stroke-width="1px"></line><line x1="123.76355489095052" y1="0" x2="123.76355489095052" y2="5" style="visibility: inherit;" fill="rgb(0, 0, 0)" stroke="rgb(204, 204, 204)" stroke-width="1px"></line><line x1="154.70444361368817" y1="0" x2="154.70444361368817" y2="5" style="visibility: inherit;" fill="rgb(0, 0, 0)" stroke="rgb(204, 204, 204)" stroke-width="1px"></line><line x1="185.64533233642578" y1="0" x2="185.64533233642578" y2="5" style="visibility: inherit;" fill="rgb(0, 0, 0)" stroke="rgb(204, 204, 204)" stroke-width="1px"></line><line x1="216.58622105916342" y1="0" x2="216.58622105916342" y2="5" style="visibility: inherit;" fill="rgb(0, 0, 0)" stroke="rgb(204, 204, 204)" stroke-width="1px"></line><line x1="247.52710978190103" y1="0" x2="247.52710978190103" y2="5" style="visibility: inherit;" fill="rgb(0, 0, 0)" stroke="rgb(204, 204, 204)" stroke-width="1px"></line><line x1="278.4679985046387" y1="0" x2="278.4679985046387" y2="5" style="visibility: inherit;" fill="rgb(0, 0, 0)" stroke="rgb(204, 204, 204)" stroke-width="1px"></line></g><g transform="translate(0, 8)"><text style="text-anchor: middle; visibility: hidden; font-family: Roboto, sans-serif; font-size: 12px; font-weight: 200;" x="0" y="0" dx="0em" dy="0.95em" fill="rgb(255, 255, 255)" stroke="none" stroke-width="1px">-200k</text><text style="text-anchor: middle; visibility: inherit; font-family: Roboto, sans-serif; font-size: 12px; font-weight: 200;" x="30.94088872273763" y="0" dx="0em" dy="0.95em" fill="rgb(255, 255, 255)" stroke="none" stroke-width="1px">0</text><text style="text-anchor: middle; visibility: hidden; font-family: Roboto, sans-serif; font-size: 12px; font-weight: 200;" x="61.88177744547526" y="0" dx="0em" dy="0.95em" fill="rgb(255, 255, 255)" stroke="none" stroke-width="1px">200k</text><text style="text-anchor: middle; visibility: inherit; font-family: Roboto, sans-serif; font-size: 12px; font-weight: 200;" x="92.82266616821289" y="0" dx="0em" dy="0.95em" fill="rgb(255, 255, 255)" stroke="none" stroke-width="1px">400k</text><text style="text-anchor: middle; visibility: hidden; font-family: Roboto, sans-serif; font-size: 12px; font-weight: 200;" x="123.76355489095052" y="0" dx="0em" dy="0.95em" fill="rgb(255, 255, 255)" stroke="none" stroke-width="1px">600k</text><text style="text-anchor: middle; visibility: inherit; font-family: Roboto, sans-serif; font-size: 12px; font-weight: 200;" x="154.70444361368817" y="0" dx="0em" dy="0.95em" fill="rgb(255, 255, 255)" stroke="none" stroke-width="1px">800k</text><text style="text-anchor: middle; visibility: hidden; font-family: Roboto, sans-serif; font-size: 12px; font-weight: 200;" x="185.64533233642578" y="0" dx="0em" dy="0.95em" fill="rgb(255, 255, 255)" stroke="none" stroke-width="1px">1M</text><text style="text-anchor: middle; visibility: inherit; font-family: Roboto, sans-serif; font-size: 12px; font-weight: 200;" x="216.58622105916342" y="0" dx="0em" dy="0.95em" fill="rgb(255, 255, 255)" stroke="none" stroke-width="1px">1.2M</text><text style="text-anchor: middle; visibility: hidden; font-family: Roboto, sans-serif; font-size: 12px; font-weight: 200;" x="247.52710978190103" y="0" dx="0em" dy="0.95em" fill="rgb(255, 255, 255)" stroke="none" stroke-width="1px">1.4M</text><text style="text-anchor: middle; visibility: hidden; font-family: Roboto, sans-serif; font-size: 12px; font-weight: 200;" x="278.4679985046387" y="0" dx="0em" dy="0.95em" fill="rgb(255, 255, 255)" stroke="none" stroke-width="1px">1.6M</text></g><line x1="0" y1="0" x2="278.4679985046387" y2="0" fill="rgb(0, 0, 0)" stroke="rgb(204, 204, 204)" stroke-width="1px"></line></g></g></g></g></svg>