<svg viewBox="0 0 330 200" xmlns="http://www.w3.org/2000/svg"><g><g><g><g><g><line x1="30.766000747680664" y1="176.5999994277954" x2="25.766000747680664" y2="176.5999994277954" style="visibility: inherit;" fill="rgb(0, 0, 0)" stroke="rgb(204, 204, 204)" stroke-width="1px"></line><line x1="30.766000747680664" y1="154.52499949932098" x2="25.766000747680664" y2="154.52499949932098" style="visibility: inherit;" fill="rgb(0, 0, 0)" stroke="rgb(204, 204, 204)" stroke-width="1px"></line><line x1="30.766000747680664" y1="132.44999957084656" x2="25.766000747680664" y2="132.44999957084656" style="visibility: inherit;" fill="rgb(0, 0, 0)" stroke="rgb(204, 204, 204)" stroke-width="1px"></line><line x1="30.766000747680664" y1="110.37499964237213" x2="25.766000747680664" y2="110.37499964237213" style="visibility: inherit;" fill="rgb(0, 0, 0)" stroke="rgb(204, 204, 204)" stroke-width="1px"></line><line x1="30.766000747680664" y1="88.2999997138977" x2="25.766000747680664" y2="88.2999997138977" style="visibility: inherit;" fill="rgb(0, 0, 0)" stroke="rgb(204, 204, 204)" stroke-width="1px"></line><line x1="30.766000747680664" y1="66.22499978542328" x2="25.766000747680664" y2="66.22499978542328" style="visibility: inherit;" fill="rgb(0, 0, 0)" stroke="rgb(204, 204, 204)" stroke-width="1px"></line><line x1="30.766000747680664" y1="44.14999985694885" x2="25.766000747680664" y2="44.14999985694885" style="visibility: inherit;" fill="rgb(0, 0, 0)" stroke="rgb(204, 204, 204)" stroke-width="1px"></line><line x1="30.766000747680664" y1="22.074999928474426" x2="25.766000747680664" y2="22.074999928474426" style="visibility: inherit;" fill="rgb(0, 0, 0)" stroke="rgb(204, 204, 204)" stroke-width="1px"></line><line x1="30.766000747680664" y1="0" x2="25.766000747680664" y2="0" style="visibility: inherit;" fill="rgb(0, 0, 0)" stroke="rgb(204, 204, 204)" stroke-width="1px"></line></g><g transform="translate(20.766000747680664, 0)"><text style="text-anchor: end; visibility: hidden; font-family: Roboto, sans-serif; font-size: 12px; font-weight: 200;" x="0" y="176.5999994277954" dx="0em" dy="0.3em" fill="rgb(255, 255, 255)" stroke="none" stroke-width="1px">2</text><text style="text-anchor: end; visibility: inherit; font-family: Roboto, sans-serif; font-size: 12px; font-weight: 200;" x="0" y="154.52499949932098" dx="0em" dy="0.3em" fill="rgb(255, 255, 255)" stroke="none" stroke-width="1px">3</text><text style="text-anchor: end; visibility: hidden; font-family: Roboto, sans-serif; font-size: 12px; font-weight: 200;" x="0" y="132.44999957084656" dx="0em" dy="0.3em" fill="rgb(255, 255, 255)" stroke="none" stroke-width="1px">4</text><text style="text-anchor: end; visibility: inherit; font-family: Roboto, sans-serif; font-size: 12px; font-weight: 200;" x="0" y="110.37499964237213" dx="0em" dy="0.3em" fill="rgb(255, 255, 255)" stroke="none" stroke-width="1px">5</text><text style="text-anchor: end; visibility: hidden; font-family: Roboto, sans-serif; font-size: 12px; font-weight: 200;" x="0" y="88.2999997138977" dx="0em" dy="0.3em" fill="rgb(255, 255, 255)" stroke="none" stroke-width="1px">6</text><text style="text-anchor: end; visibility: inherit; font-family: Roboto, sans-serif; font-size: 12px; font-weight: 200;" x="0" y="66.22499978542328" dx="0em" dy="0.3em" fill="rgb(255, 255, 255)" stroke="none" stroke-width="1px">7</text><text style="text-anchor: end; visibility: hidden; font-family: Roboto, sans-serif; font-size: 12px; font-weight: 200;" x="0" y="44.14999985694885" dx="0em" dy="0.3em" fill="rgb(255, 255, 255)" stroke="none" stroke-width="1px">8</text><text style="text-anchor: end; visibility: inherit; font-family: Roboto, sans-serif; font-size: 12px; font-weight: 200;" x="0" y="22.074999928474426" dx="0em" dy="0.3em" fill="rgb(255, 255, 255)" stroke="none" stroke-width="1px">9</text><text style="text-anchor: end; visibility: hidden; font-family: Roboto, sans-serif; font-size: 12px; font-weight: 200;" x="0" y="0" dx="0em" dy="0.3em" fill="rgb(255, 255, 255)" stroke="none" stroke-width="1px">10</text></g><line x1="30.766000747680664" y1="0" x2="30.766000747680664" y2="176.5999994277954" fill="rgb(0, 0, 0)" stroke="rgb(204, 204, 204)" stroke-width="1px"></line></g></g><g transform="translate(30, 0)" clip-path="url(#clip_0)"><clipPath id="clip_0"><rect width="299" height="176"></rect></clipPath><g><g><g><line x1="0" y1="0" x2="0" y2="176.5999994277954" fill="rgb(0, 0, 0)" stroke="rgb(189, 189, 189)" stroke-width="1px" opacity="0.25"></line><line x1="33.24822213914659" y1="0" x2="33.24822213914659" y2="176.5999994277954" fill="rgb(0, 0, 0)" stroke="rgb(189, 189, 189)" stroke-width="1px" opacity="0.25"></line><line x1="66.49644427829318" y1="0" x2="66.49644427829318" y2="176.5999994277954" fill="rgb(0, 0, 0)" stroke="rgb(189, 189, 189)" stroke-width="1px" opacity="0.25"></line><line x1="99.74466641743977" y1="0" x2="99.74466641743977" y2="176.5999994277954" fill="rgb(0, 0, 0)" stroke="rgb(189, 189, 189)" stroke-width="1px" opacity="0.25"></line><line x1="132.99288855658637" y1="0" x2="132.99288855658637" y2="176.5999994277954" fill="rgb(0, 0, 0)" stroke="rgb(189, 189, 189)" stroke-width="1px" opacity="0.25"></line><line x1="166.24111069573297" y1="0" x2="166.24111069573297" y2="176.5999994277954" fill="rgb(0, 0, 0)" stroke="rgb(189, 189, 189)" stroke-width="1px" opacity="0.25"></line><line x1="199.48933283487955" y1="0" x2="199.48933283487955" y2="176.5999994277954" fill="rgb(0, 0, 0)" stroke="rgb(189, 189, 189)" stroke-width="1px" opacity="0.25"></line><line x1="232.73755497402615" y1="0" x2="232.73755497402615" y2="176.5999994277954" fill="rgb(0, 0, 0)" stroke="rgb(189, 189, 189)" stroke-width="1px" opacity="0.25"></line><line x1="265.98577711317273" y1="0" x2="265.98577711317273" y2="176.5999994277954" fill="rgb(0, 0, 0)" stroke="rgb(189, 189, 189)" stroke-width="1px" opacity="0.25"></line><line x1="299.23399925231934" y1="0" x2="299.23399925231934" y2="176.5999994277954" fill="rgb(0, 0, 0)" stroke="rgb(189, 189, 189)" stroke-width="1px" opacity="0.25"></line></g><g><line x1="0" y1="176.5999994277954" x2="299.23399925231934" y2="176.5999994277954" fill="rgb(0, 0, 0)" stroke="rgb(189, 189, 189)" stroke-width="1px" opacity="0.25"></line><line x1="0" y1="154.52499949932098" x2="299.23399925231934" y2="154.52499949932098" fill="rgb(0, 0, 0)" stroke="rgb(189, 189, 189)" stroke-width="1px" opacity="0.25"></line><line x1="0" y1="132.44999957084656" x2="299.23399925231934" y2="132.44999957084656" fill="rgb(0, 0, 0)" stroke="rgb(189, 189, 189)" stroke-width="1px" opacity="0.25"></line><line x1="0" y1="110.37499964237213" x2="299.23399925231934" y2="110.37499964237213" fill="rgb(0, 0, 0)" stroke="rgb(189, 189, 189)" stroke-width="1px" opacity="0.25"></line><line x1="0" y1="88.2999997138977" x2="299.23399925231934" y2="88.2999997138977" fill="rgb(0, 0, 0)" stroke="rgb(189, 189, 189)" stroke-width="1px" opacity="0.25"></line><line x1="0" y1="66.22499978542328" x2="299.23399925231934" y2="66.22499978542328" fill="rgb(0, 0, 0)" stroke="rgb(189, 189, 189)" stroke-width="1px" opacity="0.25"></line><line x1="0" y1="44.14999985694885" x2="299.23399925231934" y2="44.14999985694885" fill="rgb(0, 0, 0)" stroke="rgb(189, 189, 189)" stroke-width="1px" opacity="0.25"></line><line x1="0" y1="22.074999928474426" x2="299.23399925231934" y2="22.074999928474426" fill="rgb(0, 0, 0)" stroke="rgb(189, 189, 189)" stroke-width="1px" opacity="0.25"></line><line x1="0" y1="0" x2="299.23399925231934" y2="0" fill="rgb(0, 0, 0)" stroke="rgb(189, 189, 189)" stroke-width="1px" opacity="0.25"></line></g></g></g><g><g><line x1="0" y1="220.74999928474426" x2="299.23399925231934" y2="220.74999928474426" fill="rgb(0, 0, 0)" stroke="rgb(153, 153, 153)" stroke-width="1.5px"></line></g></g><g><g><line x1="33.24822213914659" y1="0" x2="33.24822213914659" y2="176.5999994277954" fill="rgb(0, 0, 0)" stroke="rgb(153, 153, 153)" stroke-width="1.5px"></line></g></g><g><g><g><g><g><path style="fill: none;" stroke="rgb(255, 112, 67)" stroke-width="2px" d="M33.91318658192952,3.415029705426605L34.578151024712454,3.7499990758984616L35.243115467495386,4.137155744226679L35.90807991027832,4.635268248149406L36.57304435306125,5.128348961275253L37.23800879584418,5.7298386792854155L37.90297323862712,6.409047099904876L38.567937681410044,7.080881503517226L39.23290212419298,7.715026643710455L39.897866566975914,8.307498479882943L40.562831009758845,8.931410771509151L41.22779545254178,9.571461270850323L41.89275989532471,9.999296527504688L42.55772433810764,10.566843858659528L43.222688780890564,11.244403845504827L43.8876532236735,11.883674394863805L44.55261766645643,12.46071787648898L45.217582109239366,13.222463565969434L45.8825465520223,13.932189399672724L46.54751099480523,14.611687439205431L47.21247543758816,15.364468225881312L47.87743988037109,16.221886244340162L48.542404323154024,17.083620734510014L49.207368765936955,17.99030442790464L49.87233320871989,18.716667959161175L50.537297651502826,19.666028492552876L51.20226209428575,20.390951408736953L51.86722653706869,21.251869985915057L52.53219097985161,22.17377993353002L53.19715542263455,22.914586467386265L53.862119865417476,23.330792748555886L54.527084308200415,23.92294578358086L55.19204875098334,24.688674413687462L55.85701319376628,25.615457142206765L56.52197763654921,26.04803361370499L57.18694207933214,26.731826664340574L57.85190652211507,27.341897813215315L58.516870964898004,28.12732036406128L59.181835407680936,28.91937818314913L59.84679985046387,29.641784427567426L60.5117642932468,30.291216971215285L61.17672873602974,31.12694233179269L61.84169317881266,31.967968964192124L62.5066576215956,32.758694943209264L63.171622064378525,33.834562785344296L63.83658650716146,34.89228870851262L64.50155094994439,35.50540874997388L65.16651539272732,36.38646153452205L65.83147983551025,37.087183620637546L66.49644427829318,38.28140059172374L67.16140872107611,39.00714328730947L67.82637316385905,39.35645106657387L68.49133760664198,40.117641262130654L69.15630204942491,41.155931047822484L69.82126649220784,41.938751281786644L70.48623093499077,42.53241656247978L71.1511953777737,42.89010623801655L71.81615982055663,43.6062377953147L72.48112426333958,44.08392874297334L73.1460887061225,44.86204435043468L73.81105314890544,45.88775704443772L74.47601759168836,46.964534509045656L75.1409820344713,47.79352915837551L75.80594647725424,48.803643555717684L76.47091092003716,49.81511749962552L77.13587536282009,50.39949689263158L77.80083980560303,50.785244076165355L78.46580424838596,51.10505335363545L79.13076869116888,51.27805916325118L79.79573313395183,51.51694722518966L80.46069757673476,52.53304355973852L81.12566201951769,53.40256748759368L81.79062646230061,54.07308413855577L82.45559090508355,54.80571408579592L83.12055534786649,55.73412365369901L83.78551979064942,56.06246918174956L84.45048423343235,56.83944797707028L85.11544867621528,57.35521356316122L85.78041311899821,58.296736354044384L86.44537756178113,59.01711328967486L87.11034200456407,60.00814067585848L87.775306447347,60.78637158508499L88.44027089012994,62.04848304827149L89.10523533291286,63.324610612711744L89.7701997756958,64.21546869718154L90.43516421847873,64.89678586786812L91.10012866126166,65.30322251637992L91.7650931040446,66.14075686016895L92.43005754682753,66.90361516644266L93.09502198961046,67.92191661517978L93.7599864323934,68.5540087914978L94.42495087517632,69.12492057650311L95.08991531795925,69.98918303411394L95.75487976074218,70.26049737689027L96.41984420352513,70.47455690123608L97.08480864630805,70.88275322361022L97.74977308909098,71.89590112376032L98.41473753187391,72.47167659319487L99.07970197465686,73.69607792433011L99.74466641743977,75.22690215396425L100.4096308602227,77.0963444454308L101.07459530300565,78.65781889328758L101.73955974578858,79.72140929870507L102.4045241885715,80.27241519056861L103.06948863135443,80.46134055021957L103.73445307413738,80.57684310677773L104.39941751692031,81.05233309402452L105.06438195970323,80.91426832786426L105.72934640248617,81.51592591637446L106.3943108452691,81.97149609364008L107.05927528805202,82.82428757995028L107.72423973083495,83.75925807316334L108.3892041736179,84.35105260386989L109.05416861640083,84.82666671738055L109.71913305918375,85.42722691591861L110.38409750196668,86.36686083799692L111.04906194474962,86.84100024037774L111.71402638753256,87.42723157484403L112.37899083031547,87.7256868511832L113.04395527309842,88.3371839219119L113.70891971588135,89.0495303472432L114.37388415866428,89.42253048205247L115.0388486014472,89.86907295761732L115.70381304423015,90.30521522402739L116.36877748701308,90.84196230478395L117.03374192979601,91.05854664824516L117.69870637257893,91.63239469570128L118.36367081536187,92.3246106227715L119.0286352581448,93.14411181619283L119.69359970092773,93.43989084480064L120.35856414371067,94.53626011254936L121.0235285864936,94.88355935631836L121.68849302927653,94.945178687296L122.35345747205947,95.35622125806687L123.01842191484239,95.65631979611416L123.68338635762532,95.77802598620164L124.34835080040826,96.15176582762906L125.0133152431912,96.41309557068323L125.67827968597412,96.81329238728469L126.34324412875705,97.49681529339009L127.00820857154,98.04089783811766L127.67317301432293,98.24109214876476L128.33813745710583,98.60803081973386L129.00310189988878,99.10489782734221L129.66806634267172,99.56403911617095L130.33303078545464,99.72167698604909L130.99799522823758,100.65160052939656L131.6629596710205,101.24063214992563L132.32792411380345,102.19254025699975L132.99288855658637,102.25380537169086L133.6578529993693,102.7897706433024L134.32281744215223,102.82338298839285L134.98778188493517,103.14693596212922L135.6527463277181,103.89121645102465L136.31771077050104,104.7686970898056L136.98267521328395,105.34646060222629L137.6476396560669,106.37270153695218L138.31260409884982,107.84380350353982L138.97756854163276,108.94509344693653L139.64253298441568,110.1539866700792L140.30749742719863,111.15614851268244L140.97246186998154,111.94242007824683L141.6374263127645,112.18983222256654L142.3023907555474,112.46857677855735L142.96735519833035,112.16416221778927L143.63231964111327,112.58122786346425L144.29728408389622,113.4467309064456L144.96224852667916,113.93394051393935L145.62721296946208,114.61186131273921L146.292177412245,115.86435447951014L146.95714185502794,117.06316251381978L147.6221062978109,118.0873613024575L148.2870707405938,119.05886545206984L148.95203518337672,119.95021449597547L149.61699962615967,120.64455028898946L150.2819640689426,120.57589485604603L150.94692851172553,121.16742186915513L151.61189295450848,121.14273033403366L152.27685739729137,121.19527033503716L152.9418218400743,121.28210309705675L153.60678628285726,121.4999479882209L154.27175072564017,121.47890529820506L154.93671516842312,121.72292058969795L155.60167961120607,122.15140613201163L156.26664405398898,123.3938531890323L156.93160849677193,123.82040342501045L157.59657293955485,124.10050588688493L158.26153738233776,124.68377885901745L158.9265018251207,125.65748197819711L159.59146626790366,126.07304917953601L160.25643071068657,126.82696405505519L160.92139515346952,127.17106174284818L161.58635959625246,128.180339490496L162.25132403903538,129.01570949546442L162.9162884818183,129.15593404211089L163.58125292460122,129.45361549372632L164.24621736738416,129.70330555457448L164.9111818101671,130.10939839598575L165.57614625295002,131.26821073648958L166.24111069573297,131.85595847305714L166.90607513851592,132.67689582121352L167.57103958129883,133.45495771133713L168.23600402408175,134.15389922479002L168.9009684668647,134.82721875716862L169.56593290964761,135.69905287276973L170.23089735243056,136.61826613572305L170.8958617952135,136.65472283185065L171.56082623799642,136.42864004271723L172.22579068077937,136.15506793487722L172.89075512356226,136.6194113133586L173.5557195663452,137.34105584551978L174.22068400912815,137.4543877339659L174.88564845191107,136.9438827380677L175.550612894694,137.20747555929995L176.21557733747696,137.97649285904208L176.88054178025988,138.41250777645672L177.54550622304282,138.94117012989454L178.2104706658257,139.4454977636715L178.87543510860866,140.29292732757352L179.5403995513916,140.4757261018591L180.20536399417452,140.77287663638424L180.87032843695746,141.25222202747779L181.5352928797404,141.60182004276345L182.20025732252333,141.89195886943182L182.86522176530627,142.1023764343619L183.5301862080892,142.092870826852L184.1951506508721,141.20287990284095L184.86011509365505,141.0650360362758L185.525079536438,140.45040182966684L186.19004397922092,140.62428168573715L186.85500842200386,140.86771938686957L187.5199728647868,141.04174796319268L188.18493730756973,141.57562694679407L188.84990175035264,142.04451873953067L189.51486619313556,142.16113804164704L190.1798306359185,142.13501401833165L190.84479507870145,142.4339439739171L191.50975952148437,143.6377224389824L192.17472396426732,144.13176087820472L192.83968840705026,145.08465759292756L193.50465284983315,145.56339892463672L194.1696172926161,146.08266599883515L194.834581735399,146.25270596059056L195.49954617818196,146.09611853120174L196.1645106209649,146.28997920921353L196.82947506374782,146.05168123537942L197.49443950653077,146.16765069528844L198.1594039493137,146.6584522099188L198.8243683920966,147.00039566536867L199.48933283487955,146.8814248602447L200.1542972776625,147.26761122143662L200.8192617204454,146.6299173922604L201.48422616322836,147.05847380635979L202.1491906060113,147.03854806490065L202.81415504879422,147.09556436338536L203.47911949157717,147.75677448901257L204.14408393436005,147.93190131288296L204.809048377143,148.65651469195623L205.47401281992595,148.84638692580205L206.13897726270886,150.2013763889118L206.8039417054918,150.31637273980414L207.46890614827475,150.56596401412892L208.13387059105767,150.95797039584735L208.79883503384062,151.01381442941238L209.46379947662354,151.07555627540899L210.12876391940645,151.4025260704068L210.7937283621894,151.2074898276213L211.45869280497234,151.33787963262384L212.12365724775526,151.68659213766236L212.7886216905382,151.74932047467152L213.45358613332115,151.4437471599005L214.11855057610404,151.06566673148714L214.783515018887,150.88108529854765L215.4484794616699,151.28090881099666L216.11344390445285,151.0416680361379L216.7784083472358,151.3860099197967L217.4433727900187,152.01628117296312L218.10833723280166,152.33993094267115L218.7733016755846,152.05548907358295L219.4382661183675,151.81447748963137L220.10323056115044,151.86465118876816L220.76819500393336,152.06344376219585L221.4331594467163,152.12348638484406L222.09812388949925,152.17719804646086L222.76308833228217,152.32822351354312L223.4280527750651,152.59342812437686L224.09301721784806,152.8765577149687L224.75798166063095,152.51931173131237L225.4229461034139,152.72291244298702L226.08791054619684,153.46633855353716L226.75287498897976,153.67707303980924L227.4178394317627,154.33708791283087L228.08280387454565,154.92372385543155L228.74776831732856,155.68500120270872L229.4127327601115,156.3398176921632L230.0776972028944,156.2343855821786L230.74266164567734,156.75247672428875L231.4076260884603,157.36779906756493L232.0725905312432,158.562257635232L232.73755497402615,158.77014985425913L233.4025194168091,159.07465339693456L234.06748385959202,159.10459748975916L234.73244830237496,159.43011998474444L235.39741274515785,160.21965740826175L236.0623771879408,159.95123363026448L236.72734163072374,159.69365639596344L237.39230607350666,159.9264819089098L238.0572705162896,160.33677583716928L238.72223495907255,159.72335905344698L239.38719940185547,159.40366414996902L240.0521638446384,159.53149572302468L240.71712828742133,160.60609339485646L241.38209273020425,160.92655512162207L242.0470571729872,161.69207319653074L242.71202161577014,162.1680996156863L243.37698605855306,162.85341558299575L244.041950501336,163.33448426347775L244.70691494411895,162.8692109701585L245.37187938690184,162.59460483020794L246.03684382968478,162.72487313628662L246.7018082724677,162.550165797427L247.36677271525065,162.895436650412L248.0317371580336,163.1257946529649L248.6967016008165,162.34718126141857L249.36166604359946,162.43286294899224L250.0266304863824,161.98648258259894L250.6915949291653,161.87937229303597L251.35655937194824,161.8836715521014L252.02152381473118,162.45792374553514L252.6864882575141,162.77085020570271L253.35145270029705,162.06670388351742L254.01641714308,162.4463741810596L254.6813815858629,162.78668438438976L255.34634602864585,162.9069684289848L256.01131047142877,162.64271581977977L256.67627491421166,162.749872411412L257.3412393569946,163.05417590712523L258.00620379977755,163.64490643262448L258.6711682425605,164.20286423226142L259.33613268534344,164.72847224396386L260.0010971281264,164.91137349369433L260.6660615709093,164.42052408320137L261.3310260136922,164.53955226925632L261.99599045647517,164.49921062011708L262.66095489925806,164.520430308812L263.325919342041,164.30108511071884L263.99088378482395,164.4383524240324L264.6558482276069,164.58473093496295L265.32081267038984,164.83796222723413L265.98577711317273,165.25813333777205" fill="none"></path></g></g></g></g><g opacity="0.2"><g><g><g><path style="fill: none;" stroke="rgb(255, 112, 67)" stroke-width="2px" d="M33.91318658192952,3.415029705426605L34.578151024712454,3.950980698181638L35.243115467495386,4.508826145821786L35.90807991027832,5.221048552762454L36.57304435306125,5.772115140332403L37.23800879584418,6.561915495591961L37.90297323862712,7.380326008725433L38.567937681410044,8.06042251359429L39.23290212419298,8.65026754914345L39.897866566975914,9.18725010756134L40.562831009758845,9.86162037038332L41.22779545254178,10.528053893309448L41.89275989532471,10.63965245614213L42.55772433810764,11.417052971086946L43.222688780890564,12.259947379442906L43.8876532236735,12.842129355782276L44.55261766645643,13.326038913464231L45.217582109239366,14.364888693041962L45.8825465520223,14.996670030640303L46.54751099480523,15.630872389692286L47.21247543758816,16.493598121607647L47.87743988037109,17.507985058323356L48.542404323154024,18.376205456320463L49.207368765936955,19.350319227463842L49.87233320871989,19.806208093364944L50.537297651502826,21.09006524405129L51.20226209428575,21.478333928134134L51.86722653706869,22.543246529969338L52.53219097985161,23.556644005743124L53.19715542263455,24.025795858738093L53.862119865417476,23.955102032291734L54.527084308200415,24.811175218299695L55.19204875098334,25.837267267434754L55.85701319376628,27.00563116860212L56.52197763654921,26.696898302361546L57.18694207933214,27.757516222661593L57.85190652211507,28.257004527088725L58.516870964898004,29.30545418303916L59.181835407680936,30.107464907369263L59.84679985046387,30.725393791780675L60.5117642932468,31.2653657853848L61.17672873602974,32.380530371653435L61.84169317881266,33.2295089121842L62.5066576215956,33.944783911392506L63.171622064378525,35.44836454826725L63.83658650716146,36.478877593100265L64.50155094994439,36.42508881210847L65.16651539272732,37.70804071129476L65.83147983551025,38.13826674978725L66.49644427829318,40.072726048328946L67.16140872107611,40.09575733067925L67.82637316385905,39.88041273546787L68.49133760664198,41.259426555462596L69.15630204942491,42.71336572635744L69.82126649220784,43.1129816327317L70.48623093499077,43.422914483518866L71.1511953777737,43.42664075132143L71.81615982055663,44.680435131261675L72.48112426333958,44.80046516446117L73.1460887061225,46.02921776162657L73.81105314890544,47.42632608544221L74.47601759168836,48.579700705957464L75.1409820344713,49.037021132370285L75.80594647725424,50.31881515173092L76.47091092003716,51.33232841548727L77.13587536282009,51.276065982140665L77.80083980560303,51.36386485146602L78.46580424838596,51.58476726984054L79.13076869116888,51.537567877674746L79.79573313395183,51.8752793180974L80.46069757673476,54.05718806156182L81.12566201951769,54.70685337937641L81.79062646230061,55.07885911499892L82.45559090508355,55.90465900665612L83.12055534786649,57.12673800555365L83.78551979064942,56.554987473825406L84.45048423343235,58.00491617005139L85.11544867621528,58.12886194229765L85.78041311899821,59.709020540369124L86.44537756178113,60.0976786931206L87.11034200456407,61.49468175513391L87.775306447347,61.95371794892475L88.44027089012994,63.94165024305124L89.10523533291286,65.23880195937215L89.7701997756958,65.55175582388625L90.43516421847873,65.91876162389798L91.10012866126166,65.9128774891476L91.7650931040446,67.39705837585251L92.43005754682753,68.04790262585323L93.09502198961046,69.44936878828543L93.7599864323934,69.50214705597483L94.42495087517632,69.98128825401113L95.08991531795925,71.28557672053017L95.75487976074218,70.6674688910548L96.41984420352513,70.79564618775481L97.08480864630805,71.49504770717141L97.74977308909098,73.41562297398548L98.41473753187391,73.33533979734665L99.07970197465686,75.53267992103298L99.74466641743977,77.52313849841545L100.4096308602227,79.90050788263068L101.07459530300565,81.00003056507273L101.73955974578858,81.31679490683126L102.4045241885715,81.09892402836391L103.06948863135443,80.74472858969602L103.73445307413738,80.75009694161497L104.39941751692031,81.7655680748947L105.06438195970323,80.70717117862387L105.72934640248617,82.41841229913973L106.3943108452691,82.6548513595385L107.05927528805202,84.10347480941556L107.72423973083495,85.1617138129829L108.3892041736179,85.23874439992966L109.05416861640083,85.54008788764651L109.71913305918375,86.32806721372572L110.38409750196668,87.77631172111438L111.04906194474962,87.55220934394896L111.71402638753256,88.30657857654347L112.37899083031547,88.17336976569197L113.04395527309842,89.25442952800495L113.70891971588135,90.11804998524013L114.37388415866428,89.98203068426636L115.0388486014472,90.53888667096459L115.70381304423015,90.95942862364251L116.36877748701308,91.64708292591882L117.03374192979601,91.38342316343693L117.69870637257893,92.49316676688545L118.36367081536187,93.36293451337684L119.0286352581448,94.37336360632486L119.69359970092773,93.8835593877123L120.35856414371067,96.18081401417243L121.0235285864936,95.40450822197187L121.68849302927653,95.03760768376247L122.35345747205947,95.97278511422314L123.01842191484239,96.10646760318514L123.68338635762532,95.96058527133283L124.34835080040826,96.7123755897702L125.0133152431912,96.80509018526448L125.67827968597412,97.41358761218692L126.34324412875705,98.52209965254815L127.00820857154,98.857021655209L127.67317301432293,98.54138361473542L128.33813745710583,99.15843882618748L129.00310189988878,99.85019833875475L129.66806634267172,100.25275104941409L130.33303078545464,99.95813379086627L130.99799522823758,102.04648584441776L131.6629596710205,102.12417958071921L132.32792411380345,103.62040241761093L132.99288855658637,102.3457030437275L133.6578529993693,103.5937185507197L134.32281744215223,102.87380150602854L134.98778188493517,103.63226542273378L135.6527463277181,105.00763718436781L136.31771077050104,106.08491804797706L136.98267521328395,106.2131058708573L137.6476396560669,107.912062939041L138.31260409884982,110.05045645342125L138.97756854163276,110.59702836203161L139.64253298441568,111.96732650479322L140.30749742719863,112.65939127658726L140.97246186998154,113.12182742659343L141.6374263127645,112.56095043904611L142.3023907555474,112.88669361254358L142.96735519833035,111.70754037663716L143.63231964111327,113.20682633197674L144.29728408389622,114.74498547091764L144.96224852667916,114.66475492517998L145.62721296946208,115.62874251093899L146.292177412245,117.74309422966655L146.95714185502794,118.86137456528422L147.6221062978109,119.62365948541412L148.2870707405938,120.51612167648835L148.95203518337672,121.28723806183393L149.61699962615967,121.68605397851047L150.2819640689426,120.47291170663095L150.94692851172553,122.05471238881881L151.61189295450848,121.10569303135145L152.27685739729137,121.2740803365424L152.9418218400743,121.41235224008608L153.60678628285726,121.8267153249671L154.27175072564017,121.44734126318133L154.93671516842312,122.08894352693727L155.60167961120607,122.79413444548214L156.26664405398898,125.25752377456331L156.93160849677193,124.4602287789777L157.59657293955485,124.52065957969666L158.26153738233776,125.5586883172162L158.9265018251207,127.11803665696658L159.59146626790366,126.6963999815444L160.25643071068657,127.95783636833397L160.92139515346952,127.68720827453768L161.58635959625246,129.69425611196772L162.25132403903538,130.26876450291707L162.9162884818183,129.36627086208057L163.58125292460122,129.90013767114942L164.24621736738416,130.07784064584678L164.9111818101671,130.71853765810266L165.57614625295002,133.00642924724534L166.24111069573297,132.73758007790846L166.90607513851592,133.90830184344807L167.57103958129883,134.62205054652256L168.23600402408175,135.20231149496936L168.9009684668647,135.8371980557365L169.56593290964761,137.0068040461714L170.23089735243056,137.997086030153L170.8958617952135,136.709407876042L171.56082623799642,136.0895158590171L172.22579068077937,135.74470977311725L172.89075512356226,137.3159263810806L173.5557195663452,138.42352264376154L174.22068400912815,137.6243855666351L174.88564845191107,136.1781252442204L175.550612894694,137.60286479114828L176.21557733747696,139.13001880865534L176.88054178025988,139.06653015257862L177.54550622304282,139.73416366005134L178.2104706658257,140.20198921433692L178.87543510860866,141.5640716734265L179.5403995513916,140.74992426328748L180.20536399417452,141.21860243817196L180.87032843695746,141.9712401141181L181.5352928797404,142.12621706569192L182.20025732252333,142.32716710943436L182.86522176530627,142.418002781757L183.5301862080892,142.07861241558714L184.1951506508721,139.86789351682438L184.86011509365505,140.8582702364281L185.525079536438,139.52845051975336L186.19004397922092,140.8851014698426L186.85500842200386,141.2328759385682L187.5199728647868,141.3027908276773L188.18493730756973,142.3764454221962L188.84990175035264,142.74785642863554L189.51486619313556,142.33606699482155L190.1798306359185,142.0958279833586L190.84479507870145,142.88233890729526L191.50975952148437,145.44339013658032L192.17472396426732,144.8728185370382L192.83968840705026,146.51400266501182L193.50465284983315,146.2815109222005L194.1696172926161,146.86156661013277L194.834581735399,146.50776590322363L195.49954617818196,145.86123738711854L196.1645106209649,146.58077022623118L196.82947506374782,145.69423427462826L197.49443950653077,146.341604885152L198.1594039493137,147.39465448186436L198.8243683920966,147.51331084854343L199.48933283487955,146.70296865255872L200.1542972776625,147.84689076322454L200.8192617204454,145.67337664849612L201.48422616322836,147.70130842750888L202.1491906060113,147.0086594527119L202.81415504879422,147.1810888111124L203.47911949157717,148.74858967745342L204.14408393436005,148.19459154868852L204.809048377143,149.74343476056615L205.47401281992595,149.1311952765708L206.13897726270886,152.23386058357636L206.8039417054918,150.48886726614265L207.46890614827475,150.94035092561614L208.13387059105767,151.54597996842503L208.79883503384062,151.09758047975987L209.46379947662354,151.1681690444039L210.12876391940645,151.8929807629035L210.7937283621894,150.91493546344302L211.45869280497234,151.53346434012772L212.12365724775526,152.20966089522017L212.7886216905382,151.84341298018524L213.45358613332115,150.985387187744L214.11855057610404,150.4985460888671L214.783515018887,150.60421314913836L215.4484794616699,151.88064407967016L216.11344390445285,150.68280687384976L216.7784083472358,151.90252274528493L217.4433727900187,152.9616880527128L218.10833723280166,152.82540559723319L218.7733016755846,151.62882626995065L219.4382661183675,151.452960113704L220.10323056115044,151.93991173747335L220.76819500393336,152.3616326223374L221.4331594467163,152.21355031881635L222.09812388949925,152.25776553888602L222.76308833228217,152.55476171416655L223.4280527750651,152.99123504062746L224.09301721784806,153.3012521008565L224.75798166063095,151.98344275582787L225.4229461034139,153.028313510499L226.08791054619684,154.58147771936237L226.75287498897976,153.99317476921738L227.4178394317627,155.3271102223633L228.08280387454565,155.80367776933258L228.74776831732856,156.82691722362443L229.4127327601115,157.3220424263449L230.0776972028944,156.07623741720167L230.74266164567734,157.52961343745403L231.4076260884603,158.2907825824792L232.0725905312432,160.35394548673258L232.73755497402615,159.0819881827999L233.4025194168091,159.5314087109477L234.06748385959202,159.14951362899606L234.73244830237496,159.9184037272223L235.39741274515785,161.40396354353777L236.0623771879408,159.54859796326855L236.72734163072374,159.30729054451191L237.39230607350666,160.27572017832935L238.0572705162896,160.95221672955844L238.72223495907255,158.80323387786356L239.38719940185547,158.92412179475207L240.0521638446384,159.72324308260815L240.71712828742133,162.2179899026041L241.38209273020425,161.40724771177054L242.0470571729872,162.8403503088937L242.71202161577014,162.88213924441962L243.37698605855306,163.88138953395995L244.041950501336,164.05608728420071L244.70691494411895,162.17130103017962L245.37187938690184,162.1826956202821L246.03684382968478,162.9202755954046L246.7018082724677,162.28810478913763L247.36677271525065,163.41334292988947L248.0317371580336,163.47133165679432L248.6967016008165,161.17926117409905L249.36166604359946,162.5613854803527L250.0266304863824,161.31691203300898L250.6915949291653,161.71870685869152L251.35655937194824,161.89012044069952L252.02152381473118,163.3193020356858L252.6864882575141,163.24023989595403L253.35145270029705,161.01048440023948L254.01641714308,163.0158796273729L254.6813815858629,163.29714968938498L255.34634602864585,163.08739449587745L256.01131047142877,162.24633690597219L256.67627491421166,162.91060729886038L257.3412393569946,163.51063115069508L258.00620379977755,164.53100222087338L258.6711682425605,165.0398009317168L259.33613268534344,165.5168842615175L260.0010971281264,165.18572536829004L260.6660615709093,163.68424996746194L261.3310260136922,164.71809454833877L261.99599045647517,164.4386981464082L262.66095489925806,164.55225984185438L263.325919342041,163.9720673135791L263.99088378482395,164.64425339400267L264.6558482276069,164.8042987013588L265.32081267038984,165.21780916564092L265.98577711317273,165.88839000357893" fill="none"></path></g></g></g></g></g></g><g transform="translate(30, 176)" clip-path="url(#clip_1)"><clipPath id="clip_1"><rect width="299" height="23"></rect></clipPath><g><g><line x1="0" y1="0" x2="0" y2="5" style="visibility: inherit;" fill="rgb(0, 0, 0)" stroke="rgb(204, 204, 204)" stroke-width="1px"></line><line x1="33.24822213914659" y1="0" x2="33.24822213914659" y2="5" style="visibility: inherit;" fill="rgb(0, 0, 0)" stroke="rgb(204, 204, 204)" stroke-width="1px"></line><line x1="66.49644427829318" y1="0" x2="66.49644427829318" y2="5" style="visibility: inherit;" fill="rgb(0, 0, 0)" stroke="rgb(204, 204, 204)" stroke-width="1px"></line><line x1="99.74466641743977" y1="0" x2="99.74466641743977" y2="5" style="visibility: inherit;" fill="rgb(0, 0, 0)" stroke="rgb(204, 204, 204)" stroke-width="1px"></line><line x1="132.99288855658637" y1="0" x2="132.99288855658637" y2="5" style="visibility: inherit;" fill="rgb(0, 0, 0)" stroke="rgb(204, 204, 204)" stroke-width="1px"></line><line x1="166.24111069573297" y1="0" x2="166.24111069573297" y2="5" style="visibility: inherit;" fill="rgb(0, 0, 0)" stroke="rgb(204, 204, 204)" stroke-width="1px"></line><line x1="199.48933283487955" y1="0" x2="199.48933283487955" y2="5" style="visibility: inherit;" fill="rgb(0, 0, 0)" stroke="rgb(204, 204, 204)" stroke-width="1px"></line><line x1="232.73755497402615" y1="0" x2="232.73755497402615" y2="5" style="visibility: inherit;" fill="rgb(0, 0, 0)" stroke="rgb(204, 204, 204)" stroke-width="1px"></line><line x1="265.98577711317273" y1="0" x2="265.98577711317273" y2="5" style="visibility: inherit;" fill="rgb(0, 0, 0)" stroke="rgb(204, 204, 204)" stroke-width="1px"></line><line x1="299.23399925231934" y1="0" x2="299.23399925231934" y2="5" style="visibility: inherit;" fill="rgb(0, 0, 0)" stroke="rgb(204, 204, 204)" stroke-width="1px"></line></g><g transform="translate(0, 8)"><text style="text-anchor: middle; visibility: hidden; font-family: Roboto, sans-serif; font-size: 12px; font-weight: 200;" x="0" y="0" dx="0em" dy="0.95em" fill="rgb(255, 255, 255)" stroke="none" stroke-width="1px">-200k</text><text style="text-anchor: middle; visibility: inherit; font-family: Roboto, sans-serif; font-size: 12px; font-weight: 200;" x="33.24822213914659" y="0" dx="0em" dy="0.95em" fill="rgb(255, 255, 255)" stroke="none" stroke-width="1px">0</text><text style="text-anchor: middle; visibility: inherit; font-family: Roboto, sans-serif; font-size: 12px; font-weight: 200;" x="66.49644427829318" y="0" dx="0em" dy="0.95em" fill="rgb(255, 255, 255)" stroke="none" stroke-width="1px">200k</text><text style="text-anchor: middle; visibility: inherit; font-family: Roboto, sans-serif; font-size: 12px; font-weight: 200;" x="99.74466641743977" y="0" dx="0em" dy="0.95em" fill="rgb(255, 255, 255)" stroke="none" stroke-width="1px">400k</text><text style="text-anchor: middle; visibility: inherit; font-family: Roboto, sans-serif; font-size: 12px; font-weight: 200;" x="132.99288855658637" y="0" dx="0em" dy="0.95em" fill="rgb(255, 255, 255)" stroke="none" stroke-width="1px">600k</text><text style="text-anchor: middle; visibility: inherit; font-family: Roboto, sans-serif; font-size: 12px; font-weight: 200;" x="166.24111069573297" y="0" dx="0em" dy="0.95em" fill="rgb(255, 255, 255)" stroke="none" stroke-width="1px">800k</text><text style="text-anchor: middle; visibility: inherit; font-family: Roboto, sans-serif; font-size: 12px; font-weight: 200;" x="199.48933283487955" y="0" dx="0em" dy="0.95em" fill="rgb(255, 255, 255)" stroke="none" stroke-width="1px">1M</text><text style="text-anchor: middle; visibility: inherit; font-family: Roboto, sans-serif; font-size: 12px; font-weight: 200;" x="232.73755497402615" y="0" dx="0em" dy="0.95em" fill="rgb(255, 255, 255)" stroke="none" stroke-width="1px">1.2M</text><text style="text-anchor: middle; visibility: inherit; font-family: Roboto, sans-serif; font-size: 12px; font-weight: 200;" x="265.98577711317273" y="0" dx="0em" dy="0.95em" fill="rgb(255, 255, 255)" stroke="none" stroke-width="1px">1.4M</text><text style="text-anchor: middle; visibility: hidden; font-family: Roboto, sans-serif; font-size: 12px; font-weight: 200;" x="299.23399925231934" y="0" dx="0em" dy="0.95em" fill="rgb(255, 255, 255)" stroke="none" stroke-width="1px">1.6M</text></g><line x1="0" y1="0" x2="299.23399925231934" y2="0" fill="rgb(0, 0, 0)" stroke="rgb(204, 204, 204)" stroke-width="1px"></line></g></g></g></g></svg>